<svg width="10" height="8" viewBox="0 0 10 8" fill="none" xmlns="http://www.w3.org/2000/svg">
<path d="M5.05784 4.42487L1.76649 7.8238C1.539 8.05873 1.17115 8.05873 0.946078 7.8238L0.399133 7.25898C0.171643 7.02405 0.171643 6.64417 0.399133 6.41175L2.73212 4.0025L0.399133 1.59325C0.171643 1.35833 0.171643 0.978444 0.399133 0.746017L0.943658 0.176195C1.17115 -0.0587316 1.539 -0.0587316 1.76407 0.176195L5.05542 3.57513C5.28533 3.81006 5.28533 4.18994 5.05784 4.42487ZM9.70445 3.57513L6.4131 0.176195C6.18561 -0.0587316 5.81776 -0.0587316 5.59269 0.176195L5.04574 0.741018C4.81825 0.975945 4.81825 1.35583 5.04574 1.58825L7.37873 3.9975L5.04574 6.40675C4.81825 6.64167 4.81825 7.02156 5.04574 7.25398L5.59269 7.81881C5.82018 8.05373 6.18803 8.05373 6.4131 7.81881L9.70445 4.41987C9.93194 4.18994 9.93194 3.81006 9.70445 3.57513Z" fill="#174F82"/>
</svg>
