<svg width="427" height="427" viewBox="0 0 427 427" fill="none" xmlns="http://www.w3.org/2000/svg">
<g clip-path="url(#clip0)">
<path d="M293.333 135.04L190.08 240.213L137.173 187.093L108.8 215.467L192.213 298.667L326.187 168.747L293.333 135.04Z" fill="#3D4856"/>
<path d="M213.333 0C95.513 0 0 95.513 0 213.333C0 331.153 95.513 426.666 213.333 426.666C331.153 426.666 426.666 331.153 426.666 213.333C426.666 95.513 331.154 0 213.333 0ZM213.333 388.053C116.838 388.053 38.613 309.828 38.613 213.333C38.613 116.838 116.838 38.613 213.333 38.613C309.779 38.73 387.935 116.886 388.053 213.333C388.053 309.829 309.829 388.053 213.333 388.053Z" fill="#3D4856"/>
</g>
<defs>
<clipPath id="clip0">
<rect width="426.667" height="426.667" fill="white"/>
</clipPath>
</defs>
</svg>
