<svg width="938" height="939" viewBox="0 0 938 939" fill="none" xmlns="http://www.w3.org/2000/svg">
<path d="M447 1.09979C354.9 4.89979 262.9 37.8998 188.6 93.6998C153 120.4 118.5 155.1 92.5 190C1.80004 312.2 -24 470.1 23.1 615C35.8 653.9 56 695.4 79.2 729.9C177.9 877.2 351.4 956.8 526 934.9C622.6 922.8 709.1 883.4 781.9 818.4C939 678.1 982.9 449.4 888.9 261C847.1 177.4 783.3 109.5 702 62.4998C641.2 27.2998 564.3 4.29979 498 1.49979C469.7 0.299791 465 0.299791 447 1.09979ZM502.5 72.9998C635.2 84.3998 752.2 160.1 817.1 276.5C865.5 363.5 879.3 468.5 854.9 566C837.4 636.2 801.9 699 751 750C718.1 783 682.3 808.5 641.5 828.1C587 854.2 530.1 867 469 867C404.9 867 346.3 853.1 289.5 824.5C213.5 786.2 151.8 724.4 113.5 648.2C54.7 531.1 57.5 390 120.9 276.5C185.7 160.5 302.4 84.6998 434 73.0998C447.9 71.8998 488.6 71.8998 502.5 72.9998Z" fill="#E93333"/>
<path d="M289.9 238.1C287.3 238.5 284.2 239.4 282.9 240C278.9 242.1 242 279.2 239.7 283.5C236.8 288.8 236.7 300.8 239.4 306C240.4 307.9 277.2 345.5 321.1 389.5L401 469.5L321.4 549C275.2 595.2 241 630.2 239.7 632.5C236.4 638.7 236.6 650 240.2 656C244.1 662.6 279.6 697.4 284.4 699.4C289.3 701.4 299.6 701.5 304.6 699.4C307.5 698.3 330.1 676.3 388.8 617.7L469 537.5L549.3 617.7C607.9 676.3 630.5 698.3 633.4 699.4C638.4 701.5 648.7 701.4 653.6 699.4C658.4 697.4 693.9 662.6 697.8 656C701.4 650 701.6 638.7 698.3 632.5C697 630.2 662.8 595.2 616.6 549L537 469.5L616.9 389.5C660.8 345.5 697.6 307.9 698.6 306C701.3 300.8 701.2 288.8 698.3 283.5C695.1 277.6 658.4 241.5 653.5 239.4C648.4 237.3 638.7 237.3 633.5 239.5C630.5 240.7 608.6 262 549.3 321.3L469 401.5L388.8 321.3C342.4 274.9 307.2 240.6 305.5 239.9C300.8 238 294.9 237.4 289.9 238.1Z" fill="#E93333"/>
</svg>
