<svg width="25" height="22" viewBox="0 0 25 22" fill="none" xmlns="http://www.w3.org/2000/svg">
<path d="M17.2386 11L24.3459 4.74562C25.218 3.97812 25.218 2.73375 24.3459 1.96562L22.7663 0.575625C21.8942 -0.191875 20.4801 -0.191875 19.6072 0.575625L12.5 6.83L5.39276 0.575625C4.5206 -0.191875 3.10653 -0.191875 2.23366 0.575625L0.654119 1.96562C-0.21804 2.73312 -0.21804 3.9775 0.654119 4.74562L7.76136 11L0.654119 17.2544C-0.21804 18.0219 -0.21804 19.2662 0.654119 20.0344L2.23366 21.4244C3.10582 22.1919 4.5206 22.1919 5.39276 21.4244L12.5 15.17L19.6072 21.4244C20.4794 22.1919 21.8942 22.1919 22.7663 21.4244L24.3459 20.0344C25.218 19.2669 25.218 18.0225 24.3459 17.2544L17.2386 11Z" fill="#222830"/>
</svg>
