<svg width="13" height="11" viewBox="0 0 13 11" fill="none" xmlns="http://www.w3.org/2000/svg">
<line x1="0.5" y1="-0.5" x2="6.5" y2="-0.5" transform="matrix(1 0 0 -1 6 9.55005)" stroke="#EE7203" stroke-linecap="round"/>
<line x1="0.5" y1="-0.5" x2="4.5" y2="-0.5" transform="matrix(1 0 0 -1 6 7.75)" stroke="#EE7203" stroke-linecap="round"/>
<line x1="0.5" y1="-0.5" x2="2.5" y2="-0.5" transform="matrix(1 0 0 -1 6 5.95007)" stroke="#EE7203" stroke-linecap="round"/>
<path d="M3.5 10C3.5 10.2761 3.72386 10.5 4 10.5C4.27614 10.5 4.5 10.2761 4.5 10H3.5ZM4.35355 0.646446C4.15829 0.451184 3.84171 0.451184 3.64645 0.646446L0.464466 3.82843C0.269204 4.02369 0.269204 4.34027 0.464466 4.53553C0.659728 4.7308 0.976311 4.7308 1.17157 4.53553L4 1.70711L6.82843 4.53553C7.02369 4.7308 7.34027 4.7308 7.53553 4.53553C7.7308 4.34027 7.7308 4.02369 7.53553 3.82843L4.35355 0.646446ZM4.5 10L4.5 1H3.5L3.5 10H4.5Z" fill="#EE7203"/>
</svg>
