<svg width="15" height="15" viewBox="0 0 15 15" fill="none" xmlns="http://www.w3.org/2000/svg">
<path d="M7.45066 0C3.33606 0 0 3.35936 0 7.5C0 11.6431 3.33606 15 7.45066 15C11.5653 15 14.9013 11.6431 14.9013 7.5C14.9013 3.35936 11.5653 0 7.45066 0ZM7.45066 3.32661C8.14753 3.32661 8.71246 3.89528 8.71246 4.59677C8.71246 5.29827 8.14753 5.86694 7.45066 5.86694C6.75378 5.86694 6.18885 5.29827 6.18885 4.59677C6.18885 3.89528 6.75378 3.32661 7.45066 3.32661ZM9.13306 11.0081C9.13306 11.2085 8.97164 11.371 8.77255 11.371H6.12877C5.92967 11.371 5.76825 11.2085 5.76825 11.0081V10.2823C5.76825 10.0818 5.92967 9.91935 6.12877 9.91935H6.48928V7.98387H6.12877C5.92967 7.98387 5.76825 7.82138 5.76825 7.62097V6.89516C5.76825 6.69475 5.92967 6.53226 6.12877 6.53226H8.05152C8.25061 6.53226 8.41203 6.69475 8.41203 6.89516V9.91935H8.77255C8.97164 9.91935 9.13306 10.0818 9.13306 10.2823V11.0081Z" fill="#EE7203"/>
</svg>
