<svg width="5" height="6" viewBox="0 0 5 6" fill="none" xmlns="http://www.w3.org/2000/svg">
<path d="M2.99299 3.85714C4.05735 3.85714 4.80159 3.06083 4.80159 1.91613C4.80159 0.771429 4.05735 0 2.99299 0H0.950315C0.86745 0 0.800265 0.0719598 0.800265 0.160714V2.92811H0.15005C0.0671848 2.92811 0 3.00007 0 3.08882V3.69643C0 3.78518 0.0671848 3.85714 0.15005 3.85714H0.800265V4.28571H0.15005C0.0671848 4.28571 0 4.35767 0 4.44643V4.98214C0 5.0709 0.0671848 5.14286 0.15005 5.14286H0.800265V5.83929C0.800265 5.92804 0.86745 6 0.950315 6H1.68256C1.76542 6 1.83261 5.92804 1.83261 5.83929V5.14286H3.85128C3.93414 5.14286 4.00133 5.0709 4.00133 4.98214V4.44643C4.00133 4.35767 3.93414 4.28571 3.85128 4.28571H1.83261V3.85714H2.99299ZM1.83261 0.920732H2.81693C3.40113 0.920732 3.75324 1.3106 3.75324 1.91613C3.75324 2.52995 3.40113 2.92811 2.80093 2.92811H1.83261V0.920732Z" fill="#3D4856" fill-opacity="0.6"/>
</svg>
