<svg width="13" height="14" viewBox="0 0 13 14" fill="none" xmlns="http://www.w3.org/2000/svg">
<path d="M13 7C13 7.60783 12.909 8.19292 12.7489 8.75H11.5074C11.7053 8.20167 11.8182 7.61425 11.8182 7C11.8182 4.1055 9.43268 1.75 6.5 1.75C5.49191 1.75 4.55236 2.03233 3.74991 2.5165L4.84723 4.08333H0.714409L1.98605 0L3.07923 1.55925C4.07373 0.947333 5.24077 0.583333 6.5 0.583333C10.0892 0.583333 13 3.45625 13 7ZM9.24536 11.487C8.4435 11.9688 7.50573 12.25 6.5 12.25C3.56732 12.25 1.18182 9.8945 1.18182 7C1.18182 6.38575 1.29468 5.79833 1.49205 5.25H0.251136C0.091 5.80708 0 6.39217 0 7C0 10.5438 2.91023 13.4167 6.5 13.4167C7.75686 13.4167 8.92214 13.0544 9.91545 12.4443L11.0104 14L12.282 9.92308H8.14923L9.24536 11.487V11.487ZM9.45455 5.48858L8.61486 4.66667L5.59827 7.69008L4.37036 6.41667L3.54545 7.25375L5.61364 9.33333L9.45455 5.48858V5.48858Z" fill="#ee7203"/>
</svg>
