<svg width="30" height="30" viewBox="0 0 30 30" fill="none" xmlns="http://www.w3.org/2000/svg">
<path d="M15 0C6.71631 0 0 6.59657 0 14.7273C0 22.8627 6.71631 29.4545 15 29.4545C23.2837 29.4545 30 22.8627 30 14.7273C30 6.59657 23.2837 0 15 0ZM15 6.53226C16.403 6.53226 17.5403 7.64892 17.5403 9.02639C17.5403 10.4039 16.403 11.5205 15 11.5205C13.597 11.5205 12.4597 10.4039 12.4597 9.02639C12.4597 7.64892 13.597 6.53226 15 6.53226ZM18.3871 21.6158C18.3871 22.0094 18.0621 22.3284 17.6613 22.3284H12.3387C11.9379 22.3284 11.6129 22.0094 11.6129 21.6158V20.1906C11.6129 19.7971 11.9379 19.478 12.3387 19.478H13.0645V15.6774H12.3387C11.9379 15.6774 11.6129 15.3583 11.6129 14.9648V13.5396C11.6129 13.146 11.9379 12.827 12.3387 12.827H16.2097C16.6105 12.827 16.9355 13.146 16.9355 13.5396V19.478H17.6613C18.0621 19.478 18.3871 19.7971 18.3871 20.1906V21.6158Z" fill="#3A8993"/>
</svg>
