<svg width="10" height="13" viewBox="0 0 10 13" fill="none" xmlns="http://www.w3.org/2000/svg">
<path d="M4.46892 6.22404L0.220244 1.98215C-0.0734145 1.68896 -0.0734145 1.21487 0.220244 0.924796L0.926273 0.219892C1.21993 -0.0732974 1.69478 -0.0732974 1.98532 0.219892L4.99688 3.22665L8.00843 0.219892C8.30209 -0.0732974 8.77695 -0.0732974 9.06748 0.219892L9.77976 0.921677C10.0734 1.21487 10.0734 1.68896 9.77976 1.97903L5.53108 6.22093C5.23743 6.51724 4.76257 6.51723 4.46892 6.22404ZM5.53108 12.2126L9.77976 7.97071C10.0734 7.67752 10.0734 7.20342 9.77976 6.91335L9.07373 6.20845C8.78007 5.91526 8.30522 5.91526 8.01468 6.20845L5 9.21209L1.98844 6.20533C1.69478 5.91214 1.21993 5.91214 0.929397 6.20533L0.220244 6.91023C-0.0734145 7.20342 -0.0734145 7.67752 0.220244 7.96759L4.46892 12.2095C4.76257 12.5058 5.23743 12.5058 5.53108 12.2126Z" fill="#EE7203"/>
</svg>
