<svg width="7" height="7" viewBox="0 0 7 7" fill="none" xmlns="http://www.w3.org/2000/svg">
<path d="M3.91256 3.4955L6.30099 5.88393C6.46608 6.04902 6.46608 6.31596 6.30099 6.47929L5.90409 6.87619C5.73901 7.04127 5.47207 7.04127 5.30874 6.87619L3.61576 5.18321L1.92278 6.87619C1.7577 7.04127 1.49076 7.04127 1.32743 6.87619L0.927017 6.48104C0.761934 6.31596 0.761934 6.04902 0.927017 5.88569L3.31545 3.49726C3.48053 3.33042 3.74748 3.33042 3.91256 3.4955ZM3.31545 0.123594L0.927017 2.51203C0.761934 2.67711 0.761934 2.94405 0.927017 3.10738L1.32392 3.50428C1.489 3.66936 1.75594 3.66936 1.91927 3.50428L3.614 1.81306L5.30698 3.50604C5.47207 3.67112 5.73901 3.67112 5.90233 3.50604L6.30099 3.10914C6.46608 2.94405 6.46608 2.67711 6.30099 2.51378L3.91256 0.125349C3.74748 -0.0414901 3.48053 -0.0414891 3.31545 0.123594Z" fill="#EE7203"/>
</svg>
