<svg width="24" height="22" viewBox="0 0 24 22" fill="none" xmlns="http://www.w3.org/2000/svg">
<path d="M0.628704 1.27907C-0.209568 1.27907 -0.209568 0 0.628704 0H2.75662C3.85283 0 4.75558 0.767442 4.94903 1.85465L5.07799 2.23837H23.3265C23.7779 2.23837 24.1003 2.62209 23.9713 3.06977L21.0052 14.2616C20.9407 14.5814 20.6827 14.8372 20.3603 14.8372H7.46384C7.01246 14.8372 6.75454 15.093 6.75454 15.5407C6.75454 15.9244 7.01246 16.2442 7.46384 16.2442H19.909C20.7472 16.2442 20.7472 17.5233 19.909 17.5233H7.46384C6.30316 17.5233 5.46489 16.6279 5.46489 15.5407C5.46489 15.0291 5.59385 14.5814 5.85178 14.2616L3.72386 2.11047C3.65938 1.59884 3.208 1.27907 2.75662 1.27907H0.628704ZM5.27144 3.51744L7.07695 13.5581H7.46384H19.8445L22.4882 3.51744H5.27144Z" fill="white"/>
<path d="M7.85052 17.9709C8.94672 17.9709 9.84947 18.8663 9.84947 20.0175C9.84947 21.1047 8.94672 22 7.85052 22C6.75432 22 5.85156 21.1047 5.85156 20.0175C5.85156 18.8663 6.75432 17.9709 7.85052 17.9709ZM7.85052 19.25C7.46362 19.25 7.14121 19.5698 7.14121 20.0175C7.14121 20.4012 7.46362 20.7209 7.85052 20.7209C8.23741 20.7209 8.55982 20.4012 8.55982 20.0175C8.55982 19.5698 8.23741 19.25 7.85052 19.25Z" fill="white"/>
<path d="M17.5888 17.9709C18.685 17.9709 19.5878 18.8663 19.5878 20.0175C19.5878 21.1047 18.685 22 17.5888 22C16.4926 22 15.5898 21.1047 15.5898 20.0175C15.5898 18.8663 16.4926 17.9709 17.5888 17.9709ZM17.5888 19.25C17.2019 19.25 16.8795 19.5698 16.8795 20.0175C16.8795 20.4012 17.2019 20.7209 17.5888 20.7209C17.9757 20.7209 18.2981 20.4012 18.2981 20.0175C18.2981 19.5698 17.9757 19.25 17.5888 19.25Z" fill="white"/>
<path d="M10.6236 9.0175C10.0432 8.37797 10.946 7.48262 11.5263 8.0582L12.945 9.46518L16.2336 6.2675C16.8139 5.62797 17.7811 6.52332 17.1363 7.16285L13.3963 10.8722C13.1384 11.064 12.7515 11.064 12.4936 10.8722L10.6236 9.0175Z" fill="white"/>
</svg>
