<svg width="22" height="25" viewBox="0 0 22 25" fill="none" xmlns="http://www.w3.org/2000/svg">
<path d="M14.3846 4.68768C15.7866 4.68768 16.9231 3.63833 16.9231 2.34384C16.9231 1.04936 15.7866 0 14.3846 0C12.9826 0 11.8462 1.04936 11.8462 2.34384C11.8462 3.63833 12.9826 4.68768 14.3846 4.68768ZM6.01245 15.5021L5.22976 17.1877H1.69231C0.757837 17.1877 0 17.8874 0 18.7502C0 19.6131 0.757837 20.3128 1.69231 20.3128H5.78822C6.80625 20.3128 7.72274 19.7542 8.12096 18.8923L8.58582 17.8903L8.02154 17.5827C7.10558 17.0832 6.43183 16.3439 6.01245 15.5021ZM20.3077 10.9374H17.9792L16.601 8.33724C15.94 7.08963 14.7263 6.17749 13.3338 5.84984L9.57476 4.81757C8.07812 4.48553 6.51962 4.79071 5.29957 5.65452L3.20163 7.13944C2.45966 7.66436 2.31899 8.64487 2.88856 9.32996C3.45813 10.015 4.51952 10.1435 5.26096 9.61903L7.35995 8.13411C7.76558 7.8465 8.28226 7.74347 8.69635 7.83429L9.47375 8.04768L7.49269 12.3149C6.82529 13.7544 7.42341 15.4405 8.88356 16.2365L13.3777 18.6863L11.925 22.9701C11.6457 23.7934 12.1423 24.6699 13.0339 24.9277C13.2026 24.9766 13.3729 25 13.5406 25C14.2603 25 14.9277 24.5718 15.1546 23.9038L16.8279 18.969C17.1404 17.9548 16.675 16.8654 15.6835 16.3131L12.4448 14.5484L14.1006 10.726L15.1726 12.749C15.5957 13.5469 16.4905 14.0621 17.4525 14.0621H20.3077C21.2422 14.0621 22 13.3623 22 12.4995C22 11.6367 21.2422 10.9374 20.3077 10.9374Z" fill="#0A51A5"/>
</svg>
