<svg width="38" height="38" viewBox="0 0 38 38" fill="none" xmlns="http://www.w3.org/2000/svg">
<rect width="38" height="38" rx="5" fill="#3D4856"/>
<rect x="1" y="1" width="36" height="36" rx="4" stroke="#3D4856" stroke-width="2"/>
<path d="M27.1536 21.5H15.4482L15.7095 22.85H26.4276C27.0426 22.85 27.4984 23.4533 27.3621 24.0869L27.1418 25.111C27.8882 25.4938 28.4028 26.3021 28.4028 27.2375C28.4028 28.5538 27.3838 29.6187 26.1338 29.5997C24.9429 29.5816 23.9635 28.5606 23.9314 27.3028C23.9138 26.6157 24.1744 25.9929 24.6024 25.55H16.231C16.6453 25.9788 16.9028 26.5763 16.9028 27.2375C16.9028 28.5796 15.8435 29.6604 14.5601 29.5974C13.4204 29.5415 12.4936 28.5686 12.4337 27.3649C12.3875 26.4354 12.8504 25.6161 13.5538 25.1887L10.7488 10.7H7.95833C7.42905 10.7 7 10.2467 7 9.6875V9.0125C7 8.4533 7.42905 8 7.95833 8H12.0524C12.5076 8 12.9 8.33839 12.9913 8.80958L13.3573 10.7H29.0413C29.6562 10.7 30.1121 11.3033 29.9758 11.9369L28.0881 20.7119C27.989 21.1729 27.6011 21.5 27.1536 21.5ZM23.0932 16.1H21.375V13.5687C21.375 13.2892 21.1605 13.0625 20.8958 13.0625H19.9375C19.6729 13.0625 19.4583 13.2892 19.4583 13.5687V16.1H17.7402C17.3133 16.1 17.0995 16.6453 17.4014 16.9642L20.0779 19.792C20.265 19.9897 20.5684 19.9897 20.7555 19.792L23.432 16.9642C23.7339 16.6453 23.5201 16.1 23.0932 16.1Z" fill="white"/>
</svg>
