<svg width="18" height="17" viewBox="0 0 18 17" fill="none" xmlns="http://www.w3.org/2000/svg">
<path d="M0.471528 0.988372C-0.157176 0.988372 -0.157176 0 0.471528 0H2.06747C2.88962 0 3.56668 0.593023 3.71177 1.43314L3.80849 1.72965H17.4949C17.8334 1.72965 18.0752 2.02616 17.9785 2.37209L15.7539 11.0204C15.7055 11.2674 15.5121 11.4651 15.2702 11.4651H5.59788C5.25935 11.4651 5.0659 11.6628 5.0659 12.0087C5.0659 12.3052 5.25935 12.5523 5.59788 12.5523H14.9317C15.5604 12.5523 15.5604 13.5407 14.9317 13.5407H5.59788C4.72737 13.5407 4.09866 12.8488 4.09866 12.0087C4.09866 11.6134 4.19539 11.2674 4.38884 11.0204L2.7929 1.63081C2.74453 1.23547 2.406 0.988372 2.06747 0.988372H0.471528ZM3.95358 2.71802L5.30771 10.4767H5.59788H14.8834L16.8662 2.71802H3.95358Z" fill="white"/>
<path d="M5.88789 13.8865C6.71004 13.8865 7.3871 14.5783 7.3871 15.4679C7.3871 16.308 6.71004 16.9998 5.88789 16.9998C5.06574 16.9998 4.38867 16.308 4.38867 15.4679C4.38867 14.5783 5.06574 13.8865 5.88789 13.8865ZM5.88789 14.8748C5.59772 14.8748 5.35591 15.1219 5.35591 15.4679C5.35591 15.7644 5.59772 16.0115 5.88789 16.0115C6.17806 16.0115 6.41987 15.7644 6.41987 15.4679C6.41987 15.1219 6.17806 14.8748 5.88789 14.8748Z" fill="white"/>
<path d="M13.1906 13.8865C14.0128 13.8865 14.6898 14.5783 14.6898 15.4679C14.6898 16.308 14.0128 16.9998 13.1906 16.9998C12.3685 16.9998 11.6914 16.308 11.6914 15.4679C11.6914 14.5783 12.3685 13.8865 13.1906 13.8865ZM13.1906 14.8748C12.9005 14.8748 12.6586 15.1219 12.6586 15.4679C12.6586 15.7644 12.9005 16.0115 13.1906 16.0115C13.4808 16.0115 13.7226 15.7644 13.7226 15.4679C13.7226 15.1219 13.4808 14.8748 13.1906 14.8748Z" fill="white"/>
<path d="M10.2279 3.57886C9.93501 3.57886 9.69759 3.8385 9.69759 4.15878V6.13051H7.89456C7.60169 6.13051 7.36426 6.39014 7.36426 6.71043C7.36426 7.03072 7.60169 7.29035 7.89456 7.29035H9.69759V9.26209C9.69759 9.58237 9.93501 9.84202 10.2279 9.84202C10.5208 9.84202 10.7582 9.58237 10.7582 9.26209V7.29035H12.5612C12.8541 7.29035 13.0915 7.03072 13.0915 6.71043C13.0915 6.39014 12.8541 6.13051 12.5612 6.13051H10.7582V4.15878C10.7582 3.8385 10.5208 3.57886 10.2279 3.57886V3.57886Z" fill="white"/>
</svg>
