<svg width="14" height="17" viewBox="0 0 14 17" fill="none" xmlns="http://www.w3.org/2000/svg">
<path d="M9.15385 3.18762C10.046 3.18762 10.7692 2.47406 10.7692 1.59381C10.7692 0.713563 10.046 0 9.15385 0C8.26168 0 7.53846 0.713563 7.53846 1.59381C7.53846 2.47406 8.26168 3.18762 9.15385 3.18762ZM3.82611 10.5414L3.32803 11.6876H1.07692C0.48226 11.6876 0 12.1634 0 12.7502C0 13.3369 0.48226 13.8127 1.07692 13.8127H3.68341C4.33125 13.8127 4.91447 13.4328 5.16788 12.8468L5.4637 12.1654L5.10461 11.9562C4.52173 11.6166 4.09298 11.1139 3.82611 10.5414ZM12.9231 7.43746H11.4413L10.5643 5.66932C10.1436 4.82095 9.37125 4.20069 8.48514 3.97789L6.09303 3.27595C5.14062 3.05016 4.14885 3.25769 3.37245 3.84507L2.0374 4.85482C1.56524 5.21177 1.47572 5.87851 1.83817 6.34437C2.20062 6.81023 2.87606 6.89755 3.34788 6.54094L4.68361 5.53119C4.94173 5.33562 5.27053 5.26556 5.53404 5.32732L6.02875 5.47242L4.76808 8.37416C4.34337 9.35302 4.72399 10.4996 5.65317 11.0408L8.51308 12.7067L7.58861 15.6197C7.41091 16.1795 7.72692 16.7755 8.29433 16.9509C8.40168 16.9841 8.51005 17 8.61673 17C9.07476 17 9.49947 16.7088 9.64385 16.2546L10.7087 12.8989C10.9075 12.2093 10.6114 11.4685 9.98038 11.0929L7.91942 9.89293L8.97312 7.29368L9.65529 8.66934C9.92452 9.2119 10.4939 9.56221 11.1061 9.56221H12.9231C13.5177 9.56221 14 9.08639 14 8.49967C14 7.91295 13.5177 7.43746 12.9231 7.43746Z" fill="#0A51A5"/>
</svg>
