<svg width="6" height="6" viewBox="0 0 6 6" fill="none" xmlns="http://www.w3.org/2000/svg">
<path d="M0.106118 5.89994C0.139321 5.93166 0.17875 5.95682 0.22215 5.97399C0.26555 5.99116 0.312071 6 0.359052 6C0.406034 6 0.452554 5.99116 0.495955 5.97399C0.539355 5.95682 0.578783 5.93166 0.611986 5.89994L3.39515 3.24134C3.42839 3.20966 3.45476 3.17203 3.47275 3.13061C3.49074 3.08919 3.5 3.0448 3.5 2.99996C3.5 2.95513 3.49074 2.91073 3.47275 2.86931C3.45476 2.82789 3.42839 2.79027 3.39515 2.75858L0.611986 0.0999827C0.544904 0.035965 0.453921 0 0.359052 0C0.264184 0 0.173201 0.035965 0.106118 0.0999827C0.0390363 0.164001 0.00134993 0.250828 0.00134993 0.341364C0.00134993 0.431899 0.0390363 0.518726 0.106118 0.582745L2.63635 2.99996L0.106118 5.41462C0.0724752 5.44635 0.0457647 5.48414 0.027535 5.52579C0.009305 5.56745 -8.13007e-05 5.61214 -8.13007e-05 5.65728C-8.13007e-05 5.70242 0.009305 5.74711 0.027535 5.78877C0.0457647 5.83042 0.0724752 5.86821 0.106118 5.89994Z" fill="#F67B1E"/>
<path d="M2.60612 5.89994C2.63932 5.93166 2.67875 5.95682 2.72215 5.97399C2.76555 5.99116 2.81207 6 2.85905 6C2.90603 6 2.95255 5.99116 2.99595 5.97399C3.03936 5.95682 3.07878 5.93166 3.11199 5.89994L5.89515 3.24134C5.92839 3.20966 5.95476 3.17203 5.97275 3.13061C5.99074 3.08919 6 3.0448 6 2.99996C6 2.95513 5.99074 2.91073 5.97275 2.86931C5.95476 2.82789 5.92839 2.79027 5.89515 2.75858L3.11199 0.0999827C3.0449 0.035965 2.95392 0 2.85905 0C2.76418 0 2.6732 0.035965 2.60612 0.0999827C2.53904 0.164001 2.50135 0.250828 2.50135 0.341364C2.50135 0.431899 2.53904 0.518726 2.60612 0.582745L5.13635 2.99996L2.60612 5.41462C2.57248 5.44635 2.54576 5.48414 2.52753 5.52579C2.50931 5.56745 2.49992 5.61214 2.49992 5.65728C2.49992 5.70242 2.50931 5.74711 2.52753 5.78877C2.54576 5.83042 2.57248 5.86821 2.60612 5.89994Z" fill="#F67B1E"/>
</svg>
