<svg width="19" height="20" viewBox="0 0 19 20" fill="none" xmlns="http://www.w3.org/2000/svg">
<path fill-rule="evenodd" clip-rule="evenodd" d="M5.70463 14.5L2.41574 5.10846H1.9459C1.75843 5.10846 1.00621 5.10846 1.00621 5.10846C1.00621 5.10846 0.0665283 5.10846 0.0665283 4.10846C0.0665283 3.60846 0.616479 3.10845 1.00621 3.10845H4.14241L7.99676 14.3772C8.58946 14.4529 9.11733 14.7522 9.50425 15.1932L17.4385 12.1204L18.035 14L9.93321 17C9.95576 17.1425 9.93321 17.3507 9.93321 17.5C9.93321 18.949 8.47506 20 7.11416 20C5.75256 20 4.29511 19 4.29511 17C4.29511 15.9777 4.90261 14.9335 5.70463 14.5ZM7.11416 16C7.62441 16 7.99676 16.457 7.99676 17C7.99676 17.543 7.62441 18 7.11416 18C6.60321 18 6.17448 17.543 6.17448 17C6.17448 16.457 6.60321 16 7.11416 16ZM17.0847 11.1154L9.03769 14.2324L7.10946 8.59395L15.1564 5.47695L17.0847 11.1154ZM10.9462 8.7042L8.91647 9.4902L9.88059 12.3094L15.2784 10.2192L14.3143 7.39995L12.2704 8.1912L12.7525 9.60045L11.4282 10.1142L10.9462 8.7042ZM12.8293 5.58045L6.86843 7.88894L4.76495 2.2487L11.0223 0L12.8293 5.58045ZM10.1009 2.2487L6.90769 3.41956L7.84737 5.91956L10.9462 4.71132L10.1009 2.2487Z" fill="#EE7203"/>
</svg>
