<svg width="12" height="11" viewBox="0 0 12 11" fill="none" xmlns="http://www.w3.org/2000/svg">
<path d="M10.5149 6.875H4.40775L4.54411 7.5625H10.1361C10.457 7.5625 10.6948 7.86975 10.6237 8.1924L10.5088 8.71395C10.8982 8.90888 11.1667 9.32052 11.1667 9.79687C11.1667 10.4672 10.635 11.0095 9.98284 10.9999C9.36152 10.9907 8.85054 10.4707 8.83377 9.83011C8.82461 9.48019 8.96054 9.16304 9.18384 8.93748H4.81617C5.03236 9.15589 5.16667 9.46013 5.16667 9.79687C5.16667 10.4804 4.614 11.0307 3.94438 10.9987C3.34979 10.9702 2.86623 10.4748 2.83498 9.86178C2.81085 9.38839 3.0524 8.97114 3.41938 8.75348L1.9559 1.375H0.5C0.223854 1.375 0 1.14415 0 0.859375V0.515625C0 0.23085 0.223854 0 0.5 0H2.63602C2.87354 0 3.07827 0.172326 3.12588 0.412285L3.31683 1.375H11.4998C11.8206 1.375 12.0585 1.68225 11.9874 2.0049L11.0025 6.47365C10.9508 6.70841 10.7484 6.875 10.5149 6.875ZM8.39644 4.125H7.5V2.83594C7.5 2.69356 7.38806 2.57812 7.25 2.57812H6.75C6.61194 2.57812 6.5 2.69356 6.5 2.83594V4.125H5.60356C5.38084 4.125 5.26929 4.40271 5.42679 4.56511L6.82323 6.00518C6.92086 6.10586 7.07915 6.10586 7.17679 6.00518L8.57323 4.56511C8.73071 4.40271 8.61917 4.125 8.39644 4.125Z" fill="#3D4856"/>
</svg>
