<svg width="30" height="30" viewBox="0 0 30 30" fill="none" xmlns="http://www.w3.org/2000/svg">
<circle cx="15" cy="15" r="14" transform="rotate(-180 15 15)" fill="white" stroke="#0A51A5" stroke-width="2"/>
<path d="M11.5449 15.4573L17.6849 10.4649C18.105 10.1167 18.105 9.59774 17.6849 9.25617C17.2649 8.91461 16.6266 8.91461 16.1984 9.25617L9.31508 14.8529C9.10501 15.0237 9 15.1945 9 15.4573C9 15.7135 9.10501 15.8908 9.31508 16.0617L16.3034 21.7438C16.5135 21.9146 16.7235 22 17.0467 22C17.2568 22 17.5799 21.9146 17.6849 21.6584C18.105 21.3169 18.105 20.7979 17.6849 20.4498L11.5449 15.4573Z" fill="#0A51A5"/>
</svg>
