<svg width="45" height="62" viewBox="0 0 45 62" fill="none" xmlns="http://www.w3.org/2000/svg">
<path d="M43.3477 12.1272L33.5156 2.1184C32.4609 1.04474 31.0313 0.43634 29.543 0.43634H5.625C2.51953 0.44827 0 3.01311 0 6.17442V55.8011C0 58.9624 2.51953 61.5273 5.625 61.5273H39.375C42.4805 61.5273 45 58.9624 45 55.8011V16.1833C45 14.6682 44.4023 13.2009 43.3477 12.1272ZM38.918 15.718H30V6.63967L38.918 15.718ZM5.625 55.8011V6.17442H24.375V18.5811C24.375 20.1677 25.6289 21.4442 27.1875 21.4442H39.375V55.8011H5.625ZM34.9453 38.6584C33.5156 37.2269 29.4375 37.6206 27.3984 37.883C25.3828 36.6304 24.0352 34.9006 23.0859 32.3597C23.543 30.439 24.2695 27.5163 23.7187 25.6791C23.2266 22.5536 19.2891 22.8638 18.7266 24.9753C18.2109 26.8959 18.6797 29.5682 19.5469 32.98C18.375 35.8311 16.6289 39.6605 15.3984 41.8555C13.0547 43.0843 9.89063 44.9811 9.42188 47.3669C9.03516 49.2518 12.4688 53.952 18.3398 43.645C20.9648 42.7622 23.8242 41.6766 26.3555 41.2471C28.5703 42.4639 31.1602 43.2751 32.8945 43.2751C35.8828 43.2751 36.1758 39.911 34.9453 38.6584ZM11.7305 47.9396C12.3281 46.3052 14.6016 44.4204 15.293 43.7642C13.0664 47.3789 11.7305 48.0231 11.7305 47.9396ZM21.293 25.202C22.1602 25.202 22.0781 29.0313 21.5039 30.0692C20.9883 28.411 21 25.202 21.293 25.202V25.202ZM18.4336 41.4976C19.5703 39.4816 20.543 37.0837 21.3281 34.9722C22.3008 36.7736 23.543 38.217 24.8555 39.2072C22.418 39.7201 20.2969 40.7699 18.4336 41.4976V41.4976ZM33.8555 40.9012C33.8555 40.9012 33.2695 41.6169 29.4844 39.9707C33.5977 39.6605 34.2773 40.6149 33.8555 40.9012Z" fill="#004C56"/>
</svg>
