<svg width="11" height="13" viewBox="0 0 11 13" fill="none" xmlns="http://www.w3.org/2000/svg">
<path d="M6.78223 8.35714C9.1941 8.35714 10.8806 6.6318 10.8806 4.15161C10.8806 1.67143 9.1941 0 6.78223 0H2.15345C1.96567 0 1.81343 0.155913 1.81343 0.348214V6.34423H0.340018C0.152243 6.34423 0 6.50014 0 6.69245V8.00893C0 8.20123 0.152243 8.35714 0.340018 8.35714H1.81343V9.28571H0.340018C0.152243 9.28571 0 9.44163 0 9.63393V10.7946C0 10.9869 0.152243 11.1429 0.340018 11.1429H1.81343V12.6518C1.81343 12.8441 1.96567 13 2.15345 13H3.81274C4.00051 13 4.15276 12.8441 4.15276 12.6518V11.1429H8.72714C8.91492 11.1429 9.06716 10.9869 9.06716 10.7946V9.63393C9.06716 9.44163 8.91492 9.28571 8.72714 9.28571H4.15276V8.35714H6.78223ZM4.15276 1.99492H6.38328C7.70708 1.99492 8.50499 2.83963 8.50499 4.15161C8.50499 5.48156 7.70708 6.34423 6.34701 6.34423H4.15276V1.99492Z" fill="#EE7203"/>
</svg>
