<svg width="8" height="7" viewBox="0 0 8 7" fill="none" xmlns="http://www.w3.org/2000/svg">
<path d="M3.75001 1H4.75001C4.81632 1 4.87991 0.973661 4.92679 0.926777C4.97367 0.879893 5.00001 0.816304 5.00001 0.75V0.25C5.00001 0.183696 4.97367 0.120107 4.92679 0.0732233C4.87991 0.0263392 4.81632 0 4.75001 0H3.75001C3.68371 0 3.62012 0.0263392 3.57324 0.0732233C3.52635 0.120107 3.50001 0.183696 3.50001 0.25V0.75C3.50001 0.816304 3.52635 0.879893 3.57324 0.926777C3.62012 0.973661 3.68371 1 3.75001 1ZM3.75001 3H5.75001C5.81632 3 5.87991 2.97366 5.92679 2.92678C5.97367 2.87989 6.00001 2.8163 6.00001 2.75V2.25C6.00001 2.1837 5.97367 2.12011 5.92679 2.07322C5.87991 2.02634 5.81632 2 5.75001 2H3.75001C3.68371 2 3.62012 2.02634 3.57324 2.07322C3.52635 2.12011 3.50001 2.1837 3.50001 2.25V2.75C3.50001 2.8163 3.52635 2.87989 3.57324 2.92678C3.62012 2.97366 3.68371 3 3.75001 3ZM7.75001 6H3.75001C3.68371 6 3.62012 6.02634 3.57324 6.07322C3.52635 6.12011 3.50001 6.1837 3.50001 6.25V6.75C3.50001 6.8163 3.52635 6.87989 3.57324 6.92678C3.62012 6.97366 3.68371 7 3.75001 7H7.75001C7.81632 7 7.87991 6.97366 7.92679 6.92678C7.97367 6.87989 8.00001 6.8163 8.00001 6.75V6.25C8.00001 6.1837 7.97367 6.12011 7.92679 6.07322C7.87991 6.02634 7.81632 6 7.75001 6ZM3.75001 5H6.75001C6.81632 5 6.87991 4.97366 6.92679 4.92678C6.97367 4.87989 7.00001 4.8163 7.00001 4.75V4.25C7.00001 4.1837 6.97367 4.12011 6.92679 4.07322C6.87991 4.02634 6.81632 4 6.75001 4H3.75001C3.68371 4 3.62012 4.02634 3.57324 4.07322C3.52635 4.12011 3.50001 4.1837 3.50001 4.25V4.75C3.50001 4.8163 3.52635 4.87989 3.57324 4.92678C3.62012 4.97366 3.68371 5 3.75001 5ZM2.75001 5H2.00001V0.25C2.00001 0.183696 1.97367 0.120107 1.92679 0.0732233C1.8799 0.0263392 1.81632 0 1.75001 0H1.25001C1.18371 0 1.12012 0.0263392 1.07324 0.0732233C1.02635 0.120107 1.00001 0.183696 1.00001 0.25V5H0.250012C0.0282933 5 -0.0838942 5.26937 0.0736058 5.42672L1.32361 6.92672C1.37049 6.97357 1.43405 6.99988 1.50032 6.99988C1.5666 6.99988 1.63016 6.97357 1.67704 6.92672L2.92704 5.42672C3.08361 5.26969 2.9722 5 2.75001 5Z" fill="#EE7203"/>
</svg>
