<svg width="7" height="7" viewBox="0 0 7 7" fill="none" xmlns="http://www.w3.org/2000/svg">
<path d="M2.02344 3.9375H1.47656C1.38633 3.9375 1.3125 3.86367 1.3125 3.77344V3.22656C1.3125 3.13633 1.38633 3.0625 1.47656 3.0625H2.02344C2.11367 3.0625 2.1875 3.13633 2.1875 3.22656V3.77344C2.1875 3.86367 2.11367 3.9375 2.02344 3.9375ZM3.5 3.77344V3.22656C3.5 3.13633 3.42617 3.0625 3.33594 3.0625H2.78906C2.69883 3.0625 2.625 3.13633 2.625 3.22656V3.77344C2.625 3.86367 2.69883 3.9375 2.78906 3.9375H3.33594C3.42617 3.9375 3.5 3.86367 3.5 3.77344ZM4.8125 3.77344V3.22656C4.8125 3.13633 4.73867 3.0625 4.64844 3.0625H4.10156C4.01133 3.0625 3.9375 3.13633 3.9375 3.22656V3.77344C3.9375 3.86367 4.01133 3.9375 4.10156 3.9375H4.64844C4.73867 3.9375 4.8125 3.86367 4.8125 3.77344ZM3.5 5.08594V4.53906C3.5 4.44883 3.42617 4.375 3.33594 4.375H2.78906C2.69883 4.375 2.625 4.44883 2.625 4.53906V5.08594C2.625 5.17617 2.69883 5.25 2.78906 5.25H3.33594C3.42617 5.25 3.5 5.17617 3.5 5.08594ZM2.1875 5.08594V4.53906C2.1875 4.44883 2.11367 4.375 2.02344 4.375H1.47656C1.38633 4.375 1.3125 4.44883 1.3125 4.53906V5.08594C1.3125 5.17617 1.38633 5.25 1.47656 5.25H2.02344C2.11367 5.25 2.1875 5.17617 2.1875 5.08594ZM4.8125 5.08594V4.53906C4.8125 4.44883 4.73867 4.375 4.64844 4.375H4.10156C4.01133 4.375 3.9375 4.44883 3.9375 4.53906V5.08594C3.9375 5.17617 4.01133 5.25 4.10156 5.25H4.64844C4.73867 5.25 4.8125 5.17617 4.8125 5.08594ZM6.125 1.53125V6.34375C6.125 6.70605 5.83105 7 5.46875 7H0.65625C0.293945 7 0 6.70605 0 6.34375V1.53125C0 1.16895 0.293945 0.875 0.65625 0.875H1.3125V0.164062C1.3125 0.0738281 1.38633 0 1.47656 0H2.02344C2.11367 0 2.1875 0.0738281 2.1875 0.164062V0.875H3.9375V0.164062C3.9375 0.0738281 4.01133 0 4.10156 0H4.64844C4.73867 0 4.8125 0.0738281 4.8125 0.164062V0.875H5.46875C5.83105 0.875 6.125 1.16895 6.125 1.53125ZM5.46875 6.26172V2.1875H0.65625V6.26172C0.65625 6.30684 0.693164 6.34375 0.738281 6.34375H5.38672C5.43184 6.34375 5.46875 6.30684 5.46875 6.26172Z" fill="#EE7203"/>
</svg>
