<svg width="30" height="26" viewBox="0 0 30 26" fill="none" xmlns="http://www.w3.org/2000/svg">
<path d="M26.8645 1.89359C23.4652 -0.945874 18.2491 -0.540238 15.0257 2.76281C11.7436 -0.540238 6.52751 -0.945874 3.12825 1.89359C-1.26736 5.54432 -0.622667 11.513 2.54216 14.7002L12.7986 25.0728C13.3846 25.6523 14.1466 26 15.0257 26C15.8461 26 16.6081 25.6523 17.1942 25.0728L27.5092 14.7002C30.6154 11.513 31.2601 5.54432 26.8645 1.89359ZM25.4579 12.7299L15.2014 23.1026C15.0843 23.2185 14.967 23.2185 14.7913 23.1026L4.53484 12.7299C2.36634 10.5858 1.95608 6.52944 4.94509 4.03766C7.2308 2.12537 10.7473 2.41512 12.9744 4.61715L15.0257 6.70328L17.0769 4.61715C19.2454 2.41512 22.7619 2.12537 25.0476 3.97971C28.0366 6.52944 27.6264 10.5858 25.4579 12.7299Z" fill="#0A51A5"/>
</svg>
