<svg width="32" height="30" viewBox="0 0 32 30" fill="none" xmlns="http://www.w3.org/2000/svg">
<path fill-rule="evenodd" clip-rule="evenodd" d="M10.6657 18.8553H10.6671L10.6705 18.8551H26.6055C26.9978 18.8551 27.3427 18.5908 27.4505 18.2076L30.9662 5.70905C31.0419 5.43959 30.9888 5.14991 30.8229 4.92626C30.6567 4.70261 30.3969 4.57102 30.1211 4.57102H8.63871L8.01043 1.69909C7.92094 1.29061 7.56434 1 7.15235 1H1.87891C1.39345 1 1 1.39965 1 1.89275C1 2.38586 1.39345 2.78551 1.87891 2.78551H6.4474L9.62062 17.2904C8.68655 17.7029 8.03126 18.6489 8.03126 19.7478C8.03126 21.2246 9.21412 22.4261 10.668 22.4261H26.6055C27.091 22.4261 27.4844 22.0265 27.4844 21.5334C27.4844 21.0403 27.091 20.6406 26.6055 20.6406H10.668C10.1834 20.6406 9.78908 20.24 9.78908 19.7478C9.78908 19.2564 10.1821 18.8565 10.6657 18.8553ZM28.9559 6.35653L25.9424 17.0696H11.3729L9.02919 6.35653H28.9559ZM9.7896 26.3217C9.7896 27.7985 10.9725 29 12.4263 29C13.8802 29 15.063 27.7985 15.063 26.3217C15.063 24.8449 13.8802 23.6434 12.4263 23.6434C10.9725 23.6434 9.7896 24.8449 9.7896 26.3217ZM12.4005 26.5652C12.6242 26.5652 12.8341 26.4084 12.9954 26.2881C13.1834 26.1476 13.3052 26.0567 13.3052 26.3217C13.3052 26.6783 13.0846 26.646 12.7787 26.6011C12.6625 26.5841 12.534 26.5652 12.4005 26.5652ZM12.4005 26.5652C12.2647 26.5652 12.1379 26.5848 12.0258 26.602C11.7383 26.6464 11.5474 26.6759 11.5474 26.3217C11.5474 26.0614 11.6505 26.1445 11.8193 26.2806C11.9697 26.4019 12.1722 26.5652 12.4005 26.5652ZM24.8478 29C23.394 29 22.2111 27.7985 22.2111 26.3217C22.2111 24.8449 23.394 23.6434 24.8478 23.6434C26.3017 23.6434 27.4846 24.8449 27.4846 26.3217C27.4846 27.7985 26.3017 29 24.8478 29ZM25.4098 26.2462C25.2573 26.3423 25.0614 26.4658 24.8478 26.4658C24.6343 26.4658 24.4383 26.3423 24.2859 26.2462C24.0923 26.1242 23.9689 26.0464 23.9689 26.3217C23.9689 26.8139 24.3633 26.8176 24.8478 26.8176C25.3324 26.8176 25.7268 26.8139 25.7268 26.3217C25.7268 26.0464 25.6034 26.1242 25.4098 26.2462Z" fill="#0A51A5"/>
<path d="M10.6671 18.8553V19.1053H10.6755L10.684 19.1048L10.6671 18.8553ZM10.6657 18.8553V18.6053H10.6651L10.6657 18.8553ZM10.6705 18.8551V18.6051H10.662L10.6536 18.6057L10.6705 18.8551ZM27.4505 18.2076L27.6912 18.2753L27.6912 18.2753L27.4505 18.2076ZM30.9662 5.70905L31.2068 5.77674L31.2068 5.77672L30.9662 5.70905ZM30.8229 4.92626L31.0237 4.7773L31.0236 4.77717L30.8229 4.92626ZM8.63871 4.57102L8.39449 4.62445L8.43749 4.82102H8.63871V4.57102ZM8.01043 1.69909L8.25466 1.64566L8.25464 1.64559L8.01043 1.69909ZM6.4474 2.78551L6.69162 2.73208L6.64862 2.53551H6.4474V2.78551ZM9.62062 17.2904L9.7216 17.5191L9.90851 17.4366L9.86484 17.237L9.62062 17.2904ZM25.9424 17.0696V17.3196H26.1318L26.1831 17.1373L25.9424 17.0696ZM28.9559 6.35653L29.1966 6.42422L29.2859 6.10653H28.9559V6.35653ZM11.3729 17.0696L11.1287 17.123L11.1717 17.3196H11.3729V17.0696ZM9.02919 6.35653V6.10653H8.71858L8.78496 6.40996L9.02919 6.35653ZM12.9954 26.2881L13.145 26.4884H13.145L12.9954 26.2881ZM12.7787 26.6011L12.815 26.3538H12.815L12.7787 26.6011ZM12.0258 26.602L12.0639 26.8491L12.0639 26.8491L12.0258 26.602ZM11.8193 26.2806L11.6624 26.4752L11.8193 26.2806ZM25.4098 26.2462L25.5431 26.4577L25.5431 26.4576L25.4098 26.2462ZM24.2859 26.2462L24.1526 26.4576L24.1526 26.4577L24.2859 26.2462ZM10.6671 18.6053H10.6657V19.1053H10.6671V18.6053ZM10.6536 18.6057L10.6502 18.6059L10.684 19.1048L10.6874 19.1045L10.6536 18.6057ZM26.6055 18.6051H10.6705V19.1051H26.6055V18.6051ZM27.2099 18.1399C27.1318 18.4175 26.8835 18.6051 26.6055 18.6051V19.1051C27.1121 19.1051 27.5537 18.764 27.6912 18.2753L27.2099 18.1399ZM30.7255 5.64136L27.2099 18.1399L27.6912 18.2753L31.2068 5.77674L30.7255 5.64136ZM30.6221 5.07522C30.7417 5.23643 30.7804 5.44606 30.7255 5.64138L31.2068 5.77672C31.3034 5.43313 31.2359 5.0634 31.0237 4.7773L30.6221 5.07522ZM30.1211 4.82102C30.3168 4.82102 30.5026 4.91435 30.6222 5.07536L31.0236 4.77717C30.8109 4.49086 30.4771 4.32102 30.1211 4.32102V4.82102ZM8.63871 4.82102H30.1211V4.32102H8.63871V4.82102ZM7.76621 1.75252L8.39449 4.62445L8.88294 4.51759L8.25466 1.64566L7.76621 1.75252ZM7.15235 1.25C7.44427 1.25 7.70131 1.45627 7.76623 1.75259L8.25464 1.64559C8.14058 1.12495 7.68441 0.75 7.15235 0.75V1.25ZM1.87891 1.25H7.15235V0.75H1.87891V1.25ZM1.25 1.89275C1.25 1.53402 1.53519 1.25 1.87891 1.25V0.75C1.25171 0.75 0.75 1.26527 0.75 1.89275H1.25ZM1.87891 2.53551C1.53519 2.53551 1.25 2.25149 1.25 1.89275H0.75C0.75 2.52023 1.25171 3.03551 1.87891 3.03551V2.53551ZM6.4474 2.53551H1.87891V3.03551H6.4474V2.53551ZM9.86484 17.237L6.69162 2.73208L6.20317 2.83894L9.3764 17.3439L9.86484 17.237ZM8.28126 19.7478C8.28126 18.7501 8.87608 17.8925 9.7216 17.5191L9.51964 17.0618C8.49702 17.5133 7.78126 18.5477 7.78126 19.7478H8.28126ZM10.668 22.1761C9.35587 22.1761 8.28126 21.0902 8.28126 19.7478H7.78126C7.78126 21.359 9.07238 22.6761 10.668 22.6761V22.1761ZM26.6055 22.1761H10.668V22.6761H26.6055V22.1761ZM27.2344 21.5334C27.2344 21.8921 26.9492 22.1761 26.6055 22.1761V22.6761C27.2327 22.6761 27.7344 22.1608 27.7344 21.5334H27.2344ZM26.6055 20.8906C26.9492 20.8906 27.2344 21.1746 27.2344 21.5334H27.7344C27.7344 20.9059 27.2327 20.3906 26.6055 20.3906V20.8906ZM10.668 20.8906H26.6055V20.3906H10.668V20.8906ZM9.53908 19.7478C9.53908 20.3744 10.0417 20.8906 10.668 20.8906V20.3906C10.3252 20.3906 10.0391 20.1057 10.0391 19.7478H9.53908ZM10.6651 18.6053C10.04 18.6068 9.53908 19.1222 9.53908 19.7478H10.0391C10.0391 19.3906 10.3241 19.1061 10.6663 19.1053L10.6651 18.6053ZM26.1831 17.1373L29.1966 6.42422L28.7152 6.28883L25.7018 17.0019L26.1831 17.1373ZM11.3729 17.3196H25.9424V16.8196H11.3729V17.3196ZM8.78496 6.40996L11.1287 17.123L11.6172 17.0162L9.27341 6.3031L8.78496 6.40996ZM28.9559 6.10653H9.02919V6.60653H28.9559V6.10653ZM12.4263 28.75C11.1142 28.75 10.0396 27.6641 10.0396 26.3217H9.5396C9.5396 27.9328 10.8307 29.25 12.4263 29.25V28.75ZM14.813 26.3217C14.813 27.6641 13.7384 28.75 12.4263 28.75V29.25C14.0219 29.25 15.313 27.9328 15.313 26.3217H14.813ZM12.4263 23.8934C13.7384 23.8934 14.813 24.9793 14.813 26.3217H15.313C15.313 24.7106 14.0219 23.3934 12.4263 23.3934V23.8934ZM10.0396 26.3217C10.0396 24.9793 11.1142 23.8934 12.4263 23.8934V23.3934C10.8307 23.3934 9.5396 24.7106 9.5396 26.3217H10.0396ZM12.8458 26.0877C12.7631 26.1495 12.6846 26.2076 12.6027 26.2517C12.5211 26.2957 12.4548 26.3152 12.4005 26.3152V26.8152C12.5699 26.8152 12.7205 26.7563 12.84 26.6918C12.9594 26.6275 13.0665 26.547 13.145 26.4884L12.8458 26.0877ZM13.5552 26.3217C13.5552 26.2483 13.5489 26.1506 13.5032 26.066C13.4768 26.0172 13.4336 25.966 13.3672 25.9333C13.3017 25.9011 13.2372 25.8985 13.1879 25.905C13.1022 25.9164 13.0292 25.9602 12.9888 25.986C12.9415 26.0161 12.8905 26.0544 12.8458 26.0877L13.145 26.4884C13.1943 26.4515 13.2291 26.4257 13.2575 26.4076C13.271 26.399 13.2783 26.3953 13.2808 26.3941C13.2842 26.3925 13.274 26.398 13.2537 26.4007C13.2314 26.4036 13.1909 26.4038 13.1463 26.3819C13.1009 26.3595 13.0754 26.326 13.0634 26.3038C13.0528 26.2843 13.0519 26.2724 13.0529 26.2788C13.0538 26.2839 13.0552 26.2972 13.0552 26.3217H13.5552ZM12.7425 26.8485C12.816 26.8593 12.8986 26.8716 12.9753 26.8761C13.0506 26.8806 13.144 26.8795 13.2352 26.8493C13.3361 26.8159 13.4265 26.7493 13.4852 26.6424C13.5388 26.5446 13.5552 26.4326 13.5552 26.3217H13.0552C13.0552 26.3892 13.0441 26.4068 13.0468 26.4019C13.0545 26.3878 13.0706 26.3771 13.0782 26.3746C13.0785 26.3745 13.0734 26.3762 13.0602 26.3772C13.0471 26.3783 13.0291 26.3784 13.0048 26.377C12.9541 26.374 12.8944 26.3654 12.815 26.3538L12.7425 26.8485ZM12.4005 26.8152C12.513 26.8152 12.624 26.8311 12.7425 26.8485L12.815 26.3538C12.701 26.337 12.555 26.3152 12.4005 26.3152V26.8152ZM12.0639 26.8491C12.1778 26.8316 12.2865 26.8152 12.4005 26.8152V26.3152C12.2428 26.3152 12.098 26.338 11.9877 26.355L12.0639 26.8491ZM11.2974 26.3217C11.2974 26.4283 11.311 26.5355 11.3566 26.6299C11.4071 26.7345 11.4893 26.8073 11.591 26.8454C11.6814 26.8793 11.7735 26.8805 11.8446 26.8763C11.917 26.872 11.9954 26.8597 12.0639 26.8491L11.9877 26.355C11.9125 26.3666 11.8592 26.3746 11.8149 26.3772C11.7693 26.3799 11.7598 26.3747 11.7665 26.3772C11.7722 26.3793 11.7817 26.3841 11.7913 26.3929C11.8009 26.4017 11.8055 26.4097 11.8068 26.4124C11.8076 26.4141 11.7974 26.3922 11.7974 26.3217H11.2974ZM11.9762 26.086C11.9365 26.054 11.89 26.0163 11.8468 25.9867C11.8122 25.963 11.7385 25.9142 11.6479 25.9041C11.5934 25.898 11.5251 25.9049 11.4596 25.9445C11.3962 25.9829 11.3596 26.0372 11.3391 26.0817C11.3027 26.1607 11.2974 26.251 11.2974 26.3217H11.7974C11.7974 26.2966 11.7987 26.2818 11.7997 26.2745C11.8009 26.2659 11.8009 26.2744 11.7932 26.291C11.785 26.3088 11.7637 26.3449 11.7183 26.3724C11.6707 26.4011 11.6232 26.4044 11.5922 26.401C11.5778 26.3993 11.567 26.3964 11.5607 26.3943C11.5544 26.3922 11.5506 26.3904 11.5498 26.39C11.5489 26.3896 11.5532 26.3917 11.5644 26.3993C11.588 26.4155 11.6177 26.4392 11.6624 26.4752L11.9762 26.086ZM12.4005 26.3152C12.346 26.3152 12.282 26.2955 12.2047 26.2513C12.1268 26.2068 12.0535 26.1483 11.9762 26.086L11.6624 26.4752C11.7355 26.5342 11.8387 26.618 11.9567 26.6854C12.0754 26.7533 12.2267 26.8152 12.4005 26.8152V26.3152ZM21.9611 26.3217C21.9611 27.9328 23.2522 29.25 24.8478 29.25V28.75C23.5357 28.75 22.4611 27.6641 22.4611 26.3217H21.9611ZM24.8478 23.3934C23.2522 23.3934 21.9611 24.7106 21.9611 26.3217H22.4611C22.4611 24.9793 23.5357 23.8934 24.8478 23.8934V23.3934ZM27.7346 26.3217C27.7346 24.7106 26.4434 23.3934 24.8478 23.3934V23.8934C26.16 23.8934 27.2346 24.9793 27.2346 26.3217H27.7346ZM24.8478 29.25C26.4434 29.25 27.7346 27.9328 27.7346 26.3217H27.2346C27.2346 27.6641 26.16 28.75 24.8478 28.75V29.25ZM24.8478 26.7158C25.1459 26.7158 25.4034 26.5457 25.5431 26.4577L25.2765 26.0347C25.1113 26.1388 24.9768 26.2158 24.8478 26.2158V26.7158ZM24.1526 26.4577C24.2923 26.5457 24.5498 26.7158 24.8478 26.7158V26.2158C24.7189 26.2158 24.5844 26.1388 24.4192 26.0347L24.1526 26.4577ZM24.2189 26.3217C24.2189 26.2958 24.2204 26.2805 24.2216 26.273C24.2229 26.2647 24.2229 26.2722 24.2154 26.2874C24.207 26.3043 24.1882 26.3329 24.1521 26.3558C24.1152 26.3791 24.0786 26.3851 24.0536 26.3849C24.0419 26.3849 24.0331 26.3835 24.028 26.3825C24.0228 26.3815 24.0201 26.3805 24.02 26.3805C24.02 26.3805 24.0216 26.3811 24.0251 26.3826C24.0286 26.3842 24.0334 26.3865 24.0395 26.3896C24.067 26.404 24.1014 26.4254 24.1526 26.4576L24.4192 26.0347C24.3736 26.0059 24.3199 25.9719 24.2699 25.9459C24.2267 25.9234 24.1475 25.8854 24.0561 25.8849C24.0036 25.8847 23.9424 25.8967 23.8843 25.9335C23.8269 25.9699 23.7901 26.0194 23.7671 26.0658C23.726 26.1489 23.7189 26.2439 23.7189 26.3217H24.2189ZM24.8478 26.5676C24.5884 26.5676 24.4234 26.5629 24.318 26.5215C24.276 26.505 24.2588 26.4878 24.2487 26.472C24.2371 26.4539 24.2189 26.4123 24.2189 26.3217H23.7189C23.7189 26.4772 23.7501 26.6206 23.8276 26.7416C23.9065 26.8649 24.0182 26.941 24.1354 26.9869C24.3483 27.0705 24.6227 27.0676 24.8478 27.0676V26.5676ZM25.4768 26.3217C25.4768 26.4123 25.4586 26.4539 25.447 26.472C25.4369 26.4878 25.4197 26.505 25.3777 26.5215C25.2723 26.5629 25.1073 26.5676 24.8478 26.5676V27.0676C25.073 27.0676 25.3474 27.0705 25.5603 26.9869C25.6775 26.941 25.7892 26.8649 25.8681 26.7416C25.9456 26.6206 25.9768 26.4772 25.9768 26.3217H25.4768ZM25.5431 26.4576C25.5943 26.4254 25.6286 26.404 25.6562 26.3896C25.6623 26.3865 25.6671 26.3842 25.6706 26.3826C25.6741 26.3811 25.6757 26.3805 25.6757 26.3805C25.6756 26.3805 25.6729 26.3815 25.6677 26.3825C25.6626 26.3835 25.6538 26.3849 25.6421 26.3849C25.6171 26.3851 25.5804 26.3791 25.5436 26.3558C25.5075 26.3329 25.4887 26.3043 25.4803 26.2874C25.4728 26.2722 25.4728 26.2647 25.4741 26.273C25.4753 26.2805 25.4768 26.2958 25.4768 26.3217H25.9768C25.9768 26.2439 25.9697 26.1489 25.9286 26.0658C25.9056 26.0194 25.8688 25.9699 25.8114 25.9335C25.7533 25.8967 25.6921 25.8847 25.6396 25.8849C25.5482 25.8854 25.469 25.9234 25.4258 25.9459C25.3758 25.9719 25.3221 26.0059 25.2765 26.0347L25.5431 26.4576Z" fill="#0A51A5"/>
</svg>
