<svg width="37" height="25" viewBox="0 0 37 25" fill="none" xmlns="http://www.w3.org/2000/svg">
<path fill-rule="evenodd" clip-rule="evenodd" d="M5.83046 1.33218C5.83046 2.06806 5.27369 2.66435 4.5873 2.66435H1.24315C0.556448 2.66435 0 2.06771 0 1.33218C0 0.596313 0.556766 2.32745e-05 1.24315 2.32745e-05H4.5873C5.27371 -0.000293972 5.83046 0.596337 5.83046 1.33218ZM22.9648 1.33216C22.9648 2.06803 22.408 2.66432 21.7216 2.66432L8.58767 2.66435C7.90096 2.66435 7.34451 2.06771 7.34451 1.33218C7.34451 0.596313 7.90128 2.32745e-05 8.58767 2.32745e-05L21.7216 1.26459e-07C22.408 -0.00031712 22.9648 0.596314 22.9648 1.33216ZM5.83046 7.31239C5.83046 8.04826 5.27369 8.64455 4.5873 8.64455H1.24315C0.556448 8.64455 0 8.04792 0 7.31239C0 6.57652 0.556766 5.98023 1.24315 5.98023H4.5873C5.27371 5.98023 5.83046 6.57654 5.83046 7.31239ZM5.83046 13.2926C5.83046 14.0285 5.27369 14.6248 4.5873 14.6248H1.24315C0.556448 14.6248 0 14.0281 0 13.2926C0 12.5567 0.556766 11.9604 1.24315 11.9604H4.5873C5.27371 11.9604 5.83046 12.5571 5.83046 13.2926ZM4.5873 20.5407C5.27369 20.5407 5.83046 19.9444 5.83046 19.2085C5.83046 18.4727 5.27371 17.8761 4.5873 17.8764H1.24315C0.556767 17.8764 0 18.4727 0 19.2085C0 19.9441 0.556448 20.5407 1.24315 20.5407H4.5873ZM17.2187 7.31239C17.2187 8.04826 16.6619 8.64455 15.9755 8.64455L8.23244 8.64455C7.54573 8.64455 6.98928 8.04792 6.98928 7.31239C6.98928 6.57652 7.54605 5.98023 8.23244 5.98023L15.9755 5.98023C16.6619 5.97991 17.2187 6.57654 17.2187 7.31239ZM14.977 14.6248C15.6634 14.6248 16.2202 14.0285 16.2202 13.2926C16.2202 12.5568 15.6634 11.9601 14.977 11.9604H8.58767C7.90128 11.9604 7.34451 12.5567 7.34451 13.2926C7.34451 14.0281 7.90096 14.6248 8.58767 14.6248H14.977ZM18.4618 19.2086C18.4618 19.9444 17.905 20.5407 17.2187 20.5407H8.58767C7.90096 20.5407 7.34451 19.9441 7.34451 19.2086C7.34451 18.4727 7.90128 17.8764 8.58767 17.8764H17.2187C17.9051 17.8761 18.4618 18.4727 18.4618 19.2086ZM25.5947 20.8221C27.4732 20.9885 29.2564 20.5095 30.7363 19.5649L34.8862 24.5628C35.3166 25.0809 36.0753 25.1481 36.5792 24.7128C37.0833 24.2774 37.1431 23.5029 36.7126 22.9848L32.5626 17.987C33.7193 16.6532 34.476 14.9379 34.6241 13.0206C34.9882 8.3056 31.5334 4.14546 26.9142 3.73612C22.2953 3.32681 18.2493 6.82223 17.8852 11.5372C17.5211 16.2522 20.9755 20.4127 25.5947 20.8221ZM19.6302 11.6922C19.9184 7.96027 23.1204 5.19363 26.7766 5.51764C30.4324 5.84161 33.1669 9.13428 32.8787 12.8663C32.5905 16.5981 29.3882 19.3648 25.7323 19.0408C22.0761 18.7168 19.342 15.4242 19.6302 11.6922Z" fill="#0A51A5"/>
</svg>
