<svg width="27" height="28" viewBox="0 0 27 28" fill="none" xmlns="http://www.w3.org/2000/svg">
<path d="M18.2584 16.625C16.5667 16.625 15.8083 17.5 13.0667 17.5C10.2667 17.5 9.50833 16.625 7.81667 16.625C3.5 16.625 0 19.961 0 24.0078V25.375C0 26.8515 1.225 28 2.8 28H23.3333C24.8501 28 26.1333 26.8515 26.1333 25.375V24.0078C26.1333 19.961 22.575 16.625 18.2584 16.625ZM23.3333 25.375H2.8V24.0078C2.8 21.3828 5.01667 19.25 7.81667 19.25C8.69167 19.25 10.0333 20.125 13.0667 20.125C16.0416 20.125 17.3834 19.25 18.2584 19.25C21.0584 19.25 23.3333 21.3828 23.3333 24.0078V25.375ZM13.0667 15.75C17.675 15.75 21.4667 12.25 21.4667 7.875C21.4667 3.55469 17.675 0 13.0667 0C8.4 0 4.66667 3.55469 4.66667 7.875C4.66667 12.25 8.4 15.75 13.0667 15.75ZM13.0667 2.625C16.1 2.625 18.6667 5.03125 18.6667 7.875C18.6667 10.7734 16.1 13.125 13.0667 13.125C9.97499 13.125 7.46667 10.7734 7.46667 7.875C7.46667 5.03125 9.97499 2.625 13.0667 2.625Z" fill="#0A51A5"/>
</svg>
