<svg width="27" height="27" viewBox="0 0 27 27" fill="none" xmlns="http://www.w3.org/2000/svg">
<path d="M13.5 0C13.2543 0.00915531 12.9624 0.0923366 12.768 0.234374L0.459214 9.23433C0.173666 9.44438 -0.00082662 9.78312 2.94476e-06 10.125V25.8749C2.94476e-06 26.464 0.567504 27 1.19124 27H9.52944C10.1532 27 10.7207 26.464 10.7207 25.8749V19.8748C10.7207 18.4011 11.9396 17.2499 13.5 17.2499C15.0604 17.2499 16.2793 18.4011 16.2793 19.8748V25.8749C16.2793 26.464 16.8468 27 17.4706 27H25.8088C26.4325 27 27 26.464 27 25.8749V10.125C27 9.78313 26.8266 9.44466 26.5408 9.23433L14.232 0.234374C14.0113 0.0729773 13.8969 0.0204039 13.5 0H13.5ZM13.5 2.54309L24.6176 10.6638V24.7497H18.6617V19.8746C18.6617 17.1935 16.3391 14.9996 13.4999 14.9996C10.661 14.9996 8.33809 17.1932 8.33809 19.8746V24.7497H2.38224V10.6638L13.5 2.54309Z" fill="#0A51A5"/>
</svg>
