<svg width="32" height="21" viewBox="0 0 32 21" fill="none" xmlns="http://www.w3.org/2000/svg">
<path d="M22.6379 14.417C23.7601 14.417 24.6731 15.3767 24.6731 16.5565C24.6731 17.7362 23.7601 18.696 22.6379 18.696C21.5156 18.696 20.6026 17.7362 20.6026 16.5565C20.6026 15.3767 21.5156 14.417 22.6379 14.417ZM22.6379 17.7085C23.2421 17.7085 23.7338 17.1917 23.7338 16.5565C23.7338 15.9213 23.2421 15.4045 22.6379 15.4045C22.0336 15.4045 21.542 15.9213 21.542 16.5565C21.542 17.1917 22.0336 17.7085 22.6379 17.7085Z" fill="white"/>
<path d="M7.1076 14.417C8.22985 14.417 9.14282 15.3767 9.14282 16.5565C9.14282 17.7362 8.22985 18.696 7.1076 18.696C5.98534 18.696 5.07237 17.7362 5.07237 16.5565C5.07237 15.3767 5.98534 14.417 7.1076 14.417ZM7.1076 17.7085C7.71184 17.7085 8.20349 17.1917 8.20349 16.5565C8.20349 15.9213 7.71184 15.4045 7.1076 15.4045C6.50335 15.4045 6.0117 15.9213 6.0117 16.5565C6.0117 17.1917 6.50335 17.7085 7.1076 17.7085Z" fill="white"/>
<path d="M0.81409 13.5611V9.01644L6.43613 8.20119L9.3998 2.63323H14.1526V1.81034C14.1526 0.812154 14.9252 0 15.8748 0H25.8943C26.8439 0 27.6164 0.812154 27.6164 1.81034V2.70222C28.3383 2.91775 28.8689 3.61654 28.8689 4.44357V4.9373H30.2779C31.2274 4.9373 32 5.74946 32 6.74765V10.6975C32 11.6957 31.2274 12.5078 30.2779 12.5078H28.8689V13.5611H29.7456V17.1818H26.8223C26.5321 19.3369 24.7667 21 22.638 21C21.1755 21 19.8845 20.215 19.1252 19.0251H10.6203C9.86107 20.215 8.57005 21 7.10757 21C4.97879 21 3.2134 19.3369 2.92327 17.1818H2.38419e-07V13.5611H0.81409ZM28.8689 11.5204H30.2779C30.7095 11.5204 31.0607 11.1513 31.0607 10.6975V6.74765C31.0607 6.29388 30.7095 5.92477 30.2779 5.92477H28.8689V11.5204ZM17.2838 0.987461H15.8748C15.4431 0.987461 15.092 1.35657 15.092 1.81034V2.63323H17.2838V0.987461ZM20.4149 0.987461H18.2231V2.63323H20.4149V0.987461ZM23.546 0.987461H21.3542V2.63323H23.546V0.987461ZM26.6771 1.81034C26.6771 1.35657 26.326 0.987461 25.8943 0.987461H24.4853V2.63323H26.6771V1.81034ZM26.8498 16.1944H28.8063V14.5486H26.407C26.6497 15.0502 26.8044 15.6062 26.8498 16.1944ZM22.638 20.0125C24.4508 20.0125 25.9256 18.4621 25.9256 16.5564C25.9256 14.6508 24.4508 13.1003 22.638 13.1003C20.8252 13.1003 19.3503 14.6508 19.3503 16.5564C19.3503 18.4621 20.8252 20.0125 22.638 20.0125ZM18.6533 18.0376C18.4969 17.574 18.411 17.0757 18.411 16.5564C18.411 16.5013 18.413 16.4466 18.4149 16.3918H11.3306C11.3326 16.4466 11.3346 16.5013 11.3346 16.5564C11.3346 17.0757 11.2486 17.574 11.0922 18.0376H18.6533ZM10.8111 14.4169C10.9731 14.7256 11.1009 15.0567 11.1897 15.4044H18.5559C19.0399 13.511 20.6862 12.1129 22.638 12.1129C23.8719 12.1129 24.9839 12.6718 25.7573 13.5611H27.9295V4.44357C27.9295 3.9898 27.5784 3.62069 27.1468 3.62069H9.9505L7.0276 9.11229L1.75342 9.87698V13.5611H3.98829C4.76174 12.6718 5.87372 12.1129 7.10763 12.1129C8.27948 12.1129 9.34118 12.617 10.1076 13.4295H13.6204V14.4169H10.8111ZM7.10763 20.0125C8.92042 20.0125 10.3953 18.4621 10.3953 16.5564C10.3953 14.6508 8.92042 13.1003 7.10763 13.1003C5.29484 13.1003 3.81996 14.6508 3.81996 16.5564C3.81996 18.4621 5.29484 20.0125 7.10763 20.0125ZM0.939335 16.1944H2.89584C2.94125 15.6062 3.09586 15.0502 3.33865 14.5486H0.939335V16.1944Z" fill="white"/>
<path d="M16.6573 4.60791H26.99V10.2035H16.6573V4.60791ZM17.5966 9.21606H26.0507V5.59537H17.5966V9.21606Z" fill="white"/>
<path d="M15.4993 13.4292H14.5599V14.4167H15.4993V13.4292Z" fill="white"/>
<path d="M10.3939 4.60791H15.718V10.2035H7.58044L10.3939 4.60791ZM14.7787 5.59537H10.9599L9.13942 9.21606H14.7787V5.59537Z" fill="white"/>
<path d="M25.0178 7.17578H24.0785V8.16324H25.0178V7.17578Z" fill="white"/>
<path d="M23.1392 7.17578H22.1998V8.16324H23.1392V7.17578Z" fill="white"/>
<path d="M17.3777 13.4292H16.4384V14.4167H17.3777V13.4292Z" fill="white"/>
</svg>
