<svg width="50" height="50" viewBox="0 0 50 50" fill="none" xmlns="http://www.w3.org/2000/svg">
<path d="M25.0007 50C11.1809 50 0.000732422 38.7681 0.000732422 25C0.000732422 11.2319 11.1809 0 25.0007 0C38.8206 0 50.0007 11.2319 50.0007 25C50.0007 38.7681 38.7689 50 25.0007 50Z" fill="#EE7203"/>
<path d="M25.2595 14.6425H25.2595C28.3856 14.6421 30.9065 17.1629 30.9065 20.2895C30.9065 23.4157 28.3856 25.9365 25.2595 25.9365C24.4004 25.9365 23.7119 26.6246 23.7119 27.4841V31.6766C23.7119 32.5356 24.4 33.2242 25.2595 33.2242C26.1185 33.2242 26.8071 32.536 26.8071 31.6766V28.8525C30.9049 28.117 34.0017 24.5643 34.0017 20.2375C34.0017 15.4438 30.1036 11.5473 25.2595 11.5473C20.467 11.5473 16.5172 15.4442 16.5172 20.2895C16.5172 21.1486 17.2054 21.8371 18.0648 21.8371C18.9239 21.8371 19.6125 21.149 19.6125 20.2895C19.6125 17.1633 22.1333 14.6425 25.2595 14.6425Z" fill="white" stroke="white" stroke-width="0.3"/>
<path d="M25.2594 39.4355C26.4287 39.4355 27.3764 38.4878 27.3764 37.3185C27.3764 36.1493 26.4287 35.2016 25.2594 35.2016C24.0902 35.2016 23.1425 36.1493 23.1425 37.3185C23.1425 38.4877 24.0902 39.4355 25.2594 39.4355Z" fill="white" stroke="white" stroke-width="0.3"/>
</svg>
