<svg width="23" height="23" viewBox="0 0 23 23" fill="none" xmlns="http://www.w3.org/2000/svg">
<path d="M11.5 0.9C5.65519 0.9 0.9 5.65519 0.9 11.5C0.9 17.3448 5.65519 22.1 11.5 22.1C17.3448 22.1 22.1 17.3448 22.1 11.5C22.1 5.65519 17.3448 0.9 11.5 0.9Z" fill="#222830" stroke="#222830" stroke-width="0.2"/>
<path d="M14.9664 6.38029L14.9665 6.38026C15.2346 6.26369 15.4874 6.20226 15.7189 6.20017L15.7192 6.2H15.7313C16.1203 6.2 16.3657 6.36364 16.503 6.50251L16.4675 6.53767L16.503 6.50251C16.6061 6.60674 16.7292 6.77884 16.7783 7.03377C16.8274 7.2888 16.8015 7.62208 16.6145 8.04705L12.8417 16.6286C12.8417 16.6286 12.8417 16.6286 12.8417 16.6286C12.6654 17.0302 12.4654 17.2776 12.267 17.4247C12.0681 17.5722 11.8735 17.6167 11.7126 17.6167C11.6795 17.6167 11.6473 17.6146 11.6166 17.611M14.9664 6.38029L5.61122 11.8471C5.76759 12.0207 6.02464 12.1775 6.44177 12.2599L6.44192 12.2599L9.96215 12.9443M14.9664 6.38029L6.37817 10.1291C5.94365 10.3187 5.68593 10.5351 5.54185 10.7507C5.39727 10.9672 5.36979 11.1789 5.3886 11.3532L14.9664 6.38029ZM11.6166 17.611C11.6165 17.611 11.6164 17.611 11.6164 17.611L11.6222 17.5613L11.6169 17.611C11.6168 17.611 11.6167 17.611 11.6166 17.611ZM11.6166 17.611C11.4825 17.5967 11.2961 17.5446 11.1211 17.3869C10.9459 17.2291 10.7864 16.9691 10.6998 16.5467L10.6998 16.5467L9.96215 12.9443M9.96215 12.9443L9.9949 12.9507L10.0044 12.9016L9.95545 12.9116L9.96215 12.9443ZM7.46651 11.1062L10.4042 11.6862L7.46651 11.1062ZM7.46651 11.1062L15.3311 7.67325L11.8548 15.5813L11.2243 12.5031C11.1418 12.1007 10.8055 11.7651 10.4043 11.6862L7.46651 11.1062Z" fill="white" stroke="white" stroke-width="0.1"/>
</svg>
