<svg width="21" height="21" viewBox="0 0 21 21" fill="none" xmlns="http://www.w3.org/2000/svg">
<path fill-rule="evenodd" clip-rule="evenodd" d="M15.2029 1C15.2029 0.447715 15.6506 0 16.2029 0H19.8039C20.3562 0 20.8039 0.447715 20.8039 1V4.60069C20.8039 5.15298 20.3562 5.60069 19.8039 5.60069H16.2029C15.6506 5.60069 15.2029 5.15298 15.2029 4.60069V1ZM17.2029 2V3.60069H18.8039V2H17.2029ZM0.000732422 1.00097C0.000732422 0.44869 0.448448 0.000974655 1.00073 0.000974655H4.60175C5.15403 0.000974655 5.60175 0.44869 5.60175 1.00097V4.60167C5.60175 5.15395 5.15403 5.60167 4.60175 5.60167H1.00073C0.448448 5.60167 0.000732422 5.15395 0.000732422 4.60167V1.00097ZM2.00073 2.00097V3.60167H3.60175V2.00097H2.00073ZM8.60181 0C8.04952 0 7.60181 0.447715 7.60181 1V4.60069C7.60181 5.15298 8.04952 5.60069 8.60181 5.60069H12.2028C12.7551 5.60069 13.2028 5.15298 13.2028 4.60069V1C13.2028 0.447715 12.7551 0 12.2028 0H8.60181ZM9.60181 3.60069V2H11.2028V3.60069H9.60181ZM0 8.60156C0 8.04928 0.447715 7.60156 1 7.60156H4.60101C5.1533 7.60156 5.60101 8.04928 5.60101 8.60156V12.2023C5.60101 12.7545 5.1533 13.2023 4.60101 13.2023H1C0.447715 13.2023 0 12.7545 0 12.2023V8.60156ZM2 9.60156V11.2023H3.60101V9.60156H2ZM16.2029 7.60059C15.6506 7.60059 15.2029 8.0483 15.2029 8.60059V12.2013C15.2029 12.7536 15.6506 13.2013 16.2029 13.2013H19.8039C20.3562 13.2013 20.8039 12.7536 20.8039 12.2013V8.60059C20.8039 8.0483 20.3562 7.60059 19.8039 7.60059H16.2029ZM17.2029 11.2013V9.60059H18.8039V11.2013H17.2029ZM7.60181 8.60059C7.60181 8.0483 8.04952 7.60059 8.60181 7.60059H12.2028C12.7551 7.60059 13.2028 8.0483 13.2028 8.60059V12.2013C13.2028 12.7536 12.7551 13.2013 12.2028 13.2013H8.60181C8.04952 13.2013 7.60181 12.7536 7.60181 12.2013V8.60059ZM9.60181 9.60059V11.2013H11.2028V9.60059H9.60181ZM8.60181 15.2012C8.04952 15.2012 7.60181 15.6489 7.60181 16.2012V19.8019C7.60181 20.3541 8.04952 20.8019 8.60181 20.8019H12.2028C12.7551 20.8019 13.2028 20.3541 13.2028 19.8019V16.2012C13.2028 15.6489 12.7551 15.2012 12.2028 15.2012H8.60181ZM9.60181 18.8019V17.2012H11.2028V18.8019H9.60181Z" fill="white"/>
</svg>
