<svg width="25" height="41" viewBox="0 0 25 41" fill="none" xmlns="http://www.w3.org/2000/svg">
<path d="M21.4922 26.0938C19.3515 27.4531 16.4062 27.9922 14.4609 28.1953L16.0937 29.8047L22.0547 35.7656C24.2344 38 20.6875 41.4922 18.4844 39.3359C16.9922 37.8203 14.8047 35.6328 12.5234 33.3516L6.56249 39.3281C4.35936 41.4766 0.812487 37.9531 3.01561 35.7578C4.53124 34.2422 6.6953 32.0547 8.97655 29.7969L10.5859 28.1875C8.66405 27.9844 5.67186 27.4766 3.5078 26.0859C0.960924 24.4453 -0.156263 23.4844 0.828112 21.4766C1.40624 20.3359 2.99217 19.375 5.09374 21.0312C5.09374 21.0312 7.92967 23.2891 12.5078 23.2891C17.0859 23.2891 19.9219 21.0312 19.9219 21.0312C22.0234 19.3828 23.6015 20.3359 24.1875 21.4766C25.1562 23.4844 24.039 24.4453 21.4922 26.0938ZM2.36717 10.1328C2.36717 4.53125 6.92186 0 12.5 0C18.0781 0 22.6328 4.53125 22.6328 10.1328C22.6328 15.7109 18.0781 20.2422 12.5 20.2422C6.92186 20.2422 2.36717 15.7109 2.36717 10.1328ZM7.52342 10.1328C7.52342 12.875 9.7578 15.1094 12.5 15.1094C15.2422 15.1094 17.4765 12.875 17.4765 10.1328C17.4765 7.36719 15.2422 5.13281 12.5 5.13281C9.7578 5.13281 7.52342 7.36719 7.52342 10.1328Z" fill="white"/>
</svg>
