<svg width="40" height="34" viewBox="0 0 40 34" fill="none" xmlns="http://www.w3.org/2000/svg">
<path d="M35.8883 8.85275C35.9137 9.20807 35.9137 9.56346 35.9137 9.91877C35.9137 20.7563 27.665 33.2436 12.5888 33.2436C7.94414 33.2436 3.62945 31.8984 0 29.5635C0.659922 29.6395 1.29437 29.6649 1.97969 29.6649C5.81211 29.6649 9.34008 28.3706 12.1573 26.1624C8.55328 26.0863 5.53297 23.7259 4.49234 20.4771C5 20.5532 5.50758 20.604 6.04063 20.604C6.77664 20.604 7.51273 20.5024 8.19797 20.3249C4.44164 19.5634 1.6243 16.2639 1.6243 12.2792V12.1777C2.71563 12.7868 3.98477 13.1675 5.32984 13.2182C3.12172 11.7461 1.67508 9.23346 1.67508 6.3908C1.67508 4.86799 2.08109 3.47205 2.7918 2.25377C6.82734 7.22838 12.8934 10.4771 19.6953 10.8324C19.5684 10.2233 19.4923 9.58885 19.4923 8.95432C19.4923 4.4365 23.1471 0.756348 27.6902 0.756348C30.0506 0.756348 32.1826 1.74619 33.6801 3.34518C35.5328 2.98986 37.3095 2.30455 38.8831 1.36549C38.2739 3.26908 36.9795 4.86807 35.2791 5.88322C36.9288 5.70564 38.5278 5.24869 39.9998 4.61424C38.8833 6.23853 37.4873 7.68518 35.8883 8.85275Z" fill="white"/>
</svg>
