<svg width="50" height="40" viewBox="0 0 50 40" fill="none" xmlns="http://www.w3.org/2000/svg">
<path d="M47.3091 9.19531C47.6302 8.21875 47.3091 7.5 45.7639 7.5H40.6511C39.349 7.5 38.75 8.11719 38.4288 8.80469C38.4288 8.80469 35.8247 14.5156 32.1441 18.2188C30.9549 19.2891 30.408 19.6328 29.757 19.6328C29.4358 19.6328 28.941 19.2891 28.941 18.3125V9.19531C28.941 8.02344 28.5764 7.5 27.5 7.5H19.4618C18.6459 7.5 18.1597 8.04688 18.1597 8.55469C18.1597 9.66406 20 9.92188 20.191 13.0469V19.8281C20.191 21.3125 19.8959 21.5859 19.2448 21.5859C17.5087 21.5859 13.29 15.8516 10.79 9.28906C10.2865 8.01563 9.79169 7.5 8.48093 7.5H3.36808C1.90975 7.5 1.61461 8.11719 1.61461 8.80469C1.61461 10.0234 3.35072 16.0781 9.69621 24.0781C13.9236 29.5391 19.8785 32.5 25.2952 32.5C28.5504 32.5 28.9497 31.8438 28.9497 30.7109C28.9497 25.4922 28.6545 25 30.2865 25C31.0417 25 32.3438 25.3438 35.382 27.9766C38.8542 31.1016 39.4271 32.5 41.3716 32.5H46.4844C47.9427 32.5 48.6806 31.8438 48.2552 30.5469C47.283 27.8203 40.7118 22.2109 40.4167 21.8359C39.6615 20.9609 39.8785 20.5703 40.4167 19.7891C40.4254 19.7812 46.6667 11.875 47.3091 9.19531Z" fill="white"/>
</svg>
