<svg width="38" height="39" viewBox="0 0 38 39" fill="none" xmlns="http://www.w3.org/2000/svg">
<path d="M32.3085 6.23623C28.7545 2.67373 24.0214 0.714355 18.9915 0.714355C8.60937 0.714355 0.161161 9.16257 0.161161 19.5447C0.161161 22.8612 1.02634 26.1014 2.67188 28.9599L0 38.7144L9.98348 36.0934C12.7317 37.5947 15.8277 38.3835 18.983 38.3835H18.9915C29.3652 38.3835 38 29.9353 38 19.5532C38 14.5233 35.8625 9.79873 32.3085 6.23623ZM18.9915 35.2112C16.1754 35.2112 13.4187 34.4563 11.0183 33.0313L10.45 32.692L4.52946 34.2443L6.10714 28.4679L5.73393 27.8742C4.16473 25.3804 3.34196 22.505 3.34196 19.5447C3.34196 10.9184 10.3652 3.89516 19 3.89516C23.1817 3.89516 27.1089 5.52373 30.0607 8.484C33.0125 11.4443 34.8277 15.3715 34.8192 19.5532C34.8192 28.188 27.6179 35.2112 18.9915 35.2112ZM27.5754 23.4889C27.1089 23.2514 24.7933 22.1148 24.3607 21.9621C23.9281 21.801 23.6143 21.7246 23.3004 22.1996C22.9866 22.6746 22.0875 23.7264 21.8076 24.0487C21.5362 24.3626 21.2563 24.405 20.7897 24.1675C18.0246 22.7849 16.2094 21.6992 14.3857 18.5693C13.9022 17.738 14.8692 17.7974 15.7683 15.9992C15.921 15.6853 15.8446 15.4139 15.7259 15.1764C15.6071 14.9389 14.6656 12.6233 14.2754 11.6818C13.8938 10.7657 13.5036 10.8929 13.2152 10.876C12.9437 10.859 12.6299 10.859 12.3161 10.859C12.0022 10.859 11.4933 10.9777 11.0607 11.4443C10.6281 11.9193 9.41518 13.0559 9.41518 15.3715C9.41518 17.6871 11.1031 19.9264 11.3321 20.2402C11.5696 20.5541 14.6487 25.3041 19.3732 27.3483C22.3589 28.6376 23.5295 28.7478 25.0223 28.5273C25.9299 28.3916 27.8045 27.3907 28.1946 26.288C28.5848 25.1853 28.5848 24.2438 28.4661 24.0487C28.3558 23.8367 28.042 23.7179 27.5754 23.4889Z" fill="white"/>
</svg>
