<svg width="11" height="16" viewBox="0 0 11 16" fill="none" xmlns="http://www.w3.org/2000/svg">
<path d="M11 2V2.8C11 3.02091 10.8461 3.2 10.6562 3.2H0.34375C0.153902 3.2 0 3.02091 0 2.8V2C0 1.77909 0.153902 1.6 0.34375 1.6H3.4375V0.8C3.4375 0.358172 3.7453 0 4.125 0H6.875C7.2547 0 7.5625 0.358172 7.5625 0.8V1.6H10.6562C10.8461 1.6 11 1.77909 11 2ZM1.28562 14.512C1.33626 15.3516 1.93729 16.0021 2.66062 16H8.35312C9.07646 16.0021 9.67749 15.3516 9.72812 14.512L10.3125 4.8H0.6875L1.28562 14.512Z" fill="#8897AB"/>
</svg>
