<svg width="30" height="30" viewBox="0 0 30 30" fill="none" xmlns="http://www.w3.org/2000/svg">
<path fill-rule="evenodd" clip-rule="evenodd" d="M4.00265 19.0025C1.79198 12.9288 5.02109 6.17786 11.2149 3.92348C14.5477 2.71047 18.0534 3.05553 20.9297 4.57236L20.2254 2.63732C20.0273 2.09319 20.3168 1.48856 20.8714 1.28672L21.2713 1.14116C21.8262 0.939191 22.4364 1.21675 22.6343 1.76056L24.6289 7.24083C24.6304 7.24475 24.6326 7.24766 24.634 7.25158L24.7767 7.64375C24.8758 7.91598 24.8526 8.20385 24.7355 8.44819C24.6185 8.69286 24.4077 8.89466 24.1301 8.9957L23.7302 9.14126C23.7269 9.14247 23.7235 9.14259 23.7205 9.14368L18.1299 11.1785C17.575 11.3805 16.9648 11.1029 16.7669 10.5591L16.6241 10.1669C16.4261 9.62279 16.7155 9.01817 17.2701 8.81632L20.7988 7.53199C18.3718 5.76652 15.111 5.20089 12.0383 6.31929C7.17082 8.09089 4.63324 13.3965 6.37049 18.1696C8.10774 22.9426 13.462 25.3758 18.3295 23.6042C22.1254 22.2226 24.4931 18.6909 24.5327 14.9392C24.5625 14.9547 24.5951 14.9654 24.6259 14.9797C24.7171 14.6941 24.9342 14.4496 25.2412 14.3379L25.6168 14.2012C26.138 14.0115 26.7114 14.2721 26.8975 14.7832L27.0265 15.1378C27.0546 15.1331 27.0832 15.1297 27.1113 15.1251C27.1076 15.2445 27.0941 15.363 27.0868 15.4819C27.087 15.527 27.0838 15.5711 27.0776 15.6151C26.7466 20.1136 23.8052 24.2494 19.22 25.9182C13.0265 28.1725 6.21319 25.076 4.00265 19.0025Z" fill="white"/>
</svg>
