<svg width="185" height="145" viewBox="0 0 185 145" fill="none" xmlns="http://www.w3.org/2000/svg">
<path d="M106.249 12.636C114.504 21.3737 117.587 34.7782 122.461 52.9487C127.235 71.1192 133.7 94.0557 125.345 105.574C117.09 117.092 94.1143 117.191 73.1278 115.205C52.0417 113.219 33.0444 109.247 19.3186 97.7295C5.69228 86.2116 -2.56311 67.2468 0.719153 51.36C3.90195 35.5725 23.672 31.575 37.2984 22.8372C50.9247 14.0002 58.5068 0.423063 71.5364 0.0258942C84.5659 -0.371275 97.9933 3.799 106.249 12.636Z" fill="#39BBD8"/>
<path d="M130.862 128.466L118.66 130.055C115.855 130.421 113.199 131.527 110.964 133.258C108.729 134.99 106.996 137.284 105.944 139.906L104.997 142.269C104.802 142.758 104.809 143.305 105.017 143.789C105.225 144.273 105.617 144.655 106.107 144.85C106.597 145.045 107.145 145.038 107.63 144.831C108.115 144.623 108.497 144.231 108.693 143.742L109.638 141.381C110.426 139.414 111.725 137.693 113.401 136.394C115.077 135.096 117.07 134.266 119.174 133.992L131.375 132.404C131.898 132.336 132.373 132.063 132.695 131.646C133.017 131.228 133.159 130.7 133.091 130.178C133.023 129.655 132.75 129.181 132.332 128.86C131.914 128.538 131.385 128.396 130.862 128.464V128.466Z" fill="#041224"/>
<path d="M182.228 93.4066L183.406 91.9094C184.546 90.466 185.108 88.6508 184.982 86.8168C184.856 84.9828 184.052 83.2611 182.725 81.9863C181.398 80.7116 179.644 79.9749 177.803 79.9196C175.963 79.8643 174.167 80.4943 172.766 81.6871L165.983 87.4456C165.864 87.247 165.746 87.0484 165.607 86.8618C164.999 86.054 164.232 85.379 163.352 84.8782C162.473 84.3774 161.501 84.0615 160.494 83.9499C159.488 83.8384 158.47 83.9334 157.502 84.2293C156.534 84.5251 155.637 85.0156 154.866 85.6704L151.636 88.4007C151.034 87.5993 150.276 86.928 149.407 86.4273C148.539 85.9267 147.577 85.6071 146.581 85.488C145.585 85.3688 144.575 85.4525 143.613 85.734C142.65 86.0156 141.754 86.4891 140.98 87.1259L134.006 92.8586C133.599 93.1935 133.342 93.6763 133.291 94.2006C133.24 94.7249 133.4 95.2479 133.736 95.6544C134.071 96.061 134.555 96.3179 135.08 96.3685C135.605 96.4192 136.129 96.2594 136.537 95.9245L143.504 90.1878C143.861 89.893 144.275 89.6735 144.719 89.5428C145.164 89.412 145.63 89.3728 146.09 89.4273C146.567 89.4859 147.026 89.6424 147.439 89.8872C147.852 90.1319 148.209 90.4594 148.489 90.8491C148.523 90.8928 148.531 90.9583 148.563 91.004L137.374 100.498C136.186 99.7391 134.806 99.3348 133.396 99.332H120.045C114.092 99.175 108.195 100.525 102.905 103.256L98.7418 105.456C83.702 113.407 72.0108 126.471 65.7845 142.283C65.688 142.526 65.6405 142.785 65.6448 143.047C65.6491 143.308 65.705 143.566 65.8093 143.806C65.9136 144.045 66.0644 144.262 66.2529 144.444C66.4413 144.625 66.6638 144.768 66.9076 144.863C67.1514 144.958 67.4116 145.005 67.6734 145C67.9352 144.994 68.1934 144.938 68.4331 144.832C68.6729 144.727 68.8895 144.576 69.0706 144.387C69.2516 144.198 69.3935 143.976 69.4882 143.732C75.3646 128.802 86.4018 116.465 100.602 108.957L104.767 106.754C109.486 104.334 114.741 103.143 120.045 103.293H133.414C134.186 103.268 134.942 103.525 135.539 104.015C136.136 104.506 136.534 105.196 136.658 105.958C136.702 106.373 136.658 106.792 136.53 107.189C136.401 107.586 136.19 107.951 135.911 108.261C135.632 108.572 135.291 108.82 134.91 108.991C134.529 109.161 134.116 109.249 133.698 109.25H116.791C116.263 109.25 115.757 109.46 115.384 109.832C115.011 110.204 114.802 110.71 114.802 111.236C114.802 111.763 115.011 112.268 115.384 112.64C115.757 113.013 116.263 113.222 116.791 113.222H154.584C155.05 113.222 155.501 113.059 155.859 112.761L175.352 96.548C175.812 96.1584 176.364 95.8927 176.956 95.7759C177.548 95.6591 178.159 95.6952 178.733 95.8808H178.759C179.118 96.0063 179.448 96.2021 179.73 96.4567C180.054 96.7481 180.315 97.1027 180.496 97.4984C180.678 97.8942 180.776 98.3229 180.786 98.7581C180.797 99.1886 180.72 99.6168 180.56 100.016C180.399 100.416 180.158 100.778 179.851 101.081L161.4 119.503C157.671 123.216 152.82 125.6 147.598 126.288L138.762 127.439C138.246 127.515 137.781 127.791 137.466 128.206C137.151 128.621 137.013 129.144 137.08 129.66C137.147 130.177 137.415 130.646 137.826 130.967C138.237 131.288 138.757 131.436 139.276 131.377L148.111 130.225C154.198 129.424 159.852 126.645 164.201 122.318L182.652 103.899C183.34 103.215 183.881 102.398 184.243 101.498C184.604 100.598 184.779 99.6347 184.756 98.6655C184.733 97.6963 184.513 96.7419 184.109 95.8604C183.704 94.9789 183.125 94.1886 182.405 93.5377C182.347 93.4881 182.284 93.4543 182.228 93.4066ZM172.8 93.496L153.864 109.25H139.986C140.531 108.102 140.752 106.826 140.624 105.561C140.546 104.834 140.344 104.126 140.027 103.466L157.448 88.6827C157.806 88.3791 158.223 88.1518 158.672 88.0149C159.121 87.8779 159.594 87.8341 160.061 87.8862C160.527 87.9383 160.979 88.0851 161.387 88.3177C161.795 88.5503 162.151 88.8637 162.433 89.2387C162.624 89.4943 162.777 89.7766 162.886 90.0766L147.912 102.785C147.705 102.951 147.533 103.157 147.407 103.391C147.281 103.624 147.203 103.881 147.178 104.145C147.152 104.409 147.18 104.675 147.26 104.929C147.34 105.182 147.469 105.416 147.641 105.619C147.814 105.821 148.024 105.987 148.262 106.106C148.499 106.226 148.758 106.296 149.023 106.314C149.288 106.332 149.554 106.297 149.806 106.211C150.057 106.124 150.288 105.988 150.486 105.811L175.35 84.7133C175.708 84.4097 176.124 84.1824 176.574 84.0455C177.023 83.9085 177.496 83.8647 177.962 83.9168C178.429 83.9689 178.881 84.1157 179.288 84.3483C179.696 84.5809 180.052 84.8943 180.335 85.2693C180.789 85.8754 181.031 86.614 181.022 87.3709C181.014 88.1279 180.756 88.861 180.289 89.4571L178.429 91.7962C177.424 91.6888 176.409 91.7839 175.442 92.0759C174.475 92.3678 173.576 92.8508 172.8 93.496Z" fill="#041224"/>
<path d="M87.5256 81.4508H96.7729L116.119 96.9014C116.411 97.1353 116.764 97.2819 117.137 97.3243C117.509 97.3667 117.886 97.3032 118.224 97.1411C118.561 96.979 118.847 96.7249 119.046 96.4082C119.245 96.0914 119.351 95.7248 119.351 95.3506V81.4508H147.198C149.835 81.4476 152.363 80.4006 154.227 78.5393C156.092 76.678 157.141 74.1545 157.144 71.5223V57.6224C157.144 57.0958 156.934 56.5907 156.561 56.2183C156.188 55.8459 155.682 55.6367 155.155 55.6367C154.627 55.6367 154.121 55.8459 153.748 56.2183C153.375 56.5907 153.166 57.0958 153.166 57.6224V71.5223C153.166 73.1022 152.537 74.6174 151.418 75.7346C150.299 76.8517 148.781 77.4794 147.198 77.4794H117.362C116.834 77.4794 116.329 77.6886 115.955 78.061C115.582 78.4334 115.373 78.9384 115.373 79.4651V91.2184L98.7142 77.9142C98.3613 77.6325 97.9229 77.4792 97.471 77.4794H87.5256C85.9429 77.4794 84.4251 76.8517 83.306 75.7346C82.187 74.6174 81.5583 73.1022 81.5583 71.5223V47.6939C81.5583 47.1673 81.3487 46.6622 80.9757 46.2898C80.6026 45.9175 80.0967 45.7083 79.5692 45.7083C79.0416 45.7083 78.5357 45.9175 78.1627 46.2898C77.7896 46.6622 77.5801 47.1673 77.5801 47.6939V71.5223C77.5832 74.1545 78.6321 76.678 80.4965 78.5393C82.361 80.4006 84.8888 81.4476 87.5256 81.4508Z" fill="#041224"/>
<path d="M79.5692 41.737C80.0967 41.737 80.6026 41.5278 80.9757 41.1554C81.3487 40.783 81.5583 40.2779 81.5583 39.7513V35.7799C81.5583 34.2 82.187 32.6848 83.306 31.5676C84.4251 30.4504 85.9429 29.8228 87.5256 29.8228H147.198C148.781 29.8228 150.299 30.4504 151.418 31.5676C152.537 32.6848 153.166 34.2 153.166 35.7799V49.6798C153.166 50.2064 153.375 50.7115 153.748 51.0839C154.121 51.4563 154.627 51.6655 155.155 51.6655C155.682 51.6655 156.188 51.4563 156.561 51.0839C156.934 50.7115 157.144 50.2064 157.144 49.6798V35.7799C157.141 33.1477 156.092 30.6242 154.227 28.7629C152.363 26.9016 149.835 25.8546 147.198 25.8514H87.5256C84.8888 25.8546 82.361 26.9016 80.4965 28.7629C78.6321 30.6242 77.5832 33.1477 77.5801 35.7799V39.7513C77.5801 40.2779 77.7896 40.783 78.1627 41.1554C78.5357 41.5278 79.0416 41.737 79.5692 41.737Z" fill="#041224"/>
<path d="M99.4619 33.7942C96.2976 33.7973 93.2639 35.0536 91.0264 37.2873C88.7889 39.5209 87.5305 42.5495 87.5274 45.7084C87.5244 48.2938 88.3791 50.8075 89.958 52.8569C89.0867 53.4938 88.4063 54.3564 87.9904 55.3513C87.5745 56.3463 87.4388 57.4358 87.5982 58.5022C87.7575 59.5685 88.2057 60.5711 88.8943 61.4016C89.583 62.232 90.4859 62.8589 91.5055 63.2142V63.5796C91.5055 65.6862 92.3438 67.7064 93.8359 69.196C95.328 70.6856 97.3518 71.5224 99.4619 71.5224C101.572 71.5224 103.596 70.6856 105.088 69.196C106.58 67.7064 107.418 65.6862 107.418 63.5796V63.2142C108.439 62.8595 109.344 62.2327 110.033 61.4017C110.723 60.5707 111.172 59.5671 111.331 58.4997C111.491 57.4323 111.355 56.3417 110.938 55.346C110.521 54.3503 109.839 53.4875 108.966 52.8509C110.543 50.8031 111.398 48.2918 111.396 45.7084C111.393 42.5495 110.135 39.5209 107.897 37.2873C105.66 35.0536 102.626 33.7973 99.4619 33.7942ZM99.4619 37.7656C101.572 37.7656 103.596 38.6024 105.088 40.092C106.58 41.5815 107.418 43.6018 107.418 45.7084C107.412 46.8458 107.157 47.9682 106.671 48.9971C106.185 50.026 105.481 50.9366 104.606 51.6654H101.451V48.5161L102.857 47.1122C103.22 46.7377 103.42 46.2361 103.416 45.7155C103.411 45.1949 103.202 44.6968 102.833 44.3287C102.464 43.9605 101.965 43.7517 101.444 43.7471C100.922 43.7426 100.42 43.9428 100.045 44.3045L99.4619 44.8863L98.8791 44.3045C98.504 43.9428 98.0015 43.7426 97.48 43.7471C96.9585 43.7517 96.4596 43.9605 96.0908 44.3287C95.722 44.6968 95.5128 45.1949 95.5082 45.7155C95.5037 46.2361 95.7042 46.7377 96.0665 47.1122L97.4728 48.5161V51.6654H94.3181C93.4433 50.9366 92.7384 50.026 92.2526 48.9971C91.7668 47.9682 91.5119 46.8458 91.5055 45.7084C91.5055 43.6018 92.3438 41.5815 93.8359 40.092C95.328 38.6024 97.3518 37.7656 99.4619 37.7656ZM99.4619 67.551C98.4068 67.551 97.395 67.1326 96.6489 66.3878C95.9029 65.643 95.4837 64.6329 95.4837 63.5796H103.44C103.44 64.6329 103.021 65.643 102.275 66.3878C101.529 67.1326 100.517 67.551 99.4619 67.551ZM105.429 59.6082H93.4946C92.9671 59.6082 92.4612 59.399 92.0881 59.0266C91.7151 58.6542 91.5055 58.1492 91.5055 57.6225C91.5055 57.0959 91.7151 56.5908 92.0881 56.2184C92.4612 55.846 92.9671 55.6368 93.4946 55.6368H105.429C105.957 55.6368 106.463 55.846 106.836 56.2184C107.209 56.5908 107.418 57.0959 107.418 57.6225C107.418 58.1492 107.209 58.6542 106.836 59.0266C106.463 59.399 105.957 59.6082 105.429 59.6082Z" fill="#041224"/>
<path d="M145.211 39.7512H123.331C122.803 39.7512 122.297 39.9604 121.924 40.3328C121.551 40.7052 121.342 41.2103 121.342 41.7369C121.342 42.2636 121.551 42.7686 121.924 43.141C122.297 43.5134 122.803 43.7226 123.331 43.7226H145.211C145.738 43.7226 146.244 43.5134 146.617 43.141C146.99 42.7686 147.2 42.2636 147.2 41.7369C147.2 41.2103 146.99 40.7052 146.617 40.3328C146.244 39.9604 145.738 39.7512 145.211 39.7512Z" fill="#041224"/>
<path d="M147.199 49.6797C147.199 49.153 146.989 48.648 146.616 48.2756C146.243 47.9032 145.737 47.694 145.209 47.694H117.362C116.835 47.694 116.329 47.9032 115.956 48.2756C115.583 48.648 115.373 49.153 115.373 49.6797C115.373 50.2063 115.583 50.7114 115.956 51.0838C116.329 51.4562 116.835 51.6654 117.362 51.6654H145.209C145.737 51.6654 146.243 51.4562 146.616 51.0838C146.989 50.7114 147.199 50.2063 147.199 49.6797Z" fill="#041224"/>
<path d="M143.22 57.6225C143.22 57.0959 143.011 56.5908 142.638 56.2184C142.265 55.846 141.759 55.6368 141.231 55.6368H117.362C116.835 55.6368 116.329 55.846 115.956 56.2184C115.583 56.5908 115.373 57.0959 115.373 57.6225C115.373 58.1492 115.583 58.6542 115.956 59.0266C116.329 59.399 116.835 59.6082 117.362 59.6082H141.231C141.759 59.6082 142.265 59.399 142.638 59.0266C143.011 58.6542 143.22 58.1492 143.22 57.6225Z" fill="#041224"/>
<path d="M117.362 63.5796C116.835 63.5796 116.329 63.7888 115.956 64.1612C115.583 64.5336 115.373 65.0386 115.373 65.5653C115.373 66.0919 115.583 66.597 115.956 66.9694C116.329 67.3418 116.835 67.551 117.362 67.551H133.275C133.802 67.551 134.308 67.3418 134.681 66.9694C135.054 66.597 135.264 66.0919 135.264 65.5653C135.264 65.0386 135.054 64.5336 134.681 64.1612C134.308 63.7888 133.802 63.5796 133.275 63.5796H117.362Z" fill="#041224"/>
</svg>
