<svg width="332" height="301" viewBox="0 0 332 301" fill="none" xmlns="http://www.w3.org/2000/svg">
<rect width="332" height="301" fill="white"/>
<path d="M194.252 51.8938C213.818 69.2648 232.326 97.6901 228.977 122.957C225.628 148.421 200.421 170.53 169.398 192.244C138.552 213.76 101.712 234.684 71.7465 224.42C41.7811 214.155 18.3376 172.899 7.05647 126.115C-4.22462 79.1347 -3.34328 26.8242 19.7477 8.46619C42.8387 -9.89184 88.1393 5.70261 121.278 16.7569C154.24 27.8112 174.863 34.3253 194.252 51.8938Z" fill="#01B047"/>
<path d="M73.7902 97C73.2589 96.9984 72.7336 96.8914 72.2469 96.6858C71.7603 96.4803 71.3227 96.1804 70.9614 95.805L52.8652 77.1331C52.2469 76.3982 51.941 75.4645 52.0094 74.5207C52.0779 73.5769 52.5154 72.6933 53.2338 72.0485C53.9521 71.4036 54.8977 71.0455 55.8794 71.0466C56.8612 71.0477 57.8059 71.4078 58.5227 72.0543L73.7902 87.7761L107.115 53.3823C107.45 52.9847 107.866 52.6576 108.337 52.4213C108.808 52.1851 109.325 52.0448 109.855 52.0091C110.385 51.9734 110.917 52.0431 111.418 52.2139C111.918 52.3847 112.377 52.6529 112.766 53.0019C113.155 53.3508 113.465 53.7731 113.677 54.2424C113.89 54.7118 113.999 55.2182 114 55.7301C114.001 56.2421 113.892 56.7487 113.681 57.2185C113.47 57.6883 113.161 58.1113 112.773 58.4611L76.6189 95.805C76.2576 96.1804 75.8201 96.4803 75.3334 96.6858C74.8468 96.8914 74.3215 96.9984 73.7902 97Z" fill="white" fill-opacity="0.8"/>
<path d="M318.247 114.092C327.218 137.325 336.309 168.531 324.927 188.789C313.282 209.123 281.026 218.411 248.41 228.493C215.532 238.651 182.031 249.678 159.06 239.312C136.089 228.946 123.522 197.361 133.539 170.869C143.555 144.378 176.03 123.154 197.443 101.388C218.857 79.6212 229.196 57.0404 243.087 50.1412C256.979 43.242 274.547 51.8506 287.487 63.7245C300.565 75.6969 309.277 90.8592 318.247 114.092Z" fill="#F4F6FC"/>
<path d="M119.471 264.134H131.308" stroke="#222830"/>
<path d="M25.2422 252.782L28.5568 258.931C31.09 262.961 33.7654 264.134 36.1329 264.134C38.5005 264.134 119.944 264.134 119.944 264.134" stroke="#222830"/>
<path d="M115.683 256.33H123.923" stroke="#222830"/>
<path d="M21.4541 245.216C21.4541 245.216 3.93421 213.998 2.98719 212.106C2.04016 210.214 3.4607 206.903 5.82826 206.903C8.19582 206.903 83.4842 206.903 83.4842 206.903C87.5258 207.136 89.6398 208.322 91.0603 210.687C92.4809 213.052 119.945 264.136 119.945 264.136" stroke="#222830"/>
<path d="M210.521 198.929C210.521 198.172 210.829 197.445 211.377 196.909C211.925 196.372 212.669 196.07 213.445 196.068V185.507C213.444 185.006 213.24 184.525 212.877 184.171C212.514 183.816 212.021 183.617 211.508 183.617H192.478C191.963 183.617 191.469 183.817 191.105 184.172C190.741 184.528 190.536 185.01 190.535 185.513V212.475C190.535 212.978 190.74 213.46 191.104 213.815C191.468 214.17 191.962 214.37 192.477 214.37H211.51C212.023 214.37 212.515 214.171 212.878 213.817C213.24 213.464 213.444 212.984 213.445 212.483V201.79C212.669 201.788 211.925 201.486 211.377 200.949C210.829 200.413 210.521 199.686 210.521 198.929Z" stroke="#EE7203"/>
<path d="M205.429 192.15H204.511V189.406C205.827 189.376 206.392 189.436 206.392 190.763C206.392 191.449 206.208 192.15 205.432 192.15H205.429ZM207.727 193.059V193.03C208.858 192.524 209.148 191.672 209.148 190.486C209.148 188.265 208.051 187.407 205.848 187.407H201.918V198.559H204.606V194.163H205.492C206.119 194.208 206.333 194.655 206.409 195.341C206.428 195.515 206.428 196.923 206.426 197.827C206.426 197.859 206.431 197.892 206.439 197.923C206.463 198.1 206.554 198.261 206.693 198.376C206.832 198.492 207.01 198.552 207.192 198.547H209.061V194.505C209.061 193.711 208.472 193.223 207.723 193.059" fill="#EE7203"/>
<path d="M200.918 197.062C200.917 196.862 200.835 196.672 200.69 196.531C200.546 196.39 200.35 196.312 200.145 196.312H196.455V188.089C196.455 187.994 196.436 187.899 196.399 187.811C196.362 187.723 196.307 187.643 196.238 187.576C196.169 187.508 196.087 187.455 195.997 187.419C195.907 187.382 195.81 187.363 195.713 187.363H193.766V198.547H200.919V197.062H200.918Z" fill="#EE7203"/>
<path d="M197.373 204.162H196.456V201.422C197.771 201.391 198.334 201.45 198.334 202.778C198.334 203.465 198.152 204.166 197.374 204.166L197.373 204.162ZM199.569 205.073V205.037C200.702 204.534 200.992 203.684 200.992 202.493C200.992 200.272 199.894 199.414 197.692 199.414H193.766V210.6H196.456V206.182H197.342C197.968 206.226 198.182 206.675 198.259 207.36C198.277 207.533 198.277 208.941 198.275 209.846C198.276 209.878 198.28 209.91 198.289 209.941C198.312 210.121 198.4 210.287 198.539 210.408C198.677 210.529 198.855 210.596 199.041 210.599H200.903V206.517C200.903 205.68 200.321 205.234 199.573 205.069" fill="#EE7203"/>
<path d="M207.165 199.406C206.969 199.408 206.781 199.485 206.644 199.621C206.506 199.757 206.429 199.941 206.429 200.132C206.429 200.147 206.429 200.16 206.429 200.175V207.77C206.429 208.247 206.217 208.841 205.518 208.841C204.758 208.841 204.591 208.379 204.591 207.841V200.131C204.59 199.94 204.512 199.756 204.374 199.621C204.236 199.486 204.049 199.409 203.853 199.408H201.918V207.502C201.918 209.8 203.24 210.857 205.505 210.857C208.237 210.857 209.104 209.397 209.104 207.502V199.406H207.165Z" fill="#EE7203"/>
<path d="M213.228 200.198C213.971 200.198 214.573 199.597 214.573 198.854C214.573 198.112 213.971 197.511 213.228 197.511C212.485 197.511 211.882 198.112 211.882 198.854C211.882 199.597 212.485 200.198 213.228 200.198Z" fill="#EE7203"/>
<path d="M180.081 195.551C177.013 207.5 176.836 216.074 178.187 233.391" stroke="white"/>
<path d="M223.17 201.699C220.835 218.074 220.41 224.441 221.276 230.552" stroke="white"/>
<path d="M222.223 235.283C230.747 241.432 242.904 249.692 261.525 247.581" stroke="#222830"/>
<path d="M187.657 153.924C168.717 160.546 163.176 210.685 164.929 214.942C166.682 219.199 169.242 221.994 172.978 224.875" stroke="#222830"/>
<path d="M167.769 220.146V231.025" stroke="#222830"/>
<path d="M222.697 235.282C217.895 237.898 215.382 239.901 208.492 240.012C201.601 240.122 171.084 230.079 155.932 229.606C140.779 229.133 124.68 242.377 122.312 247.107C119.945 251.837 128.942 249.945 136.991 241.904C113.462 264.605 119.636 268.49 136.044 253.567M138.885 250.891C137.909 251.842 136.961 252.734 136.044 253.567M136.044 253.567C126.101 266.5 132.256 267.919 143.147 258.932M145.627 252.609C137.556 269.407 147.882 266.027 156.879 255.621C215.408 298.696 272.417 262.097 275.73 249.472C279.043 236.847 280.465 218.727 277.624 201.699C274.783 184.67 257.049 157.958 224.117 149.195C214.27 161.743 195.233 165.75 187.183 153.925" stroke="#222830"/>
<path d="M138.885 233.864C125.223 230.237 116.452 229.925 104.318 234.81" stroke="#222830"/>
<path d="M232.168 127.438C233.415 124.395 234.994 123.762 237.377 123.654" stroke="white"/>
<path d="M206.124 116.085C211.333 114.193 215.796 115.419 222.223 120.342C213.907 123.096 208.018 123.18 206.124 116.085Z" stroke="#222830"/>
<path d="M195.232 112.303C193.556 115.387 191.261 116.415 185.289 116.087" stroke="#222830"/>
<path d="M200.441 113.246C200.441 113.246 199.182 117.601 197.126 119.395C195.443 120.864 191.917 121.76 191.917 121.76L194.285 126.49" stroke="#222830"/>
<path d="M194.285 134.534C198.13 135.343 199.538 134.179 201.862 131.696" stroke="#222830"/>
<path d="M228.851 128.856C225.068 144.801 210.384 154.871 198.546 153.452C188.406 152.236 183.394 141.627 182.447 134.532C181.193 125.143 182.93 118.472 188.602 110.882C204.644 113.927 214.369 114.06 232.639 112.301L231.692 118.923" stroke="#222830"/>
<path d="M231.694 117.978C231.694 117.978 239.27 116.086 240.691 119.397C242.111 122.708 240.644 127.525 237.85 130.749C234.786 134.285 228.379 131.695 228.379 131.695" stroke="#222830"/>
<path d="M243.058 109.262C231.694 115.884 174.408 115.989 176.293 101.221C176.433 100.127 178.766 98.4712 180.398 97.4369C181.292 96.8708 181.975 96.4909 181.975 96.4909C182.546 92.2746 183.182 88.4858 183.999 85.1387C187.322 71.5327 193.647 65.2246 210.859 67.1646C213.207 67.4351 215.415 67.7919 217.489 68.2392C237.169 72.4852 244.692 84.8958 243.058 109.262Z" fill="#EE7203"/>
<path d="M180.398 97.4369C178.766 98.4712 176.433 100.127 176.293 101.221C174.408 115.989 231.694 115.884 243.058 109.262C244.692 84.8958 237.169 72.4852 217.489 68.2392M180.398 97.4369C181.292 96.8708 181.975 96.4909 181.975 96.4909C182.546 92.2746 183.182 88.4858 183.999 85.1387M180.398 97.4369C188.644 103.612 196.219 104.176 209.912 105.005M210.859 67.1646C193.647 65.2246 187.322 71.5327 183.999 85.1387M210.859 67.1646C198.548 70.4756 199.969 81.3547 183.999 85.1387M210.859 67.1646C213.207 67.4351 215.415 67.7919 217.489 68.2392M217.489 68.2392C209.912 69.5296 203.676 75.3713 202.336 83.7197C199.969 93.6528 212.754 91.2878 211.807 103.113L232.641 107.37L234.062 98.3828L240.691 98.8558L240.217 107.843" stroke="white"/>
<ellipse cx="189.202" cy="114.593" rx="2.01809" ry="2.01576" fill="#222830"/>
<ellipse cx="209.088" cy="118.377" rx="2.01809" ry="2.01576" fill="#222830"/>
</svg>
