<svg width="240" height="188" viewBox="0 0 240 188" fill="none" xmlns="http://www.w3.org/2000/svg">
<path d="M48.0476 143.348C38.6867 129.306 27.4544 121.159 17.6079 108.187C7.88297 95.1191 -0.57758 77.3231 2.71074 62.2583C5.9818 47.3053 20.8802 35.1793 36.0277 29.7331C51.158 24.3988 66.4331 25.7282 82.9356 19.8043C99.438 13.8805 117.133 0.926988 133.068 1.44225C148.985 2.06934 163.125 16.277 166.25 33.3633C169.48 50.4657 161.591 70.4305 155.784 86.5948C149.977 102.759 146.148 115.107 140.843 128.715C135.642 142.339 128.878 157.096 117.246 168.81C105.614 180.525 89.0267 189.069 76.9971 183.318C64.9675 177.566 57.3912 157.502 48.0476 143.348Z" fill="#FAF352"/>
<path fill-rule="evenodd" clip-rule="evenodd" d="M192.514 31.4115C190.958 29.1022 187.554 29.116 186.017 31.4378L144.633 93.9413C142.913 96.5381 144.776 100.005 147.89 100.005H193.076C194.37 100.005 195.42 101.054 195.42 102.349C195.42 103.643 194.37 104.693 193.076 104.693H147.89C141.038 104.693 136.941 97.0666 140.724 91.3533L182.108 28.8498C185.49 23.7417 192.978 23.7113 196.402 28.7919L238.518 91.2955C242.365 97.0038 238.274 104.693 231.391 104.693H201.369C200.074 104.693 199.025 103.643 199.025 102.349C199.025 101.054 200.074 100.005 201.369 100.005H231.391C234.52 100.005 236.379 96.5097 234.631 93.9151L192.514 31.4115ZM192.942 40.6716C191.28 38.1123 187.534 38.1102 185.869 40.6675L177.394 53.6811C176.688 54.7659 176.994 56.2179 178.079 56.9245C179.164 57.6308 180.616 57.3242 181.322 56.2395L189.404 43.8298L219.601 90.3166H159.687L176.69 62.8913C177.372 61.7909 177.034 60.3461 175.933 59.6638C174.833 58.9819 173.388 59.3207 172.706 60.4211L155.259 88.5621C153.516 91.373 155.538 95.0046 158.845 95.0046H220.465C223.812 95.0046 225.827 91.2939 224.003 88.4871L192.942 40.6716ZM85.4692 75.4712C82.4487 75.4712 80 77.9199 80 80.9405V157.666C80 160.687 82.4487 163.135 85.4692 163.135H206.73C209.751 163.135 212.2 160.687 212.2 157.666V111.099C212.2 109.805 211.15 108.756 209.856 108.756C208.561 108.756 207.512 109.805 207.512 111.099V157.666C207.512 158.098 207.162 158.448 206.73 158.448H85.4692C85.0377 158.448 84.6879 158.098 84.6879 157.666V80.9405C84.6879 80.5089 85.0377 80.1591 85.4692 80.1591H141.256C142.55 80.1591 143.6 79.1097 143.6 77.8152C143.6 76.5207 142.55 75.4712 141.256 75.4712H85.4692ZM94.0638 121.725C94.0638 120.431 95.1132 119.381 96.4077 119.381H113.597C114.891 119.381 115.941 120.431 115.941 121.725C115.941 123.02 114.891 124.069 113.597 124.069H96.4077C95.1132 124.069 94.0638 123.02 94.0638 121.725ZM130.161 119.694C128.952 119.694 127.973 120.674 127.973 121.882C127.973 123.09 128.952 124.07 130.161 124.07H195.792C197 124.07 197.98 123.09 197.98 121.882C197.98 120.674 197 119.694 195.792 119.694H130.161ZM94.0638 137.04C94.0638 135.745 95.1132 134.696 96.4077 134.696H137.036C138.331 134.696 139.38 135.745 139.38 137.04C139.38 138.334 138.331 139.384 137.036 139.384H96.4077C95.1132 139.384 94.0638 138.334 94.0638 137.04ZM97.3453 87.5033C94.67 87.5033 92.5011 89.6719 92.5011 92.3475V105.161C92.5011 107.836 94.67 110.005 97.3453 110.005H120.472C123.148 110.005 125.317 107.836 125.317 105.161V92.3475C125.317 89.6719 123.148 87.5033 120.472 87.5033H109.846C108.552 87.5033 107.503 88.5527 107.503 89.8472C107.503 91.1417 108.552 92.1912 109.846 92.1912H120.472C120.559 92.1912 120.629 92.2612 120.629 92.3475V105.161C120.629 105.247 120.559 105.317 120.472 105.317H97.3453C97.259 105.317 97.1891 105.247 97.1891 105.161V92.3475C97.1891 92.2612 97.259 92.1912 97.3453 92.1912H102.033C103.328 92.1912 104.377 91.1417 104.377 89.8472C104.377 88.5527 103.328 87.5033 102.033 87.5033H97.3453ZM166.102 142.821C166.102 144.978 164.353 146.727 162.195 146.727C160.037 146.727 158.288 144.978 158.288 142.821C158.288 140.663 160.037 138.914 162.195 138.914C164.353 138.914 166.102 140.663 166.102 142.821ZM162.195 151.415C165.201 151.415 167.847 149.872 169.383 147.534C170.919 149.872 173.565 151.415 176.571 151.415C179.383 151.415 181.879 150.065 183.447 147.978C185.015 150.065 187.511 151.415 190.323 151.415C195.069 151.415 198.917 147.567 198.917 142.821C198.917 138.074 195.069 134.226 190.323 134.226C187.511 134.226 185.015 135.576 183.447 137.663C181.879 135.576 179.383 134.226 176.571 134.226C173.565 134.226 170.919 135.77 169.383 138.108C167.847 135.77 165.201 134.226 162.195 134.226C157.448 134.226 153.6 138.074 153.6 142.821C153.6 147.567 157.448 151.415 162.195 151.415ZM176.571 146.727C178.729 146.727 180.478 144.978 180.478 142.821C180.478 140.663 178.729 138.914 176.571 138.914C174.414 138.914 172.665 140.663 172.665 142.821C172.665 144.978 174.414 146.727 176.571 146.727ZM194.229 142.821C194.229 144.978 192.48 146.727 190.323 146.727C188.165 146.727 186.416 144.978 186.416 142.821C186.416 140.663 188.165 138.914 190.323 138.914C192.48 138.914 194.229 140.663 194.229 142.821ZM189.619 54.6879C190.914 54.6879 191.963 55.7374 191.963 57.032V72.5022C191.963 73.7967 190.914 74.8462 189.619 74.8462C188.325 74.8462 187.275 73.7967 187.275 72.5022V57.032C187.275 55.7374 188.325 54.6879 189.619 54.6879ZM191.924 79.8447C191.924 78.5502 190.875 77.5008 189.58 77.5008C188.286 77.5008 187.236 78.5502 187.236 79.8447V84.5352C187.236 85.8297 188.286 86.8791 189.58 86.8791C190.875 86.8791 191.924 85.8297 191.924 84.5352V79.8447Z" fill="#041224"/>
</svg>
