<svg width="11" height="11" viewBox="0 0 11 11" fill="none" xmlns="http://www.w3.org/2000/svg">
<path d="M10.8296 10.0403C10.8829 10.0918 10.9254 10.1534 10.9547 10.2215C10.9839 10.2896 10.9993 10.3628 11 10.437C11.0006 10.5111 10.9865 10.5846 10.9584 10.6532C10.9304 10.7218 10.8889 10.7841 10.8365 10.8365C10.7841 10.8889 10.7218 10.9304 10.6532 10.9584C10.5846 10.9865 10.5111 11.0006 10.437 11C10.3628 10.9993 10.2896 10.9839 10.2215 10.9547C10.1534 10.9254 10.0918 10.8829 10.0403 10.8296L5.5 6.28928L0.959688 10.8296C0.908197 10.8829 0.846604 10.9254 0.778502 10.9547C0.710401 10.9839 0.637156 10.9993 0.56304 11C0.488924 11.0006 0.415421 10.9865 0.346822 10.9584C0.278223 10.9304 0.2159 10.8889 0.16349 10.8365C0.11108 10.7841 0.0696328 10.7218 0.0415666 10.6532C0.0135003 10.5846 -0.000622973 10.5111 2.10752e-05 10.437C0.000665123 10.3628 0.0160635 10.2896 0.0453176 10.2215C0.0745718 10.1534 0.117096 10.0918 0.170409 10.0403L4.71072 5.5L0.170409 0.959688C0.06873 0.854413 0.0124677 0.713413 0.0137395 0.567057C0.0150113 0.420702 0.0737154 0.280701 0.177208 0.177208C0.280701 0.0737154 0.420702 0.0150113 0.567057 0.0137395C0.713413 0.0124677 0.854413 0.06873 0.959688 0.170409L5.5 4.71072L10.0403 0.170409C10.0918 0.117096 10.1534 0.0745718 10.2215 0.0453176C10.2896 0.0160635 10.3628 0.000665123 10.437 2.10752e-05C10.5111 -0.000622973 10.5846 0.0135003 10.6532 0.0415666C10.7218 0.0696328 10.7841 0.11108 10.8365 0.16349C10.8889 0.2159 10.9304 0.278223 10.9584 0.346822C10.9865 0.415421 11.0006 0.488924 11 0.56304C10.9993 0.637156 10.9839 0.710401 10.9547 0.778502C10.9254 0.846604 10.8829 0.908197 10.8296 0.959688L6.28928 5.5L10.8296 10.0403Z" fill="#6B7686"/>
</svg>
