<svg width="17" height="17" viewBox="0 0 17 17" fill="none" xmlns="http://www.w3.org/2000/svg">
<path d="M13.2812 9.5625C11.2625 9.5625 9.5625 11.2625 9.5625 13.2812C9.5625 15.3 11.2625 17 13.2812 17C15.3 17 17 15.3 17 13.2812C17 11.2625 15.3 9.5625 13.2812 9.5625ZM13.2812 14.875C12.4313 14.875 11.6875 14.1312 11.6875 13.2812C11.6875 12.4313 12.4313 11.6875 13.2812 11.6875C14.1312 11.6875 14.875 12.4313 14.875 13.2812C14.875 14.1312 14.1312 14.875 13.2812 14.875Z" fill="#EE7203"/>
<path d="M15.6188 2.86875L5.20625 13.2812L3.71875 14.7687L2.86875 15.6188C2.44375 16.0438 1.80625 16.0438 1.38125 15.6188C0.95625 15.1938 0.95625 14.5562 1.38125 14.1312L2.23125 13.2812L3.71875 11.7938L14.1312 1.38125C14.5562 0.95625 15.1938 0.95625 15.6188 1.38125C16.0438 1.80625 16.0438 2.44375 15.6188 2.86875Z" fill="#EE7203"/>
<path d="M3.71875 0C1.7 0 0 1.7 0 3.71875C0 5.7375 1.7 7.4375 3.71875 7.4375C5.7375 7.4375 7.4375 5.7375 7.4375 3.71875C7.4375 1.7 5.7375 0 3.71875 0ZM3.71875 5.3125C2.86875 5.3125 2.125 4.56875 2.125 3.71875C2.125 2.86875 2.86875 2.125 3.71875 2.125C4.56875 2.125 5.3125 2.86875 5.3125 3.71875C5.3125 4.56875 4.56875 5.3125 3.71875 5.3125Z" fill="#EE7203"/>
</svg>
