<svg width="17" height="17" viewBox="0 0 17 17" fill="none" xmlns="http://www.w3.org/2000/svg">
<path d="M8.5 0C3.81512 0 0 3.81512 0 8.5C0 13.1849 3.81512 17 8.5 17C13.1849 17 17 13.1849 17 8.5C17 3.81512 13.1849 0 8.5 0ZM8.5 15.814C4.46744 15.814 1.18605 12.5326 1.18605 8.5C1.18605 4.46744 4.46744 1.18605 8.5 1.18605C12.5326 1.18605 15.814 4.46744 15.814 8.5C15.814 12.5326 12.5326 15.814 8.5 15.814Z" fill="#EC6608"/>
<path d="M8.49927 6.72083C8.16323 6.72083 7.90625 6.9778 7.90625 7.31385V11.8604C7.90625 12.1964 8.16323 12.4534 8.49927 12.4534C8.83532 12.4534 9.0923 12.1964 9.0923 11.8604V7.31385C9.0923 6.9778 8.83532 6.72083 8.49927 6.72083Z" fill="#EC6608"/>
<path d="M8.49968 4.54663C8.0648 4.54663 7.70898 4.90244 7.70898 5.33733C7.70898 5.77221 8.0648 6.12803 8.49968 6.12803C8.93457 6.12803 9.29038 5.77221 9.29038 5.33733C9.29038 4.90244 8.93457 4.54663 8.49968 4.54663Z" fill="#EC6608"/>
</svg>
