<svg width="18" height="20" viewBox="0 0 18 20" fill="none" xmlns="http://www.w3.org/2000/svg">
<path fill-rule="evenodd" clip-rule="evenodd" d="M0.988019 13.8819C-0.617597 9.47054 1.72772 4.56733 6.22634 2.92996C8.64691 2.04895 11.1932 2.29956 13.2822 3.40125L12.7707 1.99582C12.6268 1.60061 12.8371 1.16147 13.2398 1.01487L13.5303 0.909149C13.9333 0.76246 14.3765 0.964052 14.5203 1.35902L15.969 5.33937C15.97 5.34221 15.9716 5.34432 15.9726 5.34717L16.0763 5.63201C16.1483 5.82973 16.1314 6.03881 16.0464 6.21627C15.9614 6.39398 15.8083 6.54055 15.6067 6.61393L15.3162 6.71966C15.3138 6.72054 15.3113 6.72062 15.3092 6.72141L11.2487 8.19931C10.8456 8.346 10.4025 8.14441 10.2587 7.74944L10.1551 7.4646C10.0112 7.06939 10.2214 6.63025 10.6242 6.48365L13.1871 5.55083C11.4244 4.26857 9.05608 3.85775 6.82432 4.67004C3.28908 5.95676 1.44602 9.81026 2.70779 13.277C3.96956 16.7436 7.85841 18.5109 11.3936 17.2242C14.1507 16.2207 15.8703 13.6556 15.8991 10.9307C15.9207 10.942 15.9444 10.9497 15.9668 10.9601C16.033 10.7527 16.1907 10.5751 16.4136 10.494L16.6864 10.3947C17.065 10.2569 17.4815 10.4462 17.6166 10.8174L17.7103 11.075C17.7308 11.0716 17.7515 11.0691 17.7719 11.0657C17.7692 11.1524 17.7595 11.2385 17.7542 11.3249C17.7543 11.3576 17.752 11.3896 17.7474 11.4217C17.5071 14.6889 15.3707 17.6927 12.0404 18.9048C7.54206 20.5421 2.59355 18.2931 0.988019 13.8819Z" fill="#0E3365"/>
</svg>
