<svg width="13" height="15" viewBox="0 0 13 15" fill="none" xmlns="http://www.w3.org/2000/svg">
<path d="M8.10333 9.64286C10.985 9.64286 13 7.65208 13 4.79032C13 1.92857 10.985 0 8.10333 0H2.57292C2.34857 0 2.16667 0.1799 2.16667 0.401786V7.32027H0.40625C0.181898 7.32027 0 7.50017 0 7.72205V9.24107C0 9.46296 0.181898 9.64286 0.40625 9.64286H2.16667V10.7143H0.40625C0.181898 10.7143 0 10.8942 0 11.1161V12.4554C0 12.6772 0.181898 12.8571 0.40625 12.8571H2.16667V14.5982C2.16667 14.8201 2.34857 15 2.57292 15H4.55542C4.77977 15 4.96167 14.8201 4.96167 14.5982V12.8571H10.4271C10.6514 12.8571 10.8333 12.6772 10.8333 12.4554V11.1161C10.8333 10.8942 10.6514 10.7143 10.4271 10.7143H4.96167V9.64286H8.10333ZM4.96167 2.30183H7.62667C9.20833 2.30183 10.1617 3.2765 10.1617 4.79032C10.1617 6.32488 9.20833 7.32027 7.58333 7.32027H4.96167V2.30183Z" fill="#041224"/>
</svg>
