<svg width="15" height="16" viewBox="0 0 15 16" fill="none" xmlns="http://www.w3.org/2000/svg">
<path d="M15 7.97688C15 8.66954 14.895 9.33628 14.7102 9.9711H13.2777C13.5061 9.34625 13.6364 8.67685 13.6364 7.97688C13.6364 4.67844 10.8839 1.99422 7.5 1.99422C6.33682 1.99422 5.25273 2.31596 4.32682 2.86769L5.59295 4.65318H0.824318L2.29159 0L3.55295 1.77685C4.70045 1.07954 6.04705 0.66474 7.5 0.66474C11.6414 0.66474 15 3.93859 15 7.97688ZM10.6677 13.0901C9.7425 13.6391 8.66045 13.9595 7.5 13.9595C4.11614 13.9595 1.36364 11.2753 1.36364 7.97688C1.36364 7.27691 1.49386 6.60752 1.72159 5.98266H0.289773C0.105 6.61749 0 7.28422 0 7.97688C0 12.0152 3.35795 15.289 7.5 15.289C8.95023 15.289 10.2948 14.8762 11.4409 14.1809L12.7043 15.9538L14.1716 11.3079H9.40296L10.6677 13.0901ZM10.9091 6.25454L9.94023 5.31792L6.45955 8.76327L5.04273 7.31214L4.09091 8.26605L6.47727 10.6358L10.9091 6.25454Z" fill="#096B78"/>
</svg>
