<svg width="37" height="41" viewBox="0 0 37 41" fill="none" xmlns="http://www.w3.org/2000/svg">
<path d="M24.1923 7.6878C26.5502 7.6878 28.4615 5.96685 28.4615 3.8439C28.4615 1.72095 26.5502 0 24.1923 0C21.8344 0 19.9231 1.72095 19.9231 3.8439C19.9231 5.96685 21.8344 7.6878 24.1923 7.6878ZM10.1119 25.4234L8.7955 28.1878H2.84615C1.27454 28.1878 0 29.3354 0 30.7504C0 32.1654 1.27454 33.313 2.84615 33.313H9.73474C11.4469 33.313 12.9882 32.3969 13.658 30.9834L14.4398 29.3402L13.4908 28.8357C11.9503 28.0164 10.8172 26.804 10.1119 25.4234ZM34.1538 17.9374H30.2377L27.9199 13.6731C26.8081 11.627 24.7669 10.1311 22.425 9.59373L16.103 7.90082C13.5859 7.35626 10.9648 7.85677 8.91291 9.27341L5.38457 11.7087C4.13671 12.5696 3.90012 14.1776 4.85803 15.3011C5.81594 16.4247 7.60101 16.6353 8.84798 15.7752L12.3781 13.3399C13.0603 12.8683 13.9293 12.6993 14.6257 12.8482L15.9331 13.1982L12.6013 20.1965C11.4789 22.5573 12.4848 25.3225 14.9405 26.6278L22.4988 30.6455L20.0556 37.671C19.586 39.0212 20.4212 40.4587 21.9207 40.8815C22.2044 40.9616 22.4908 41 22.7728 41C23.9833 41 25.1057 40.2977 25.4873 39.2022L28.3014 31.1092C28.8271 29.4459 28.0444 27.6593 26.3767 26.7535L20.9299 23.8594L23.7147 17.5906L25.5175 20.9084C26.2291 22.2169 27.734 23.0618 29.3519 23.0618H34.1538C35.7255 23.0618 37 21.9142 37 20.4992C37 19.0842 35.7255 17.9374 34.1538 17.9374Z" fill="#F86817"/>
</svg>
