<svg width="263" height="203" viewBox="0 0 263 203" fill="none" xmlns="http://www.w3.org/2000/svg">
<path d="M136.457 36.3725C152.899 51.5972 172.489 72.9273 170.619 91.9232C168.557 111.055 144.882 127.819 121.206 145.301C97.3383 162.919 73.2769 181.393 49.932 180.25C26.5871 179.108 3.92005 158.52 2.25664 135.13C0.593225 111.739 19.8947 85.7164 29.6542 62.5708C39.4136 39.4252 39.5159 18.951 48.6045 9.49848C57.6932 0.0459706 75.807 1.44415 91.2621 6.73629C106.871 12.0632 120.014 21.1478 136.457 36.3725Z" fill="#FB5151"/>
<path d="M134.797 114.267C134.797 113.111 135.266 112.002 136.102 111.184C136.937 110.365 138.071 109.904 139.254 109.9V93.7801C139.254 93.015 138.942 92.2813 138.388 91.7403C137.835 91.1993 137.084 90.8951 136.301 90.8945H107.284C106.499 90.8951 105.746 91.2001 105.19 91.7427C104.635 92.2853 104.323 93.021 104.322 93.7883V134.945C104.322 135.712 104.634 136.447 105.189 136.99C105.744 137.532 106.497 137.837 107.282 137.837H136.305C137.087 137.837 137.837 137.533 138.39 136.993C138.943 136.453 139.254 135.721 139.254 134.957V118.635C138.071 118.631 136.937 118.17 136.102 117.351C135.266 116.533 134.797 115.424 134.797 114.267Z" stroke="#041224" stroke-width="2"/>
<path d="M127.031 103.92H125.632V99.7308C127.638 99.6859 128.5 99.7779 128.5 101.803C128.5 102.849 128.22 103.92 127.036 103.92H127.031ZM130.535 105.308V105.263C132.259 104.49 132.702 103.191 132.702 101.38C132.702 97.9897 131.029 96.6797 127.669 96.6797H121.679V113.703H125.776V106.992H127.128C128.084 107.061 128.41 107.744 128.525 108.79C128.554 109.056 128.554 111.206 128.552 112.585C128.552 112.635 128.558 112.684 128.571 112.732C128.608 113.002 128.746 113.248 128.958 113.424C129.17 113.6 129.441 113.693 129.719 113.685H132.568V107.515C132.568 106.303 131.671 105.557 130.529 105.308" fill="#041224"/>
<path d="M120.152 111.417C120.151 111.113 120.027 110.822 119.806 110.607C119.585 110.393 119.286 110.272 118.975 110.273H113.348V97.7209C113.348 97.5756 113.319 97.4316 113.262 97.2972C113.206 97.1628 113.122 97.0407 113.017 96.9378C112.912 96.8349 112.787 96.7533 112.65 96.6976C112.512 96.6419 112.365 96.6133 112.216 96.6133H109.248V113.684H120.154V111.417H120.152Z" fill="#041224"/>
<path d="M114.747 122.255H113.35V118.073C115.354 118.026 116.213 118.116 116.213 120.143C116.213 121.192 115.935 122.261 114.749 122.261L114.747 122.255ZM118.096 123.646V123.591C119.824 122.823 120.265 121.525 120.265 119.708C120.265 116.318 118.592 115.008 115.235 115.008H109.248V132.082H113.35V125.338H114.701C115.655 125.406 115.981 126.09 116.098 127.137C116.126 127.4 116.126 129.55 116.124 130.932C116.124 130.981 116.131 131.03 116.145 131.077C116.179 131.351 116.314 131.604 116.525 131.789C116.736 131.973 117.008 132.077 117.291 132.08H120.129V125.849C120.129 124.572 119.242 123.891 118.102 123.64" fill="#041224"/>
<path d="M129.678 114.996C129.379 114.999 129.093 115.117 128.883 115.324C128.673 115.532 128.556 115.812 128.556 116.104C128.556 116.126 128.556 116.147 128.556 116.169V127.763C128.556 128.49 128.232 129.397 127.167 129.397C126.009 129.397 125.753 128.693 125.753 127.871V116.102C125.752 115.81 125.634 115.531 125.423 115.324C125.212 115.117 124.927 115 124.628 114.998H121.679V127.354C121.679 130.861 123.693 132.475 127.146 132.475C131.313 132.475 132.635 130.246 132.635 127.354V114.996H129.678Z" fill="#041224"/>
<path d="M139.133 116.625C140.514 116.625 141.633 115.506 141.633 114.125C141.633 112.744 140.514 111.625 139.133 111.625C137.753 111.625 136.633 112.744 136.633 114.125C136.633 115.506 137.753 116.625 139.133 116.625Z" fill="#041224"/>
<path d="M198.815 152.297C195.813 152.297 186.81 152.297 186.81 152.297V73.3307C186.81 67.4643 184.53 65.2617 178.663 65.2617H65.9035C60.0372 65.2617 59.4724 67.4643 59.4724 73.3307V152.297H44.8951C43.6089 152.297 43.6089 152.529 43.6089 154.869C43.6089 163.873 52.1838 172.019 59.4724 172.019H184.328C190.668 171.603 195.487 167.957 197.891 165.159C200.101 162.587 201.816 157.133 201.816 154.012C201.816 152.297 201.816 152.297 198.815 152.297ZM63.3311 73.3307C63.3311 70.4908 63.0636 68.6917 65.9035 68.6917H179.95C182.79 68.6917 182.951 70.4907 182.951 73.3307V75.9803H63.3311V73.3307ZM63.3311 79.4103H182.951V152.297H63.3311V79.4103ZM136.646 155.989V159.586H105.777V155.989H136.646ZM194.527 163.016C191.976 165.608 187.99 168.161 184.328 168.161H60.7586C54.1314 168.161 48.3135 162.246 47.0388 155.989H101.999V160.443C101.999 161.966 103.416 163.016 104.919 163.016H137.504C139.027 163.016 140.407 161.946 140.407 160.443V155.989H197.891C197.395 158.603 196.482 161.08 194.527 163.016Z" fill="#041224"/>
<path d="M120.857 69.8828C119.906 69.8828 119.142 70.6467 119.142 71.5978C119.142 72.5489 119.906 73.3128 120.857 73.3128C121.808 73.3128 122.572 72.5489 122.572 71.5978C122.572 70.6467 121.808 69.8828 120.857 69.8828Z" fill="#041224"/>
<path fill-rule="evenodd" clip-rule="evenodd" d="M231.462 131.662C231.654 131.854 231.846 131.95 232.134 131.95L232.133 131.95C232.325 131.95 232.613 131.854 232.708 131.758C233.091 131.375 233.091 130.798 232.708 130.415C232.708 130.406 232.672 130.359 232.607 130.276C231.965 129.449 228.513 125.001 229.733 117.94C230.093 116.082 230.827 114.374 231.702 112.768C232.101 112.896 232.533 112.958 232.996 112.941C233.572 112.941 233.956 112.461 233.956 111.981C233.956 111.405 233.476 110.926 232.996 111.021C232.903 111.027 232.811 111.027 232.722 111.02C232.94 110.668 233.16 110.32 233.38 109.976C234.532 108.157 235.607 106.415 236.219 104.556C236.612 104.869 236.951 105.27 237.218 105.744C238.274 107.663 238.177 110.926 234.627 114.38C229.346 119.392 232.498 126.659 232.945 127.691C232.978 127.765 232.996 127.807 232.996 127.813C233.187 128.101 233.476 128.293 233.859 128.293L233.859 128.293C234.051 128.293 234.147 128.293 234.339 128.39C234.818 128.198 234.915 127.622 234.723 127.142C234.717 127.124 234.698 127.081 234.669 127.015C234.244 126.044 231.657 120.138 235.97 115.915C240.288 111.693 240.288 107.567 238.849 104.976C238.288 104.015 237.527 103.255 236.648 102.743C236.722 102.225 236.755 101.695 236.739 101.148C236.451 95.0072 230.79 92.9919 230.502 92.8962C230.023 92.7041 229.543 92.9919 229.35 93.4718C229.158 93.951 229.447 94.4309 229.926 94.5273C229.935 94.5365 229.986 94.5594 230.07 94.5976C230.874 94.9625 234.742 96.7189 234.916 101.148C234.927 101.467 234.917 101.78 234.887 102.09C234.122 101.95 233.319 101.978 232.516 102.194C228.966 103.057 228.102 106.032 228.39 108.335C228.603 109.614 229.201 110.922 230.134 111.816C229.192 113.549 228.37 115.438 228.007 117.556C226.472 126.288 231.269 131.47 231.462 131.662ZM231.131 110.088C230.686 109.514 230.404 108.757 230.309 108.047C230.021 106.416 230.693 104.497 232.996 103.921C233.52 103.776 234.035 103.745 234.522 103.815C233.994 105.459 232.996 107.066 231.875 108.873L231.845 108.921L231.798 108.997C231.578 109.355 231.355 109.718 231.131 110.088Z" fill="#041224"/>
<path d="M262.703 146.088C261.931 141.885 258.072 138.883 253.44 138.454V136.567C253.44 135.623 252.668 134.852 251.724 134.852H213.127C212.183 134.852 211.412 135.623 211.412 136.567V151.063C211.412 162.642 220.847 172.077 232.426 172.077C241.604 172.077 249.495 166.158 252.325 157.838C252.754 157.838 253.183 157.753 253.526 157.667C259.615 156.552 263.733 151.32 262.703 146.088L262.703 146.088ZM250.009 151.062C250.009 160.755 242.118 168.646 232.426 168.646C222.734 168.646 214.842 160.755 214.842 151.062V138.282H250.009V151.062ZM253.182 154.236C253.354 153.207 253.44 152.092 253.44 151.062V141.884C256.442 142.227 258.844 144.114 259.358 146.688C259.959 150.033 257.214 153.378 253.183 154.236L253.182 154.236Z" fill="#041224"/>
</svg>
