<svg width="45" height="45" viewBox="0 0 45 45" fill="none" xmlns="http://www.w3.org/2000/svg">
<g clip-path="url(#clip0_908_2)">
<path d="M22.4996 21.1115C20.0267 15.9352 12 17.4177 12 24.0836C12 30.6914 20.6655 34.0253 22.4996 38C24.3336 34.0253 33 30.6914 33 24.0836C33 17.424 24.9759 15.9289 22.4996 21.1115Z" fill="#F16161"/>
<path d="M22.5332 4.69066e-05C22.4947 -0.000296542 22.4561 0.00124622 22.4178 0.00466955C22.187 0.0191503 21.9655 0.10112 21.7808 0.240425L15.8537 4.68741H4.80289V5.87081V12.9804L0.865391 15.9343C0.703241 15.9794 0.552585 16.0587 0.423503 16.1669C0.294422 16.275 0.189892 16.4095 0.11691 16.5614C0.043927 16.7132 0.00417469 16.879 0.000311448 17.0474C-0.00355179 17.2159 0.0285635 17.3833 0.094509 17.5384C0.0808145 17.6146 0.0746303 17.692 0.0760448 17.7695V43.7257C0.0730026 43.7858 0.0745456 43.846 0.0806608 43.9059C0.088329 43.9843 0.103793 44.0618 0.126821 44.1371C0.138954 44.1732 0.152818 44.2086 0.168366 44.2434V44.248C0.183655 44.2827 0.2006 44.3167 0.219143 44.3497V44.3543C0.314047 44.527 0.450502 44.6732 0.616124 44.7796H0.62074C0.652068 44.8012 0.684418 44.8213 0.717677 44.8397H0.722293C0.826959 44.893 0.938975 44.9304 1.05465 44.9507H1.05927C1.09595 44.957 1.13292 44.9617 1.17005 44.9645H1.17467C1.17774 44.9645 1.18082 44.9645 1.1839 44.9645C1.20846 44.9668 1.23309 44.9684 1.25776 44.9691C1.26853 44.9693 1.2793 44.9693 1.29007 44.9691H43.5501C43.7409 45.0136 43.9397 45.01 44.1287 44.9584C44.3177 44.9069 44.491 44.8091 44.6329 44.6738C44.7748 44.5386 44.8809 44.3702 44.9417 44.1837C45.0025 43.9972 45.016 43.7985 44.9811 43.6055V17.7695C44.9834 17.6061 44.952 17.444 44.8887 17.2934C44.9309 17.0527 44.8976 16.8048 44.7935 16.5838C44.6893 16.3628 44.5194 16.1795 44.3071 16.0591L40.2542 13.022V4.68741H29.1341L23.1933 0.235802C23.0021 0.0921894 22.7719 0.00998947 22.5332 4.69066e-05ZM22.4916 2.66269L25.192 4.68741H19.7958L22.4916 2.66269ZM7.16631 7.05421H37.8908V11.2469V14.2054V19.3458L33.2517 22.2442C32.3587 19.642 29.9164 17.7418 27.0107 17.7418C25.2302 17.7418 23.7321 18.5797 22.5378 19.7203C21.344 18.5785 19.8444 17.7418 18.0648 17.7418V17.751C15.1434 17.751 12.6679 19.6683 11.7778 22.2951L7.16631 19.4152V14.1638V11.2053V7.05421ZM14.2566 9.39326V11.908H30.7636V9.39326H14.2566ZM11.8932 14.2008V16.7155H33.164V14.2008H11.8932ZM4.80289 15.9389V17.9452L3.34421 17.0345L4.80289 15.9389ZM40.2542 15.9759L41.6298 17.0068L40.7297 17.5707L40.2542 17.8666V15.9759ZM42.6176 19.1748V41.5946L30.2881 33.3432C30.0917 33.206 29.8583 33.1319 29.6188 33.1306V33.1352C29.3634 33.1342 29.1145 33.2162 28.9095 33.3687C28.7045 33.5213 28.5544 33.7363 28.4816 33.9815C28.4088 34.2267 28.4173 34.4889 28.5058 34.7288C28.5943 34.9688 28.7581 35.1735 28.9726 35.3124L39.8757 42.6024H5.15833L16.0753 35.3124C16.2924 35.1721 16.4575 34.9644 16.5455 34.7212C16.6335 34.4779 16.6395 34.2125 16.5625 33.9655C16.4856 33.7185 16.3299 33.5036 16.1193 33.3536C15.9088 33.2037 15.655 33.1269 15.3967 33.1352C15.1704 33.1424 14.9509 33.2146 14.7643 33.3432L2.43947 41.5761V19.2534L4.80289 20.728L11.4315 24.8653C11.5689 27.8537 13.1861 30.2413 15.1752 32.1598C17.2736 34.1839 19.8106 35.8166 21.8038 37.4019C22.0177 37.5695 22.2827 37.6583 22.5542 37.6532C22.8258 37.6482 23.0873 37.5496 23.2948 37.3741C25.3722 35.6497 27.8132 33.7748 29.8219 31.679C31.7352 29.6826 33.2985 27.4365 33.584 24.8329L40.2542 20.6587V20.654L42.6176 19.1748ZM18.0648 20.0993V20.1178C19.5317 20.1178 20.7957 20.8385 21.573 21.9437C21.6822 22.0983 21.8268 22.2243 21.9947 22.3113C22.1625 22.3983 22.3488 22.4437 22.5378 22.4437C22.7268 22.4437 22.913 22.3983 23.0809 22.3113C23.2488 22.2243 23.3934 22.0983 23.5025 21.9437C24.281 20.8467 25.5585 20.1132 27.0107 20.1132C29.3864 20.1132 31.2479 22.0031 31.2621 24.3614C31.1351 26.2413 29.933 28.1587 28.1186 30.0519C26.4971 31.7439 24.4323 33.3584 22.5055 34.938C20.5704 33.4616 18.4541 32.036 16.8139 30.454C14.9518 28.6579 13.743 26.7895 13.7673 24.3984C13.7674 24.3891 13.7674 24.3799 13.7673 24.3706C13.7673 22.0102 15.68 20.0993 18.0648 20.0993Z" fill="#4A4E54"/>
</g>
<defs>
<clipPath id="clip0_908_2">
<rect width="45" height="45" fill="white"/>
</clipPath>
</defs>
</svg>
