<svg width="241" height="188" viewBox="0 0 241 188" fill="none" xmlns="http://www.w3.org/2000/svg">
<path d="M149.87 5.02394C170.314 16.2883 177.178 47.8564 172.552 75.1134C167.926 102.231 151.512 125.177 131.218 142.143C110.774 159.248 86.1524 170.513 65.112 167.314C43.9223 164.255 26.314 146.593 14.3762 129.488C2.58759 112.383 -3.53054 95.9733 2.13992 84.7089C7.66117 73.4446 24.971 67.3256 36.9088 56.2003C48.6974 44.936 55.2632 28.5261 75.4083 15.732C95.5534 2.93795 129.427 -6.10137 149.87 5.02394Z" fill="#4FB46F"/>
<path d="M159.273 117.638C159.199 117.638 159.126 117.635 159.056 117.635C134.25 117.448 122.78 85.6175 122.561 63.076C122.545 61.5772 123.753 60.351 125.258 60.3367C125.264 60.3351 125.274 60.3351 125.283 60.3351C126.775 60.3351 127.993 61.5329 128.006 63.0221C128.165 78.9951 135.971 112.036 159.094 112.21C159.155 112.21 159.218 112.21 159.276 112.21C182.301 112.21 190.078 79.1044 190.237 63.0221C190.25 61.5329 191.468 60.3351 192.96 60.3351C192.969 60.3351 192.979 60.3351 192.985 60.3367C194.489 60.351 195.698 61.5772 195.682 63.076C195.46 85.7759 184.012 117.638 159.273 117.638Z" fill="#041224"/>
<path d="M226.843 187.997C225.338 187.997 224.12 186.783 224.12 185.284C224.12 166.688 219.378 149.891 211.114 139.207C207.456 134.46 202.001 133.722 195.688 132.869C189.543 132.039 183.191 131.18 178.146 126.355C173.353 121.7 173.839 114.051 174.266 107.302C174.361 105.806 175.668 104.672 177.157 104.764C178.658 104.859 179.797 106.148 179.705 107.644C179.259 114.618 179.161 119.761 181.934 122.454C185.684 126.041 190.898 126.748 196.419 127.492C202.978 128.379 210.411 129.381 215.43 135.899C224.413 147.508 229.566 165.512 229.566 185.284C229.566 186.783 228.347 187.997 226.843 187.997Z" fill="#041224"/>
<path d="M91.3985 187.997C89.894 187.997 88.6758 186.783 88.6758 185.284C88.6758 165.515 93.8285 147.515 102.814 135.892C107.773 129.381 115.222 128.376 121.797 127.492C127.331 126.744 132.56 126.041 136.323 122.438C139.224 119.691 138.861 114.022 138.444 107.46C138.352 105.965 139.491 104.675 140.992 104.58C142.481 104.504 143.788 105.622 143.883 107.118C144.364 114.707 144.819 121.877 140.086 126.361C135.051 131.18 128.683 132.039 122.528 132.869C116.205 133.722 110.747 134.457 107.14 139.191C98.8636 149.894 94.1212 166.691 94.1212 185.284C94.1212 186.783 92.903 187.997 91.3985 187.997Z" fill="#041224"/>
<path d="M226.843 187.996H91.3985C89.894 187.996 88.6758 186.782 88.6758 185.284C88.6758 183.785 89.894 182.572 91.3985 182.572H226.843C228.347 182.572 229.566 183.785 229.566 185.284C229.566 186.782 228.347 187.996 226.843 187.996Z" fill="#041224"/>
<path d="M198.682 188C197.506 188 196.421 187.233 196.071 186.054L186.306 153.139H159.076C157.572 153.139 156.354 151.925 156.354 150.427C156.354 148.928 157.572 147.714 159.076 147.714H188.342C189.547 147.714 190.613 148.503 190.953 149.657L201.294 184.514C201.72 185.953 200.896 187.461 199.455 187.886C199.198 187.962 198.937 188 198.682 188Z" fill="#041224"/>
<path d="M119.562 188C119.307 188 119.046 187.962 118.789 187.886C117.348 187.461 116.524 185.953 116.95 184.514L127.291 149.657C127.631 148.503 128.697 147.714 129.902 147.714H159.076C160.58 147.714 161.798 148.928 161.798 150.427C161.798 151.925 160.58 153.139 159.076 153.139H131.938L122.173 186.054C121.823 187.233 120.738 187.997 119.562 188Z" fill="#041224"/>
<path d="M159.087 72.4075C147.188 72.4075 135.302 70.1229 124.24 65.5554C122.85 64.9818 122.191 63.3944 122.767 62.0097C123.346 60.6234 124.946 59.977 126.326 60.5426C147.122 69.1296 171.028 69.1311 191.919 60.541C193.309 59.9691 194.899 60.6266 195.478 62.0145C196.051 63.3991 195.389 64.985 193.999 65.557C182.892 70.1229 170.983 72.4075 159.087 72.4075Z" fill="#041224"/>
<path d="M192.956 65.7629C192.514 65.7629 192.065 65.6552 191.652 65.4286C185.259 61.94 177.867 59.7267 169.676 58.849C168.181 58.689 167.1 57.3503 167.262 55.861C167.421 54.3702 168.719 53.2976 170.262 53.4529C179.168 54.4082 187.243 56.8354 194.266 60.6694C195.586 61.3902 196.07 63.0379 195.348 64.3529C194.852 65.2528 193.92 65.7629 192.956 65.7629Z" fill="#041224"/>
<path d="M125.287 65.7629C124.324 65.7629 123.392 65.2528 122.896 64.3529C122.174 63.0379 122.657 61.3903 123.977 60.6694C131 56.8354 139.076 54.4082 147.982 53.4529C149.505 53.3214 150.822 54.3718 150.981 55.861C151.143 57.3503 150.062 58.689 148.567 58.849C140.377 59.7267 132.985 61.94 126.592 65.4286C126.178 65.6552 125.73 65.7629 125.287 65.7629Z" fill="#041224"/>
<path d="M192.959 65.763C191.455 65.763 190.237 64.5478 190.237 63.049V46.3093C190.237 38.5763 183.92 32.285 176.156 32.285H142.087C134.323 32.285 128.006 38.5763 128.006 46.3093V63.049C128.006 64.5478 126.788 65.763 125.283 65.763C123.779 65.763 122.561 64.5478 122.561 63.049V46.3093C122.561 35.5835 131.32 26.8572 142.087 26.8572H176.156C186.922 26.8572 195.682 35.5835 195.682 46.3093V63.049C195.682 64.5478 194.464 65.763 192.959 65.763Z" fill="#041224"/>
<path d="M205.514 187.997C204.009 187.997 202.791 186.783 202.791 185.285V170.291C202.791 168.792 204.009 167.578 205.514 167.578C207.018 167.578 208.236 168.792 208.236 170.291V185.285C208.236 186.783 207.018 187.997 205.514 187.997Z" fill="#041224"/>
<path d="M112.729 187.997C111.224 187.997 110.006 186.783 110.006 185.285V170.291C110.006 168.792 111.224 167.578 112.729 167.578C114.233 167.578 115.451 168.792 115.451 170.291V185.285C115.451 186.783 114.233 187.997 112.729 187.997Z" fill="#041224"/>
<path d="M95.7632 107.923C94.2937 107.923 92.821 107.736 91.3674 107.365C86.8285 106.199 83.0244 103.325 80.6484 99.2757C77.5504 94.0649 77.385 87.715 80.2158 82.3062C80.2254 82.2841 80.2381 82.2635 80.2476 82.2413C81.6344 79.7539 85.6548 79.7539 87.0416 82.2413L91.9876 90.5589C94.1855 90.0741 96.2021 88.9033 97.7193 87.2271L92.7478 78.873C92.0226 77.5723 92.0385 76.0561 92.751 74.8505C93.4603 73.6527 94.7167 72.9366 96.1099 72.9366C102.36 73.1664 107.856 76.3793 110.916 81.5347C115.795 89.8475 113.003 100.586 104.698 105.486C101.931 107.099 98.8612 107.923 95.7632 107.923ZM83.9659 87.7166C83.2757 90.6904 83.7401 93.8257 85.3431 96.5238C86.9876 99.3296 89.6085 101.307 92.7256 102.108C95.849 102.912 99.1188 102.449 101.937 100.808C107.659 97.4332 109.587 90.0171 106.221 84.2866C104.631 81.6092 102.067 79.6874 99.0616 78.8398L103.346 86.0389C103.877 86.9308 103.849 88.0478 103.276 88.9144C100.48 93.1492 95.795 95.8727 90.7472 96.2006C89.6721 96.2529 88.7465 95.7538 88.2249 94.8761L83.9659 87.7166Z" fill="#041224"/>
<path d="M107.745 127.017C106.746 127.017 105.782 126.469 105.305 125.518L102.131 119.232C99.9392 114.906 97.7064 110.499 95.5975 106.174C94.9391 104.827 95.5021 103.203 96.8571 102.549C98.2089 101.882 99.8406 102.457 100.496 103.804C102.595 108.103 104.815 112.486 106.994 116.785L110.178 123.091C110.849 124.431 110.305 126.06 108.96 126.732C108.568 126.925 108.152 127.017 107.745 127.017ZM122.608 124.257C121.73 124.257 120.868 123.836 120.344 123.056C116.593 117.489 110.929 109.162 105.238 101.126C104.373 99.9015 104.666 98.2095 105.894 97.3445C107.128 96.481 108.823 96.7757 109.691 97.9988C115.41 106.079 121.101 114.441 124.866 120.033C125.706 121.279 125.372 122.964 124.122 123.798C123.658 124.108 123.13 124.257 122.608 124.257Z" fill="#041224"/>
<path d="M129.902 153.139C128.398 153.139 127.18 151.925 127.18 150.427V128.81C127.18 127.312 128.398 126.098 129.902 126.098C131.407 126.098 132.625 127.312 132.625 128.81V150.427C132.625 151.925 131.407 153.139 129.902 153.139Z" fill="#041224"/>
<path d="M188.342 153.139C186.837 153.139 185.619 151.925 185.619 150.427V128.81C185.619 127.312 186.837 126.098 188.342 126.098C189.846 126.098 191.065 127.312 191.065 128.81V150.427C191.065 151.925 189.846 153.139 188.342 153.139Z" fill="#041224"/>
<path d="M177.263 169.507H140.889C139.384 169.507 138.166 168.293 138.166 166.795C138.166 165.297 139.384 164.083 140.889 164.083H177.263C178.768 164.083 179.986 165.297 179.986 166.795C179.986 168.293 178.768 169.507 177.263 169.507Z" fill="#041224"/>
<path d="M226.473 147.711C225.916 147.711 225.353 147.543 224.869 147.188C223.654 146.304 223.39 144.609 224.278 143.399L231.434 133.639L228.938 131.833C227.955 131.123 227.564 129.847 227.977 128.709C228.747 126.605 229.154 124.891 229.3 123.161C229.567 120.997 229.542 119.07 229.237 117.321C229.02 116.082 229.685 114.862 230.843 114.365L233.674 113.148L229.876 104.59L226.997 105.825C225.884 106.313 224.593 105.993 223.82 105.065C221.402 102.156 218.11 99.7542 214.548 98.303C213.422 97.8451 212.738 96.6965 212.872 95.4909L213.218 92.4078L203.861 91.4176L203.514 94.5276C203.381 95.7222 202.474 96.687 201.288 96.8993C198.784 97.3461 196.714 98.0226 194.77 99.027C193.434 99.7241 191.793 99.2013 191.097 97.8721C190.403 96.5428 190.922 94.9047 192.258 94.2139C194.118 93.2491 196.116 92.5124 198.317 91.9785L198.746 88.1349C198.912 86.6536 200.27 85.5668 201.739 85.7363L216.514 87.3C217.236 87.3761 217.897 87.7357 218.349 88.2981C218.804 88.8621 219.014 89.5814 218.934 90.2991L218.505 94.1315C221.549 95.6319 224.313 97.6471 226.644 100.07L230.197 98.5422C231.549 97.9545 233.162 98.5708 233.766 99.9364L239.768 113.458C240.064 114.121 240.08 114.872 239.812 115.547C239.548 116.218 239.024 116.76 238.356 117.045L234.87 118.544C234.99 120.198 234.94 121.931 234.717 123.722C234.59 125.258 234.275 126.859 233.75 128.608L236.845 130.845C237.43 131.269 237.824 131.906 237.936 132.619C238.047 133.332 237.872 134.058 237.443 134.641L228.674 146.599C228.142 147.328 227.312 147.711 226.473 147.711Z" fill="#041224"/>
<path d="M218.714 85.2625C217.387 85.2625 216.226 84.2977 216.023 82.9542L215.851 81.8135C214.55 81.4776 213.275 80.9754 212.06 80.3195L211.147 81.0182C209.967 81.9276 208.272 81.7153 207.352 80.5524L202.457 74.391C201.528 73.2234 201.719 71.5313 202.88 70.595L203.79 69.8647C203.624 69.2531 203.491 68.5972 203.38 67.8764C203.275 67.2632 203.214 66.601 203.198 65.8991L202.133 65.4872C201.452 65.2258 200.908 64.7046 200.619 64.0392C200.329 63.3753 200.317 62.6228 200.587 61.9495L203.542 54.5919C204.095 53.2104 205.67 52.5323 207.053 53.0694L208.16 53.4956C209.105 52.5593 210.164 51.7244 211.309 51.0114L211.131 49.8422C211.023 49.1261 211.207 48.3973 211.64 47.8159C212.076 47.2344 212.725 46.851 213.443 46.7496L221.29 45.647C222.769 45.4473 224.137 46.4549 224.366 47.9284L224.538 49.0675C225.826 49.4002 227.089 49.8945 228.288 50.5377L229.194 49.8089C229.76 49.3527 230.492 49.1451 231.208 49.2243C231.93 49.3051 232.591 49.6695 233.043 50.2383L237.935 56.3996C238.861 57.5657 238.67 59.2577 237.509 60.1925L236.586 60.9355C236.755 61.5518 236.895 62.1966 237.009 62.8779C237.114 63.5607 237.175 64.261 237.191 64.9818L238.259 65.3937C238.94 65.6551 239.484 66.1764 239.773 66.8418C240.063 67.5056 240.076 68.2582 239.805 68.9315L236.85 76.289C236.58 76.9639 236.049 77.5026 235.374 77.7846C234.7 78.0634 233.943 78.0634 233.269 77.7846L232.229 77.3489C231.294 78.2995 230.234 79.1455 229.08 79.868L229.261 81.0356C229.369 81.7517 229.188 82.4821 228.752 83.0635C228.316 83.645 227.668 84.0299 226.949 84.1313L219.099 85.2356C218.968 85.253 218.841 85.2625 218.714 85.2625ZM211.885 74.315C212.432 74.315 212.976 74.4782 213.447 74.8061C215.008 75.8961 216.834 76.6106 218.58 76.8198C219.795 76.9639 220.765 77.9003 220.95 79.1075L221.007 79.4861L223.459 79.1408L223.409 78.8176C223.23 77.6357 223.848 76.476 224.929 75.9611C226.678 75.1277 228.183 73.9173 229.28 72.4597C230.024 71.4632 231.367 71.1099 232.512 71.5836L232.82 71.7135L233.724 69.4638L233.431 69.3497C232.305 68.9157 231.599 67.794 231.701 66.5946C231.787 65.5601 231.761 64.5984 231.631 63.7366C231.459 62.7258 231.22 61.8623 230.883 61.0559C230.419 59.9437 230.746 58.6604 231.688 57.9031L231.99 57.6592L230.476 55.7532L230.215 55.964C229.264 56.7213 227.928 56.7672 226.942 56.0733C225.384 54.9864 223.561 54.2719 221.809 54.0612C220.59 53.9154 219.624 52.9791 219.439 51.7735L219.382 51.3964L216.929 51.7402L216.98 52.0665C217.158 53.2468 216.541 54.405 215.46 54.9199C213.73 55.7437 212.212 56.943 211.067 58.3848C210.323 59.3195 209.057 59.657 207.947 59.2324L207.6 59.0977L206.668 61.4171L206.961 61.5312C208.087 61.9653 208.793 63.087 208.691 64.2863C208.606 65.3082 208.628 66.254 208.758 67.0192C208.93 68.1282 209.156 68.9552 209.474 69.6539C209.986 70.7803 209.671 72.1096 208.704 72.8875L208.402 73.1299L209.954 75.0849L210.224 74.879C210.711 74.5035 211.3 74.315 211.885 74.315Z" fill="#041224"/>
<path d="M220.197 72.2016C216.456 72.2016 213.412 69.1692 213.412 65.4414C213.412 61.7135 216.456 58.6796 220.197 58.6796C223.937 58.6796 226.981 61.7135 226.981 65.4414C226.981 69.1692 223.937 72.2016 220.197 72.2016ZM220.197 64.1074C219.433 64.1074 218.858 64.6809 218.858 65.4414C218.858 66.1511 219.484 66.7738 220.197 66.7738C220.909 66.7738 221.536 66.1511 221.536 65.4414C221.536 64.6809 220.96 64.1074 220.197 64.1074Z" fill="#041224"/>
<path d="M214.471 130.971C213.854 130.971 213.237 130.765 212.728 130.344C211.571 129.384 211.415 127.673 212.379 126.523C213.819 124.802 214.611 122.676 214.611 120.534C214.611 115.436 210.489 111.288 205.422 111.288C200.359 111.288 196.236 115.436 196.236 120.534C196.236 120.749 196.224 121.019 196.278 121.288C196.57 122.758 195.616 124.187 194.14 124.482C192.668 124.767 191.233 123.823 190.934 122.353C190.804 121.703 190.791 121.054 190.791 120.534C190.791 112.444 197.353 105.863 205.422 105.863C213.492 105.863 220.057 112.444 220.057 120.534C220.057 123.943 218.816 127.302 216.564 129.995C216.024 130.639 215.251 130.971 214.471 130.971Z" fill="#041224"/>
</svg>
