<svg width="185" height="145" viewBox="0 0 185 145" fill="none" xmlns="http://www.w3.org/2000/svg">
<path d="M13.3416 7.48112C25.6746 -3.86399 58.9822 -0.349831 89.4825 5.33363C120.094 10.8614 148.009 18.4027 159.624 38.6797C171.382 58.9152 166.84 91.8863 145.043 109.916C123.103 127.986 83.9087 131.116 59.8172 122.225C35.8698 113.293 27.0253 92.342 18.3543 68.7434C9.5392 45.1863 0.864595 18.8677 13.3416 7.48112Z" fill="#E351FB"/>
<path d="M72.0543 67.3252C61.3269 67.3252 49.9999 70.7058 49.9999 76.9262V88.1499V97.751V107.352V116.953V126.554C49.9999 132.031 61.4602 134.532 72.0543 134.532C82.6485 134.532 94.1088 132.031 94.1088 126.554V116.953V107.352V97.751V88.1499V76.9262C94.1088 70.7058 82.7817 67.3252 72.0543 67.3252ZM90.9772 116.953C90.9772 117.426 90.111 118.305 88.0455 119.252C86.2465 119.996 83.5813 120.739 80.2498 121.213C79.9833 121.28 79.7168 121.28 79.3836 121.348C79.2504 121.348 79.0505 121.415 78.8506 121.415C78.3842 121.483 77.9178 121.483 77.4513 121.551C77.3847 121.551 77.3847 121.551 77.3181 121.551C76.785 121.618 76.252 121.618 75.719 121.686C75.6523 121.686 75.5857 121.686 75.5857 121.686C75.0527 121.686 74.5196 121.754 73.9866 121.754C73.92 121.754 73.8533 121.754 73.7867 121.754C73.2537 121.754 72.654 121.754 72.121 121.754C71.5879 121.754 70.9883 121.754 70.4552 121.754C70.3886 121.754 70.322 121.754 70.2553 121.754C69.7223 121.754 69.1893 121.686 68.6562 121.686C68.5896 121.686 68.523 121.686 68.523 121.686C67.9899 121.686 67.4569 121.618 66.9238 121.551C66.8572 121.551 66.8572 121.551 66.7906 121.551C66.3242 121.483 65.8578 121.483 65.3914 121.415C65.1915 121.415 65.0582 121.348 64.8583 121.348C64.5918 121.28 64.2587 121.28 63.9921 121.213C60.6606 120.739 58.0621 119.996 56.1964 119.252C54.1309 118.373 53.2647 117.426 53.2647 116.953V111.747C57.0626 113.978 63.659 115.127 70.2553 115.33C70.855 115.33 71.5213 115.33 72.121 115.33C72.7206 115.33 73.3869 115.33 73.9866 115.33C80.5829 115.127 87.2459 113.978 90.9772 111.747V116.953ZM90.9772 107.352C90.9772 107.825 90.111 108.704 88.0455 109.651C86.2465 110.395 83.5813 111.138 80.2498 111.612C79.9833 111.679 79.6501 111.679 79.3836 111.747C79.2504 111.747 79.0505 111.814 78.9172 111.814C78.4508 111.882 77.9844 111.882 77.518 111.95C77.4513 111.95 77.4513 111.95 77.3847 111.95C76.8517 112.017 76.3186 112.017 75.7856 112.085C75.719 112.085 75.6523 112.085 75.6523 112.085C75.1193 112.085 74.5863 112.152 74.0532 112.152C73.9866 112.152 73.92 112.152 73.8533 112.152C73.3203 112.152 72.7206 112.152 72.1876 112.152C71.6546 112.152 71.0549 112.152 70.5219 112.152C70.4552 112.152 70.3886 112.152 70.322 112.152C69.7889 112.152 69.2559 112.085 68.7228 112.085C68.6562 112.085 68.5896 112.085 68.5896 112.085C68.0565 112.085 67.5235 112.017 66.9905 111.95C66.9238 111.95 66.9238 111.95 66.8572 111.95C66.3908 111.882 65.9244 111.882 65.458 111.814C65.3247 111.814 65.1248 111.747 64.9916 111.747C64.7251 111.679 64.3919 111.679 64.1254 111.612C60.7939 111.138 58.1953 110.395 56.3297 109.651C54.2642 108.772 53.398 107.825 53.398 107.352V102.146C57.1959 104.377 63.7922 105.526 70.3886 105.729C70.9883 105.729 71.6546 105.729 72.2542 105.729C72.8539 105.729 73.5202 105.729 74.1199 105.729C80.7162 105.526 87.3792 104.377 91.1104 102.146V107.352H90.9772ZM90.9772 97.751C90.9772 98.2243 90.111 99.1032 88.0455 100.05C86.2465 100.794 83.5813 101.537 80.2498 102.011C79.9833 102.078 79.6501 102.078 79.3836 102.146C79.2504 102.146 79.0505 102.213 78.9172 102.213C78.4508 102.281 77.9844 102.281 77.518 102.349C77.4513 102.349 77.4513 102.349 77.3847 102.349C76.8517 102.416 76.3186 102.416 75.7856 102.484C75.719 102.484 75.6523 102.484 75.6523 102.484C75.1193 102.484 74.5863 102.551 74.0532 102.551C73.9866 102.551 73.92 102.551 73.8533 102.551C73.3203 102.551 72.7206 102.551 72.1876 102.551C71.6546 102.551 71.0549 102.551 70.5219 102.551C70.4552 102.551 70.3886 102.551 70.322 102.551C69.7889 102.551 69.2559 102.484 68.7228 102.484C68.6562 102.484 68.5896 102.484 68.5896 102.484C68.0565 102.484 67.5235 102.416 66.9905 102.349C66.9238 102.349 66.9238 102.349 66.8572 102.349C66.3908 102.281 65.9244 102.281 65.458 102.213C65.3247 102.213 65.1248 102.146 64.9916 102.146C64.7251 102.078 64.3919 102.078 64.1254 102.011C60.7939 101.537 58.1953 100.794 56.3297 100.05C54.2642 99.1708 53.398 98.2243 53.398 97.751V92.5448C57.1959 94.776 63.7922 95.9254 70.3886 96.1283C70.9883 96.1283 71.6546 96.1283 72.2542 96.1283C72.8539 96.1283 73.5202 96.1283 74.1199 96.1283C80.7162 95.9254 87.3792 94.776 91.1104 92.5448V97.751H90.9772ZM90.9772 88.1499C90.9772 88.6232 90.111 89.5022 88.0455 90.4488C86.2465 91.1925 83.5813 91.9363 80.2498 92.4096C79.9833 92.4772 79.6501 92.4772 79.3836 92.5448C79.2504 92.5448 79.0505 92.6124 78.9172 92.6124C78.4508 92.68 77.9844 92.68 77.518 92.7476C77.4513 92.7476 77.4513 92.7476 77.3847 92.7476C76.8517 92.8152 76.3186 92.8152 75.7856 92.8828C75.719 92.8828 75.6523 92.8828 75.6523 92.8828C75.1193 92.8828 74.5863 92.9505 74.0532 92.9505C73.9866 92.9505 73.92 92.9505 73.8533 92.9505C73.3203 92.9505 72.7206 92.9505 72.1876 92.9505C71.6546 92.9505 71.0549 92.9505 70.5219 92.9505C70.4552 92.9505 70.3886 92.9505 70.322 92.9505C69.7889 92.9505 69.2559 92.8828 68.7228 92.8828C68.6562 92.8828 68.5896 92.8828 68.5896 92.8828C68.0565 92.8828 67.5235 92.8152 66.9905 92.7476C66.9238 92.7476 66.9238 92.7476 66.8572 92.7476C66.3908 92.68 65.9244 92.68 65.458 92.6124C65.3247 92.6124 65.1248 92.5448 64.9916 92.5448C64.7251 92.4772 64.3919 92.4772 64.1254 92.4096C60.7939 91.9363 58.1953 91.1925 56.3297 90.4488C54.2642 89.5698 53.398 88.6232 53.398 88.1499V82.0648C54.664 82.9438 56.2631 83.7551 58.262 84.4312C62.1931 85.7835 67.1904 86.5272 72.3209 86.5272C77.4513 86.5272 82.4486 85.7835 86.3797 84.4312C88.312 83.7551 89.9777 82.9438 91.2437 82.0648V88.1499H90.9772ZM72.0543 70.503C83.7812 70.503 90.9772 74.2217 90.9772 76.9262C90.9772 78.4137 88.6451 80.1716 85.1138 81.3887C81.5158 82.6733 76.8517 83.3494 72.0543 83.3494C67.257 83.3494 62.5929 82.6733 58.9949 81.4563C55.4635 80.2392 53.1315 78.4813 53.1315 76.9938C53.1315 74.2893 60.3275 70.503 72.0543 70.503ZM72.0543 131.355C60.3275 131.355 53.1315 128.244 53.1315 126.554V121.348C56.9294 123.579 63.5257 124.728 70.1221 124.931C70.7217 124.931 71.388 124.931 71.9877 124.931C72.5874 124.931 73.2537 124.931 73.8533 124.931C80.4497 124.728 87.1127 123.579 90.8439 121.348V126.554C90.9772 128.244 83.7812 131.355 72.0543 131.355Z" fill="#222830"/>
<path d="M148.296 80.0461C147.503 80.0461 146.861 80.6925 146.861 81.4898V86.7737C146.861 89.1657 144.932 91.1048 142.554 91.1048H83.9225C81.5439 91.1048 79.6157 89.1657 79.6157 86.7737V40.5754C79.6157 38.1834 81.5439 36.2443 83.9225 36.2443H98.0205C98.8133 36.2443 99.4561 35.598 99.4561 34.8006C99.4561 34.0033 98.8133 33.3569 98.0205 33.3569H83.9225C79.9582 33.3569 76.7444 36.5888 76.7444 40.5754V86.7737C76.7444 90.7604 79.9582 93.9922 83.9225 93.9922H142.554C146.512 93.9764 149.716 90.7538 149.732 86.7737V81.4898C149.732 80.6925 149.089 80.0461 148.296 80.0461Z" fill="#222830"/>
<path d="M149.962 55.9073H149.732V40.5753C149.717 36.5952 146.512 33.3726 142.554 33.3568C141.761 33.3568 141.119 34.0032 141.119 34.8005C141.119 35.5978 141.761 36.2442 142.554 36.2442C144.933 36.2442 146.861 38.1833 146.861 40.5753V41.3837H145.253L136.639 32.7216L130.38 26.427C130.11 26.1537 129.744 26 129.361 26C128.978 26 128.611 26.1537 128.341 26.427L120.761 34.0498L113.152 26.427C112.584 25.8733 111.682 25.8733 111.114 26.427L96.2407 41.3837H91.1012C90.3083 41.3837 89.6655 42.0301 89.6655 42.8274C89.6655 43.6248 90.3083 44.2711 91.1012 44.2711H146.861V55.8207H138.477C132.927 55.8207 128.428 60.3453 128.428 65.9266V67.0238C128.428 72.6051 132.927 77.1297 138.477 77.1297H149.962C152.341 77.1297 154.269 75.1906 154.269 72.7986V60.2384C154.269 57.8464 152.341 55.9073 149.962 55.9073ZM129.375 29.4877L133.538 33.6744C131.021 35.3756 127.73 35.3756 125.212 33.6744L129.375 29.4877ZM123.173 35.7245C126.835 38.5355 131.915 38.5355 135.577 35.7245L141.32 41.4992H128.026L122.771 36.0998L123.173 35.7245ZM106.52 41.4992L115.134 32.8371L117.144 34.8582L110.54 41.3837L106.52 41.4992ZM119.297 36.7928L124.121 41.3837H114.588L119.297 36.7928ZM112.148 29.4877L113.21 30.556L102.443 41.3837H100.318L112.148 29.4877ZM151.398 72.7986C151.398 73.5959 150.755 74.2423 149.962 74.2423H138.477C136.573 74.2423 134.747 73.4818 133.401 72.128C132.055 70.7743 131.299 68.9383 131.299 67.0238V65.9266C131.299 61.9399 134.513 58.7081 138.477 58.7081H149.962C150.755 58.7081 151.398 59.3545 151.398 60.1518V72.7986Z" fill="#222830"/>
<path d="M138.704 69.4493C140.29 69.4493 141.575 68.1566 141.575 66.5619C141.575 64.9672 140.29 63.6745 138.704 63.6745C137.118 63.6745 135.833 64.9672 135.833 66.5619C135.833 68.1566 137.118 69.4493 138.704 69.4493Z" fill="#222830"/>
<path d="M124.268 91.8636C123.189 91.8691 122.156 92.3026 121.393 93.0699C120.63 93.8372 120.199 94.8764 120.193 95.9615V98.2816C120.19 98.3145 120.189 98.3476 120.188 98.3806V102.291H103.53C102.451 102.296 101.418 102.73 100.655 103.497C99.8917 104.265 99.4607 105.304 99.4552 106.389V139.907C99.4552 142.154 101.296 144 103.53 144H160.187C162.421 144 164.262 142.154 164.262 139.907V133.573H180.925C183.159 133.573 185 131.727 185 129.48V95.9615C184.994 94.8764 184.563 93.8372 183.8 93.0699C183.037 92.3026 182.004 91.8691 180.925 91.8636H124.268ZM124.268 94.4704H180.925C181.121 94.4661 181.315 94.5018 181.497 94.5752C181.679 94.6486 181.844 94.7583 181.983 94.8976C182.121 95.037 182.23 95.203 182.303 95.3859C182.376 95.5687 182.412 95.7645 182.408 95.9615V97.0772H122.786V95.9615C122.781 95.7645 122.817 95.5687 122.89 95.3859C122.963 95.203 123.072 95.037 123.21 94.8976C123.349 94.7583 123.514 94.6486 123.696 94.5752C123.878 94.5018 124.072 94.4661 124.268 94.4704ZM122.786 99.6841H182.408V104.898H164.358L164.337 103.706C164.332 103.365 164.193 103.04 163.952 102.8C163.711 102.56 163.385 102.425 163.046 102.424L161.143 102.419C160.83 102.337 160.508 102.294 160.184 102.291H122.786V99.6841V99.6841ZM103.53 104.898H121.479L160.793 105.02C161.058 105.135 161.283 105.327 161.439 105.57C161.595 105.814 161.675 106.099 161.67 106.389V139.907C161.673 140.104 161.637 140.299 161.564 140.481C161.49 140.664 161.381 140.829 161.243 140.968C161.104 141.107 160.939 141.216 160.758 141.289C160.576 141.362 160.382 141.397 160.187 141.393H103.53C103.335 141.397 103.141 141.362 102.959 141.289C102.778 141.216 102.613 141.107 102.474 140.968C102.336 140.829 102.227 140.664 102.153 140.481C102.08 140.299 102.044 140.104 102.047 139.907V106.389C102.043 106.192 102.079 105.996 102.152 105.813C102.225 105.63 102.334 105.464 102.472 105.325C102.611 105.186 102.776 105.076 102.958 105.003C103.14 104.929 103.334 104.893 103.53 104.898ZM164.262 107.505H182.408V129.48C182.411 129.677 182.375 129.872 182.302 130.054C182.229 130.236 182.119 130.402 181.981 130.54C181.842 130.679 181.677 130.788 181.496 130.862C181.315 130.935 181.12 130.97 180.925 130.966H164.262V122.979C165.161 123.164 166.089 123.156 166.985 122.953C167.88 122.751 168.723 122.36 169.457 121.806C170.543 122.632 171.875 123.145 173.335 123.145C176.899 123.145 179.815 120.213 179.815 116.628C179.815 113.044 176.899 110.111 173.335 110.111C171.878 110.111 170.545 110.617 169.462 111.441C168.318 110.565 166.917 110.098 165.48 110.111C165.065 110.111 164.661 110.163 164.259 110.249V107.505H164.262ZM165.511 112.713V112.718C166.315 112.718 167.002 113.122 167.634 113.604C167.152 114.512 166.854 115.534 166.854 116.628C166.854 117.742 167.165 118.774 167.658 119.694C166.776 120.301 165.734 120.502 164.671 120.249L164.762 112.877C165.014 112.822 165.255 112.716 165.514 112.713H165.511ZM173.335 112.718C175.497 112.718 177.223 114.454 177.223 116.628C177.223 118.802 175.497 120.539 173.335 120.539C172.267 120.539 171.305 120.114 170.605 119.423L170.47 119.266L170.418 119.204L170.408 119.188C170.107 118.842 169.869 118.445 169.706 118.015L169.695 117.979C169.534 117.547 169.45 117.09 169.446 116.628V116.618C169.446 116.157 169.537 115.706 169.695 115.278L169.706 115.239C169.866 114.811 170.105 114.413 170.408 114.063L170.418 114.048L170.47 113.985L170.605 113.829C171.305 113.138 172.264 112.718 173.335 112.718V112.718ZM131.858 112.723C126.148 112.723 121.489 117.403 121.489 123.145C121.489 128.888 126.148 133.573 131.858 133.573C137.569 133.573 142.228 128.888 142.228 123.145C142.222 120.382 141.128 117.734 139.184 115.78C137.241 113.827 134.606 112.728 131.858 112.723V112.723ZM113.713 115.325V117.932H118.897V115.325H113.713ZM144.82 115.325V117.932H150.004V115.325H144.82ZM131.858 115.33C136.169 115.33 139.635 118.816 139.635 123.151C139.638 124.178 139.439 125.196 139.049 126.146C138.659 127.096 138.086 127.959 137.363 128.685C136.641 129.411 135.782 129.987 134.837 130.378C133.893 130.77 132.88 130.969 131.858 130.966C130.837 130.969 129.824 130.77 128.88 130.378C127.935 129.987 127.076 129.411 126.354 128.685C125.631 127.959 125.058 127.096 124.668 126.146C124.278 125.196 124.079 124.178 124.082 123.151C124.082 118.816 127.548 115.33 131.858 115.33ZM108.528 121.842V124.449H116.305V121.842H108.528ZM147.412 121.842V124.449H155.189V121.842H147.412ZM113.713 128.359V130.966H118.897V128.359H113.713ZM144.82 128.359V130.966H150.004V128.359H144.82Z" fill="#222830"/>
</svg>
