<svg width="24" height="21" viewBox="0 0 24 21" fill="none" xmlns="http://www.w3.org/2000/svg">
<path d="M0.628704 1.22093C-0.209568 1.22093 -0.209568 0 0.628704 0H2.75662C3.85283 0 4.75558 0.732558 4.94903 1.77035L5.07799 2.13663H23.3265C23.7779 2.13663 24.1003 2.50291 23.9713 2.93023L21.0052 13.6134C20.9407 13.9186 20.6827 14.1628 20.3603 14.1628H7.46384C7.01247 14.1628 6.75454 14.407 6.75454 14.8343C6.75454 15.2006 7.01247 15.5058 7.46384 15.5058H19.909C20.7472 15.5058 20.7472 16.7267 19.909 16.7267H7.46384C6.30316 16.7267 5.46489 15.8721 5.46489 14.8343C5.46489 14.3459 5.59385 13.9186 5.85178 13.6134L3.72386 2.01454C3.65938 1.52616 3.208 1.22093 2.75662 1.22093H0.628704ZM5.27144 3.35756L7.07695 12.9419H7.46384H19.8445L22.4882 3.35756H5.27144Z" fill="white"/>
<path d="M7.85052 17.1541C8.94672 17.1541 9.84947 18.0087 9.84947 19.1075C9.84947 20.1453 8.94672 21 7.85052 21C6.75432 21 5.85156 20.1453 5.85156 19.1075C5.85156 18.0087 6.75432 17.1541 7.85052 17.1541ZM7.85052 18.375C7.46362 18.375 7.14121 18.6802 7.14121 19.1075C7.14121 19.4738 7.46362 19.7791 7.85052 19.7791C8.23741 19.7791 8.55982 19.4738 8.55982 19.1075C8.55982 18.6802 8.23741 18.375 7.85052 18.375Z" fill="white"/>
<path d="M17.5888 17.1541C18.685 17.1541 19.5878 18.0087 19.5878 19.1075C19.5878 20.1453 18.685 21 17.5888 21C16.4926 21 15.5898 20.1453 15.5898 19.1075C15.5898 18.0087 16.4926 17.1541 17.5888 17.1541ZM17.5888 18.375C17.2019 18.375 16.8795 18.6802 16.8795 19.1075C16.8795 19.4738 17.2019 19.7791 17.5888 19.7791C17.9757 19.7791 18.2981 19.4738 18.2981 19.1075C18.2981 18.6802 17.9757 18.375 17.5888 18.375Z" fill="white"/>
<path d="M10.6226 8.60748C10.0423 7.99701 10.945 7.14236 11.5254 7.69178L12.944 9.0348L16.2326 5.98248C16.8129 5.37201 17.7802 6.22666 17.1353 6.83713L13.3954 10.3778C13.1374 10.561 12.7505 10.561 12.4926 10.3778L10.6226 8.60748Z" fill="white"/>
</svg>
