<svg width="22" height="18" viewBox="0 0 22 18" fill="none" xmlns="http://www.w3.org/2000/svg">
<path d="M10.548 3.38803L11 4.34323L11.452 3.38803C12.6218 0.915709 15.9819 -0.203976 18.5583 0.964061C19.9296 1.5876 20.9231 2.68376 21.3147 4.07621C21.7064 5.46858 21.5126 7.2189 20.3866 9.17163L20.3864 9.172C18.8925 11.7676 16.3178 13.7898 11.7695 17.2425C11.3173 17.5858 10.6827 17.5858 10.2305 17.2426C5.68214 13.7899 3.10754 11.769 1.61371 9.1721L1.61344 9.17163C0.487372 7.2189 0.293645 5.46858 0.685271 4.07621C1.0769 2.68384 2.07029 1.58773 3.44149 0.964172C6.01754 -0.205467 9.37807 0.915362 10.548 3.38803Z" stroke="#E93333"/>
</svg>
