<svg width="35" height="35" viewBox="0 0 35 35" fill="none" xmlns="http://www.w3.org/2000/svg">
<path d="M12.5677 24.2803L24.1301 24.2803C25.1377 24.2803 25.9544 23.4628 25.9544 22.4541C25.9544 21.4455 25.1377 20.628 24.1301 20.628L16.9721 20.628L34.4656 3.11748C35.1781 2.40427 35.1781 1.24813 34.4656 0.534925C34.1093 0.178425 33.6424 7.43866e-05 33.1756 7.43866e-05C32.7088 7.43866e-05 32.2419 0.178425 31.8856 0.534925L14.3921 18.0455V10.8803C14.3921 9.87172 13.5754 9.05422 12.5677 9.05422C11.5601 9.05422 10.7434 9.87172 10.7434 10.8803V22.4539C10.7434 23.4628 11.5601 24.2803 12.5677 24.2803Z" fill="#096B78"/>
<path d="M30.2032 11.5737C29.1955 11.5737 28.3788 12.3912 28.3788 13.3998V31.3478H3.6487V6.59366H22.658C23.6657 6.59366 24.4824 5.77617 24.4824 4.76753C24.4824 3.7589 23.6657 2.94141 22.658 2.94141H1.82435C0.816702 2.94141 0 3.7589 0 4.76753V33.174C0 34.1826 0.816702 35.0001 1.82435 35.0001H30.2032C31.2108 35.0001 32.0275 34.1826 32.0275 33.174V13.3998C32.0275 12.3912 31.2108 11.5737 30.2032 11.5737Z" fill="#096B78"/>
</svg>
