<svg width="35" height="35" viewBox="0 0 35 35" fill="none" xmlns="http://www.w3.org/2000/svg">
<path d="M33.3833 0H23.1358C22.2427 0 21.5189 0.740252 21.5189 1.65358C21.5189 2.5669 22.2427 3.30716 23.1358 3.30716H29.4798L13.9756 19.1631C13.3441 19.8089 13.3441 20.8558 13.9756 21.5017C14.2914 21.8245 14.7051 21.986 15.1189 21.986C15.5326 21.986 15.9464 21.8245 16.2622 21.5017L31.7664 5.64568V12.1338C31.7664 13.0471 32.4903 13.7873 33.3833 13.7873C34.2764 13.7873 35.0002 13.0471 35.0002 12.1338V1.65376C35.0002 0.740252 34.2764 0 33.3833 0Z" fill="#096B78"/>
<path d="M26.7686 13.7871C25.8755 13.7871 25.1517 14.5274 25.1517 15.4407V31.6928H3.23379V9.27761H20.0815C20.9745 9.27761 21.6984 8.53736 21.6984 7.62404C21.6984 6.71071 20.9745 5.97046 20.0815 5.97046H1.61689C0.723829 5.97046 0 6.71071 0 7.62404V33.3464C0 34.2597 0.723829 34.9999 1.61689 34.9999H26.7686C27.6616 34.9999 28.3855 34.2597 28.3855 33.3464V15.4407C28.3855 14.5274 27.6616 13.7871 26.7686 13.7871Z" fill="#096B78"/>
</svg>
