<svg width="11" height="12" viewBox="0 0 11 12" fill="none" xmlns="http://www.w3.org/2000/svg">
<path d="M6.74815 6.59406L1.46799 11.7537C1.1321 12.0821 0.587529 12.0821 0.25181 11.7537C-0.0839366 11.4256 -0.0839366 10.8935 0.25181 10.5654L4.92394 5.99991L0.251945 1.43457C-0.0838008 1.10635 -0.0838008 0.574263 0.251945 0.24617C0.587692 -0.0820565 1.13224 -0.0820565 1.46812 0.24617L6.74829 5.4059C6.91616 5.57002 7 5.7849 7 5.99989C7 6.21498 6.916 6.43002 6.74815 6.59406Z" fill="white"/>
<path d="M10.7481 6.59406L5.46799 11.7537C5.1321 12.0821 4.58753 12.0821 4.25181 11.7537C3.91606 11.4256 3.91606 10.8935 4.25181 10.5654L8.92394 5.99991L4.25195 1.43457C3.9162 1.10635 3.9162 0.574263 4.25195 0.24617C4.58769 -0.0820565 5.13224 -0.0820565 5.46812 0.24617L10.7483 5.4059C10.9162 5.57002 11 5.7849 11 5.99989C11 6.21498 10.916 6.43002 10.7481 6.59406Z" fill="white"/>
</svg>
