<?xml version="1.0" encoding="utf-8"?>
<!-- Svg Vector Icons : http://www.onlinewebfonts.com/icon -->
<!DOCTYPE svg PUBLIC "-//W3C//DTD SVG 1.1//EN" "http://www.w3.org/Graphics/SVG/1.1/DTD/svg11.dtd">
<svg version="1.1" xmlns="http://www.w3.org/2000/svg" xmlns:xlink="http://www.w3.org/1999/xlink" x="0px" y="0px" viewBox="0 0 1000 1000" fill="#fff" enable-background="new 0 0 1000 1000" xml:space="preserve">
<metadata> Svg Vector Icons : http://www.onlinewebfonts.com/icon </metadata>
<g><g transform="translate(0.000000,512.000000) scale(0.100000,-0.100000)"><path d="M4543.1,5013.8c-1164.8-119.2-2204.8-609.3-3015.9-1422.4C775.6,2841.7,318.2,1936.4,137.5,844.6c-50-303.7-50-1137.9,0-1441.7c180.7-1091.8,638.2-1997.2,1389.8-2746.8c930.3-930.3,2147.1-1433.9,3467.6-1433.9c1399.3,0,2685.3,569,3629.1,1603.1c1384,1516.6,1672.3,3752.1,717,5576.3c-649.7,1239.8-1828,2162.5-3183.2,2491.2C5781,4985,5558,5010,5081.3,5015.7C4827.6,5019.6,4585.4,5017.7,4543.1,5013.8z M6594.1,3141.6c347.9-107.6,640.1-421,736.2-790c46.1-173,30.8-482.5-28.8-642c-173-453.6-582.4-738.1-1057.2-740c-215.3,0-444,69.2-624.7,190.3l-57.7,38.4l-874.6-519c-480.6-286.4-884.2-524.8-895.7-532.4c-15.4-9.6-19.2-59.6-13.5-153.8l11.5-140.3l841.9-422.9c465.2-230.7,851.5-421,861.1-421c7.7,0,73,38.4,140.3,84.6c174.9,115.3,332.5,167.2,553.6,178.8c340.2,17.3,615.1-88.4,855.4-328.7c334.5-338.3,417.1-855.4,201.8-1280.2c-224.9-444-740-693.9-1216.7-588.2c-519,115.3-895.7,576.7-897.7,1097.6v96.1l-857.3,428.6l-855.4,428.7L3286-960.4c-190.3-126.9-392.1-190.3-617-190.3c-321-1.9-557.4,98-790,330.6c-226.8,226.8-324.9,465.2-324.9,786.2c0,303.7,103.8,547.8,326.8,774.7c240.3,244.1,488.2,338.3,847.7,321c219.1-11.5,338.3-46.1,519-155.7l103.8-63.4l893.8,530.5l893.8,530.5l-5.8,123c-13.5,273,103.8,595.9,290.2,799.6c157.6,173,384.4,303.7,619,353.7C6163.5,3207,6450,3187.7,6594.1,3141.6z"/></g></g>
</svg>