<svg width="26" height="25" viewBox="0 0 26 25" fill="none" xmlns="http://www.w3.org/2000/svg">
<path d="M24.7358 1.20145L19.5222 0.0373316C18.9708 -0.108185 18.3692 0.182846 18.1186 0.7164L15.7123 6.14895C15.5118 6.63401 15.6622 7.16755 16.0633 7.5071L19.1212 9.93233C17.3165 13.6187 14.1583 16.723 10.2482 18.5177L7.74166 15.5589C7.39075 15.1709 6.83933 15.0254 6.33802 15.2194L0.723452 17.5476C0.172016 17.7901 -0.0786274 18.3722 0.0216333 18.9057L1.22474 23.9503C1.37515 24.4838 1.82632 24.8233 2.42788 24.8233C15.2612 24.8233 25.6882 14.7828 25.6882 2.31707C25.6882 1.78351 25.2871 1.34696 24.7358 1.20145Z" fill="#F67B1E"/>
</svg>
