<svg width="21" height="19" viewBox="0 0 21 19" fill="none" xmlns="http://www.w3.org/2000/svg">
<path d="M10.5 0C7.7455 0 5.25 2.02113 5.25 4.51408C5.25 8.22067 9.43513 8.61254 10.5 14.25C11.5649 8.61254 15.75 8.22067 15.75 4.51408C15.75 2.02113 13.2554 0 10.5 0ZM10.5 6.33333C9.53312 6.33333 8.75 5.62479 8.75 4.75C8.75 3.87521 9.53312 3.16667 10.5 3.16667C11.4669 3.16667 12.25 3.87521 12.25 4.75C12.25 5.62479 11.4669 6.33333 10.5 6.33333ZM21 19L15.1314 17.0786L10.5 19L5.61663 17.0786L0 19L3.5 11.875L6.965 10.621C7.2975 11.0295 7.61337 11.476 7.89337 11.9898L4.81075 13.106L3.30137 16.1777L5.63938 15.3781L6.95713 13.2509L6.4015 15.6608L10.0669 17.077L10.5 15.4771L10.9069 17.0794L14.5381 15.5832L13.9974 13.182L15.3729 15.4747L17.7634 16.2577L16.2418 13.1084L13.1084 11.9882C13.3875 11.4736 13.7042 11.0263 14.0376 10.6178L17.556 11.875L21 19Z" fill="#EE7203"/>
</svg>
