<svg width="24" height="16" viewBox="0 0 24 16" fill="none" xmlns="http://www.w3.org/2000/svg">
<path d="M0 0V16H24V0H0ZM13 12.4444H3V12.0738C2.996 11.0853 3.044 10.5209 4.324 10.2578C5.727 9.96978 7.111 9.71289 6.446 8.62133C4.473 5.38844 5.883 3.55556 8 3.55556C10.077 3.55556 11.521 5.32 9.556 8.62133C8.909 9.70578 10.244 9.96356 11.677 10.2578C12.961 10.5218 13.005 11.0898 13 12.0862V12.4444ZM21 12.4444H15V10.6667H21V12.4444ZM21 8.88889H15V7.11111H21V8.88889ZM21 5.33333H15V3.55556H21V5.33333Z" fill="#EE7203"/>
</svg>
