<svg width="15" height="15" viewBox="0 0 15 15" fill="none" xmlns="http://www.w3.org/2000/svg">
<g clip-path="url(#clip0)">
<path d="M8.25 5.25C8.25 6.90682 6.90682 8.25 5.25 8.25C3.59318 8.25 2.25 6.90682 2.25 5.25C2.25 3.59318 3.59318 2.25 5.25 2.25C6.90682 2.25 8.25 3.59318 8.25 5.25Z" fill="white"/>
<path d="M13.1523 8.91525L13.7091 8.3584L15 9.64938L14.4433 10.2062L13.1523 8.91525Z" fill="white"/>
<path d="M9.48145 12.582L12.8098 9.25366L14.1007 10.5446L10.7724 13.873L9.48145 12.582Z" fill="white"/>
<path d="M8.70898 14.649L10.3283 14.1093L9.24877 13.0295L8.70898 14.649Z" fill="white"/>
<path d="M8.91778 12.4988L8.92812 12.4783C8.92812 12.4748 8.92812 12.4748 8.93148 12.4714C8.93927 12.4538 8.94975 12.4375 8.96251 12.4232C8.96251 12.4198 8.96587 12.4198 8.96587 12.4163L8.97621 12.406L9.97706 11.4049C9.08947 9.60649 7.25986 8.46674 5.25507 8.46338C2.43495 8.46338 0.123864 10.6961 0 13.4863H8.59105L8.92113 12.4988H8.91778Z" fill="white"/>
</g>
<defs>
<clipPath id="clip0">
<rect width="15" height="15" fill="white"/>
</clipPath>
</defs>
</svg>
