<svg width="15" height="15" viewBox="0 0 15 15" fill="none" xmlns="http://www.w3.org/2000/svg">
<path d="M9.47061 14.7838C4.44758 16.8882 -3.34913 2.99626 1.56072 0.649376L2.99733 0L5.37827 4.26063L3.95871 4.90188C2.46619 5.63564 5.57464 11.2019 7.10126 10.5231C7.1633 10.4975 8.50378 9.89377 8.50855 9.89127L10.9093 14.1382C10.9038 14.1407 9.55311 14.7494 9.47061 14.7838ZM8.42196 6.40314L10.4109 6.94689C10.5629 6.48001 10.5199 5.96001 10.2472 5.49876C9.97516 5.03689 9.52311 4.71938 9.01447 4.58063L8.42196 6.40314ZM9.65198 2.61688C10.7095 2.90563 11.647 3.56438 12.2129 4.52376C12.7795 5.48376 12.8675 6.56314 12.5525 7.53189L11.3286 7.19751C11.5502 6.51564 11.4875 5.75626 11.0886 5.08064C10.6911 4.40501 10.0311 3.94188 9.28652 3.73938L9.65198 2.61688ZM10.2997 0.625001C11.9122 1.06563 13.3427 2.07 14.2059 3.53501C15.0712 4.99938 15.2055 6.64626 14.7248 8.12502L13.4702 7.78252C13.8548 6.59814 13.747 5.27876 13.0557 4.10626C12.3629 2.93313 11.2175 2.12813 9.92539 1.77563L10.2997 0.625001Z" fill="white"/>
</svg>
