<svg width="15" height="15" viewBox="0 0 15 15" fill="none" xmlns="http://www.w3.org/2000/svg">
<path d="M12.5 5.845C12.5 2.8125 9.53063 0.625 6.25 0.625C2.94937 0.625 0 2.82875 0 5.845C0 6.91438 0.384375 7.96438 1.06563 8.77938C1.095 9.73375 0.53375 11.1031 0.0275 12.0994C1.3825 11.855 3.31 11.3131 4.18313 10.7775C8.99375 11.9506 12.5 9.00125 12.5 5.845ZM3.4375 6.7075C3.00688 6.7075 2.65625 6.3575 2.65625 5.92625C2.65625 5.495 3.00688 5.145 3.4375 5.145C3.86812 5.145 4.21875 5.495 4.21875 5.92625C4.21875 6.3575 3.86812 6.7075 3.4375 6.7075ZM6.25 6.7075C5.81938 6.7075 5.46875 6.3575 5.46875 5.92625C5.46875 5.495 5.81938 5.145 6.25 5.145C6.68062 5.145 7.03125 5.495 7.03125 5.92625C7.03125 6.3575 6.68062 6.7075 6.25 6.7075ZM9.0625 6.7075C8.63188 6.7075 8.28125 6.3575 8.28125 5.92625C8.28125 5.495 8.63188 5.145 9.0625 5.145C9.49312 5.145 9.84375 5.495 9.84375 5.92625C9.84375 6.3575 9.49312 6.7075 9.0625 6.7075ZM14.3019 12.2006C14.2837 12.8263 14.6506 13.7225 14.9819 14.375C14.095 14.2137 12.8331 13.86 12.2619 13.5094C10.1587 14.0206 8.44062 13.3281 7.52875 12.1969C10.3769 11.7844 12.6794 9.97375 13.4594 7.60813C14.3844 8.22 15 9.165 15 10.2794C15 10.9794 14.7481 11.6675 14.3019 12.2006Z" fill="white"/>
</svg>
