<svg width="50" height="50" viewBox="0 0 50 50" fill="none" xmlns="http://www.w3.org/2000/svg">
<path d="M25 0C11.1938 0 0 11.1938 0 25C0 38.8063 11.1938 50 25 50C38.8063 50 50 38.8063 50 25C50 11.1938 38.8063 0 25 0ZM34.2521 35.1917C29.8729 35.4917 20.1188 35.4917 15.7458 35.1917C11.0042 34.8667 10.4521 32.5458 10.4167 25C10.4521 17.4396 11.0104 15.1333 15.7458 14.8083C20.1188 14.5083 29.875 14.5083 34.2521 14.8083C38.9958 15.1333 39.5458 17.4542 39.5833 25C39.5458 32.5604 38.9896 34.8667 34.2521 35.1917ZM20.8333 20.1208L31.0771 24.9917L20.8333 29.8792V20.1208Z" fill="white"/>
</svg>
