<svg width="50" height="50" viewBox="0 0 50 50" fill="none" xmlns="http://www.w3.org/2000/svg">
<path d="M25 0C11.1937 0 0 11.1937 0 25C0 38.8062 11.1937 50 25 50C38.8062 50 50 38.8062 50 25C50 11.1937 38.8062 0 25 0ZM38.2167 33.6729H34.3271C32.1292 33.6729 31.7604 32.4208 29.9479 30.6125C28.3125 28.9771 27.4062 30.2312 27.4438 32.5604C27.4562 33.1792 27.15 33.6729 26.4125 33.6729C24.1104 33.6729 20.8 33.9979 17.4458 30.3812C14.0146 26.675 10.4167 19.2396 10.4167 18.5083C10.4167 18.075 10.775 17.8813 11.3729 17.8813H15.3271C16.375 17.8813 16.4625 18.4 16.7563 19.0646C17.9729 21.8375 20.8833 27.4021 21.6604 24.2958C22.1063 22.5125 22.2875 18.3813 20.3792 18.025C19.2958 17.825 21.2042 16.6667 23.9667 16.6667C24.6542 16.6667 25.4 16.7396 26.1625 16.9167C27.5646 17.2417 27.5708 17.8708 27.55 18.7875C27.4792 22.2583 27.0604 24.5917 27.975 25.1812C28.8479 25.7458 31.1437 22.0521 32.3583 19.2C32.6896 18.4125 32.7562 17.8833 33.6979 17.8833H38.5354C41.0687 17.8833 38.2042 21.525 36.0146 24.3667C34.25 26.6562 34.3437 26.7 36.3958 28.6042C37.8562 29.9604 39.5833 31.8125 39.5833 32.8604C39.5833 33.3562 39.1958 33.6729 38.2167 33.6729Z" fill="white"/>
</svg>
