<svg width="12" height="12" viewBox="0 0 12 12" fill="none" xmlns="http://www.w3.org/2000/svg">
<path d="M6.83946 6.59406L1.55929 11.7537C1.22341 12.0821 0.678837 12.0821 0.343118 11.7537C0.00737203 11.4256 0.00737203 10.8935 0.343118 10.5654L5.01525 5.99991L0.343254 1.43457C0.00750784 1.10635 0.00750784 0.574263 0.343254 0.24617C0.679 -0.0820565 1.22355 -0.0820565 1.55943 0.24617L6.83959 5.4059C7.00747 5.57002 7.09131 5.7849 7.09131 5.99989C7.09131 6.21498 7.0073 6.43002 6.83946 6.59406Z" fill="#3D4856"/>
<path d="M10.8395 6.59406L5.55929 11.7537C5.22341 12.0821 4.67884 12.0821 4.34312 11.7537C4.00737 11.4256 4.00737 10.8935 4.34312 10.5654L9.01525 5.99991L4.34325 1.43457C4.00751 1.10635 4.00751 0.574263 4.34325 0.24617C4.679 -0.0820565 5.22355 -0.0820565 5.55943 0.24617L10.8396 5.4059C11.0075 5.57002 11.0913 5.7849 11.0913 5.99989C11.0913 6.21498 11.0073 6.43002 10.8395 6.59406Z" fill="#3D4856"/>
</svg>
