<svg width="117" height="48" viewBox="0 0 117 48" fill="none" xmlns="http://www.w3.org/2000/svg">
<path d="M41.364 21.8372H38.9491V14.7096C42.4107 14.6331 43.8979 14.7896 43.8979 18.2352C43.8979 20.0154 43.4142 21.8372 41.3711 21.8372H41.364ZM47.41 24.1981V24.1217C50.3843 22.8074 51.1495 20.5961 51.1495 17.5155C51.1495 11.7472 48.2619 9.51849 42.4648 9.51849H32.127V38.4815H39.1982V27.0632H41.53C43.1796 27.1814 43.7427 28.3426 43.9412 30.1228C43.9917 30.5749 43.9917 34.2326 43.9881 36.5796C43.988 36.6639 43.9989 36.7481 44.0206 36.83C44.0847 37.2881 44.3226 37.7073 44.6885 38.0065C45.0545 38.3056 45.5225 38.4638 46.0023 38.4502H50.9185V27.9532C50.9185 25.8914 49.37 24.6223 47.3992 24.1981" fill="#EE7203"/>
<path d="M30.394 34.6362C30.392 34.1199 30.1746 33.6256 29.7896 33.2614C29.4044 32.8974 28.8831 32.6935 28.3399 32.6944H18.5258V11.3978C18.5263 11.1512 18.4756 10.9069 18.3767 10.6789C18.2776 10.4509 18.1323 10.2437 17.949 10.0691C17.7656 9.89458 17.5479 9.7561 17.3082 9.66161C17.0685 9.56713 16.8115 9.51849 16.552 9.51849H11.375V38.4815H30.3976V34.6362H30.394Z" fill="#EE7203"/>
<path d="M58.4998 38.4815C61.1263 38.4815 63.2554 36.3839 63.2554 33.7963C63.2554 31.2087 61.1263 29.1111 58.4998 29.1111C55.8734 29.1111 53.7441 31.2087 53.7441 33.7963C53.7441 36.3839 55.8734 38.4815 58.4998 38.4815Z" fill="#EE7203"/>
<path d="M58.5673 0.999999C55.7351 0.999999 57.3554 0.999999 53.7195 0.999999C51.9016 0.999999 51.9016 0.999999 47.5607 0.999999L8.06922 0.999999C6.19476 1.00073 4.39744 1.41069 3.072 2.13995C1.74654 2.86921 1.00132 3.85798 1 4.88931L1 43.0996C1.00132 44.1339 1.74865 45.1255 3.07786 45.8568C4.40705 46.5881 6.20946 46.9993 8.08924 47L108.916 47C110.795 47 112.597 46.5894 113.925 45.8584C115.254 45.1275 116 44.1361 116 43.1024V4.88377C116 3.85426 115.257 2.86675 113.934 2.13849C112.611 1.41023 110.817 1.00073 108.946 0.999999L68.9586 0.999999C67.6569 0.999999 65.233 0.999999 64.0211 0.999999C61.5972 0.999999 61.3997 0.999999 58.5673 0.999999Z" stroke="#EE7203" stroke-width="2"/>
<path d="M75.3446 21.8108H72.932V14.7184C76.392 14.6386 77.8764 14.7912 77.8764 18.2299C77.8764 20.0083 77.3961 21.8213 75.3483 21.8213L75.3446 21.8108ZM81.1269 24.1716V24.078C84.1101 22.7746 84.8722 20.5734 84.8722 17.4916C84.8722 11.7406 81.9829 9.51849 76.1862 9.51849H65.8496V38.4815H72.932V27.0419H75.2652C76.9121 27.1562 77.4755 28.3176 77.6778 30.0924C77.7247 30.5396 77.7247 34.1863 77.7211 36.5298C77.7219 36.613 77.7342 36.6957 77.7573 36.7759C77.8166 37.2415 78.0499 37.6706 78.4139 37.9836C78.7778 38.2965 79.2478 38.4722 79.7364 38.4779H84.6374V27.9085C84.6374 25.7419 83.1061 24.5876 81.1377 24.1611" fill="#EE7203"/>
<path d="M100.489 9.51849C99.9704 9.52296 99.4747 9.71843 99.1101 10.0622C98.7454 10.406 98.5413 10.8703 98.5424 11.3538C98.5424 11.391 98.5424 11.425 98.5424 11.4622V30.6726C98.5424 31.8782 97.9794 33.3817 96.131 33.3817C94.119 33.3817 93.676 32.2135 93.676 30.8522V11.3505C93.6741 10.8672 93.4679 10.4041 93.102 10.0618C92.7363 9.71945 92.2404 9.52538 91.7222 9.52181H86.6016V29.9954C86.6016 35.8063 90.0989 38.4815 96.0946 38.4815C103.329 38.4815 105.624 34.787 105.624 29.9954V9.51849H100.489Z" fill="#EE7203"/>
</svg>
