<svg width="15" height="15" viewBox="0 0 15 15" fill="none" xmlns="http://www.w3.org/2000/svg">
<path d="M10.6266 3.67031C9.71068 2.81273 8.52211 2.34264 7.26117 2.34375C4.99189 2.34574 3.03281 3.9017 2.4919 6.06006C2.45253 6.21718 2.31255 6.32812 2.15057 6.32812H0.471768C0.2521 6.32812 0.0852246 6.1287 0.125859 5.91281C0.759756 2.5466 3.71522 0 7.26562 0C9.21234 0 10.9802 0.765703 12.2846 2.01226L13.331 0.965918C13.7739 0.522979 14.5312 0.83669 14.5312 1.46312V5.39062C14.5312 5.77895 14.2165 6.09375 13.8281 6.09375H9.90062C9.27419 6.09375 8.96048 5.3364 9.40342 4.89343L10.6266 3.67031ZM0.703125 8.4375H4.63063C5.25706 8.4375 5.57077 9.19485 5.12783 9.63782L3.90469 10.861C4.82057 11.7186 6.00923 12.1887 7.2702 12.1875C9.5383 12.1855 11.4982 10.6306 12.0393 8.47125C12.0787 8.31413 12.2187 8.20318 12.3807 8.20318H14.0595C14.2792 8.20318 14.4461 8.40261 14.4054 8.6185C13.7715 11.9846 10.816 14.5312 7.26562 14.5312C5.31891 14.5312 3.55104 13.7655 2.24663 12.519L1.20029 13.5653C0.757354 14.0083 0 13.6946 0 13.0681V9.14062C0 8.75229 0.314795 8.4375 0.703125 8.4375Z" fill="#004C56"/>
</svg>
