<svg width="17" height="17" viewBox="0 0 17 17" fill="none" xmlns="http://www.w3.org/2000/svg">
<g clip-path="url(#clip0)">
<path d="M15.0553 1.87305H14.275V2.80956C14.275 3.584 13.645 4.21433 12.8704 4.21433C12.0958 4.21433 11.4654 3.58419 11.4654 2.80956V1.87305H9.90466V2.80956C9.90466 3.584 9.27452 4.21433 8.49989 4.21433C7.72545 4.21433 7.09512 3.58419 7.09512 2.80956V1.87305H5.53433V2.80956C5.53433 3.584 4.90401 4.21433 4.12957 4.21433C3.35512 4.21433 2.72499 3.58419 2.72499 2.80956V1.87305H1.9445C0.911467 1.87305 0.0712891 2.71304 0.0712891 3.74607V15.1272C0.0712891 16.16 0.911467 17 1.9445 17H15.0553C16.0881 17 16.9287 16.16 16.9287 15.1272V3.74607C16.9287 2.71323 16.0881 1.87305 15.0553 1.87305ZM15.6797 15.1272C15.6797 15.4712 15.3998 15.7515 15.0553 15.7515H1.9445C1.60034 15.7515 1.32022 15.4714 1.32022 15.1272V6.24318C1.32022 5.89846 1.59978 5.6189 1.9445 5.6189H15.0553C15.4002 5.6189 15.6797 5.89827 15.6797 6.24318V15.1272Z" fill="#476988"/>
<path d="M4.12889 3.74604C4.64626 3.74604 5.06541 3.32671 5.06541 2.80953V0.936511C5.06541 0.419333 4.64607 0 4.12889 0C3.61172 0 3.19238 0.419333 3.19238 0.936511V2.80953C3.19238 3.32671 3.61172 3.74604 4.12889 3.74604Z" fill="#476988"/>
<path d="M8.49999 3.74604C9.01717 3.74604 9.43612 3.32671 9.43612 2.80953V0.936511C9.43612 0.419333 9.01717 0 8.49999 0C7.98262 0 7.56348 0.419333 7.56348 0.936511V2.80953C7.56367 3.32671 7.98262 3.74604 8.49999 3.74604Z" fill="#476988"/>
<path d="M12.8699 3.74604C13.3871 3.74604 13.8066 3.32671 13.8066 2.80953V0.936511C13.8066 0.419333 13.3871 0 12.8699 0C12.3527 0 11.9336 0.419333 11.9336 0.936511V2.80953C11.9336 3.32671 12.3527 3.74604 12.8699 3.74604Z" fill="#476988"/>
<path d="M12.1512 14.45H13.9568C14.2941 14.45 14.5718 14.1281 14.5718 13.7371V12.1272C14.5718 11.7363 14.2941 11.4143 13.9568 11.4143H12.1512C11.8139 11.4143 11.5361 11.7363 11.5361 12.1272V13.7371C11.5361 14.151 11.8139 14.45 12.1512 14.45Z" fill="#476988"/>
<path d="M7.65805 14.45H9.4636C9.80091 14.45 10.0787 14.1281 10.0787 13.7371V12.1272C10.0787 11.7363 9.80091 11.4143 9.4636 11.4143H7.65805C7.32075 11.4143 7.04297 11.7363 7.04297 12.1272V13.7371C7.04297 14.151 7.32075 14.45 7.65805 14.45Z" fill="#476988"/>
<path d="M3.04379 14.45H4.84935C5.18665 14.45 5.46443 14.1281 5.46443 13.7371V12.1272C5.46443 11.7363 5.18665 11.4143 4.84935 11.4143H3.04379C2.70649 11.4143 2.42871 11.7363 2.42871 12.1272V13.7371C2.42871 14.151 2.70649 14.45 3.04379 14.45Z" fill="#476988"/>
<path d="M12.1512 10.0787H13.9568C14.2941 10.0787 14.5718 9.75671 14.5718 9.36575V7.7559C14.5718 7.36494 14.2941 7.04297 13.9568 7.04297H12.1512C11.8139 7.04297 11.5361 7.36494 11.5361 7.7559V9.36575C11.5361 9.77971 11.8139 10.0787 12.1512 10.0787Z" fill="#476988"/>
<path d="M7.65805 10.0787H9.4636C9.80091 10.0787 10.0787 9.75671 10.0787 9.36575V7.7559C10.0787 7.36494 9.80091 7.04297 9.4636 7.04297H7.65805C7.32075 7.04297 7.04297 7.36494 7.04297 7.7559V9.36575C7.04297 9.77971 7.32075 10.0787 7.65805 10.0787Z" fill="#476988"/>
<path d="M3.04379 10.0787H4.84935C5.18665 10.0787 5.46443 9.75671 5.46443 9.36575V7.7559C5.46443 7.36494 5.18665 7.04297 4.84935 7.04297H3.04379C2.70649 7.04297 2.42871 7.36494 2.42871 7.7559V9.36575C2.42871 9.77971 2.70649 10.0787 3.04379 10.0787Z" fill="#476988"/>
</g>
<defs>
<clipPath id="clip0">
<rect width="17" height="17" fill="white"/>
</clipPath>
</defs>
</svg>
