<svg width="12" height="19" viewBox="0 0 12 19" fill="none" xmlns="http://www.w3.org/2000/svg">
<path d="M5.92782 15.5234C5.43201 15.5234 5.00087 15.69 4.65596 16.0439C4.33261 16.377 4.16016 16.7933 4.16016 17.2721C4.16016 17.751 4.33261 18.1673 4.67752 18.5004C5.02243 18.8335 5.43201 19 5.94938 19C6.44519 19 6.87632 18.8335 7.22123 18.5212C7.56614 18.1881 7.76016 17.7718 7.76016 17.293C7.76016 16.8142 7.5877 16.3978 7.24279 16.0647C6.85477 15.69 6.42363 15.5234 5.92782 15.5234Z" fill="white"/>
<path d="M11.4262 3.05559C11.1019 2.40743 10.6528 1.85187 10.104 1.3889C9.55509 0.949085 8.90645 0.57871 8.18295 0.347226C7.45946 0.115742 6.71102 0 5.93763 0C4.4158 0 3.09355 0.416671 1.99584 1.20372C0.823285 2.06021 0.024948 3.40282 0 4.60653C0 5.09265 0.224532 5.64821 0.598753 6.01859C0.848233 6.27322 1.17256 6.38896 1.49688 6.38896C1.59667 6.38896 1.69647 6.36581 1.82121 6.34266C2.64449 6.13433 2.69439 5.43988 2.71933 4.93061C2.71933 4.74542 2.74428 4.58338 2.76923 4.44449C2.89397 3.95838 3.19335 3.51856 3.61746 3.17133C4.26611 2.63892 5.0395 2.38429 5.96258 2.38429C6.93555 2.38429 7.70894 2.66207 8.33264 3.21763C8.93139 3.77319 9.23077 4.44449 9.23077 5.27784C9.23077 5.71766 9.13098 6.11118 8.95634 6.41211C8.75676 6.75934 8.50728 7.08341 8.2079 7.36119C7.88358 7.66212 7.5343 7.9399 7.16008 8.21768C6.73597 8.51861 6.36175 8.84269 5.98753 9.18992C5.53846 9.60659 5.21414 10.0233 4.9896 10.4168C4.69023 10.9492 4.54054 11.5279 4.54054 12.1529V12.8011C4.54054 13.6344 5.28898 14.1205 6.01247 14.1205C6.56133 14.1205 7.0104 13.8427 7.23493 13.3798C7.25689 13.3345 7.35967 13.1338 7.35967 12.8937V12.1529C7.35967 11.6668 7.5343 11.2964 7.90852 10.9723C8.38254 10.5325 8.90645 10.0927 9.4553 9.67603C10.0541 9.21307 10.6279 8.63436 11.1518 8.00935C11.7256 7.3149 12 6.38896 12 5.30099C11.9252 4.44449 11.7505 3.70375 11.4262 3.05559Z" fill="white"/>
</svg>
