<svg width="12" height="14" viewBox="0 0 12 14" fill="none" xmlns="http://www.w3.org/2000/svg">
<path d="M0 11.9993C0 12.6708 0.575893 13.2155 1.28571 13.2155H10.7143C11.4241 13.2155 12 12.6708 12 11.9993V5.10772H0V11.9993ZM8.57143 7.03332C8.57143 6.86609 8.71607 6.72927 8.89286 6.72927H9.96429C10.1411 6.72927 10.2857 6.86609 10.2857 7.03332V8.04679C10.2857 8.21401 10.1411 8.35083 9.96429 8.35083H8.89286C8.71607 8.35083 8.57143 8.21401 8.57143 8.04679V7.03332ZM8.57143 10.2764C8.57143 10.1092 8.71607 9.97239 8.89286 9.97239H9.96429C10.1411 9.97239 10.2857 10.1092 10.2857 10.2764V11.2899C10.2857 11.4571 10.1411 11.5939 9.96429 11.5939H8.89286C8.71607 11.5939 8.57143 11.4571 8.57143 11.2899V10.2764ZM5.14286 7.03332C5.14286 6.86609 5.2875 6.72927 5.46429 6.72927H6.53571C6.7125 6.72927 6.85714 6.86609 6.85714 7.03332V8.04679C6.85714 8.21401 6.7125 8.35083 6.53571 8.35083H5.46429C5.2875 8.35083 5.14286 8.21401 5.14286 8.04679V7.03332ZM5.14286 10.2764C5.14286 10.1092 5.2875 9.97239 5.46429 9.97239H6.53571C6.7125 9.97239 6.85714 10.1092 6.85714 10.2764V11.2899C6.85714 11.4571 6.7125 11.5939 6.53571 11.5939H5.46429C5.2875 11.5939 5.14286 11.4571 5.14286 11.2899V10.2764ZM1.71429 7.03332C1.71429 6.86609 1.85893 6.72927 2.03571 6.72927H3.10714C3.28393 6.72927 3.42857 6.86609 3.42857 7.03332V8.04679C3.42857 8.21401 3.28393 8.35083 3.10714 8.35083H2.03571C1.85893 8.35083 1.71429 8.21401 1.71429 8.04679V7.03332ZM1.71429 10.2764C1.71429 10.1092 1.85893 9.97239 2.03571 9.97239H3.10714C3.28393 9.97239 3.42857 10.1092 3.42857 10.2764V11.2899C3.42857 11.4571 3.28393 11.5939 3.10714 11.5939H2.03571C1.85893 11.5939 1.71429 11.4571 1.71429 11.2899V10.2764ZM10.7143 1.8646H9.42857V0.648432C9.42857 0.425467 9.23571 0.243042 9 0.243042H8.14286C7.90714 0.243042 7.71429 0.425467 7.71429 0.648432V1.8646H4.28571V0.648432C4.28571 0.425467 4.09286 0.243042 3.85714 0.243042H3C2.76429 0.243042 2.57143 0.425467 2.57143 0.648432V1.8646H1.28571C0.575893 1.8646 0 2.40934 0 3.08077V4.29694H12V3.08077C12 2.40934 11.4241 1.8646 10.7143 1.8646Z" fill="#004C56"/>
</svg>
