<svg width="17" height="17" viewBox="0 0 17 17" fill="none" xmlns="http://www.w3.org/2000/svg">
<path d="M17 8.5C17 13.1955 13.1941 17 8.5 17C3.80591 17 0 13.1955 0 8.5C0 3.80728 3.80591 0 8.5 0C13.1941 0 17 3.80728 17 8.5ZM8.7281 2.81048C6.86025 2.81048 5.66895 3.59732 4.73347 4.99574C4.61228 5.17691 4.65282 5.42125 4.82653 5.55297L6.01581 6.45472C6.1942 6.59 6.44838 6.55782 6.58699 6.38199C7.19926 5.60541 7.61908 5.15508 8.551 5.15508C9.25119 5.15508 10.1173 5.60572 10.1173 6.28469C10.1173 6.79798 9.69353 7.06158 9.00219 7.44919C8.19592 7.90116 7.12903 8.4637 7.12903 9.87097V10.0081C7.12903 10.2352 7.31319 10.4194 7.54032 10.4194H9.45968C9.68681 10.4194 9.87097 10.2352 9.87097 10.0081V9.96238C9.87097 8.98687 12.7221 8.94625 12.7221 6.30645C12.7221 4.31848 10.66 2.81048 8.7281 2.81048ZM8.5 11.3105C7.63064 11.3105 6.92339 12.0177 6.92339 12.8871C6.92339 13.7564 7.63064 14.4637 8.5 14.4637C9.36936 14.4637 10.0766 13.7564 10.0766 12.8871C10.0766 12.0177 9.36936 11.3105 8.5 11.3105Z" fill="white"/>
</svg>
