<svg width="19" height="19" viewBox="0 0 19 19" fill="none" xmlns="http://www.w3.org/2000/svg">
<path d="M16.0343 13.0711C15.5863 13.0744 15.145 13.1791 14.7433 13.3773C14.3416 13.5754 13.9901 13.862 13.7151 14.2154L5.83811 10.2787C5.98698 9.78165 5.98698 9.25195 5.83811 8.75494L13.7151 4.81226C14.1524 5.36067 14.7701 5.73633 15.4584 5.87247C16.1467 6.00861 16.861 5.89642 17.4744 5.55583C18.0877 5.21524 18.5604 4.66832 18.8084 4.01226C19.0564 3.3562 19.0637 2.63349 18.8289 1.97258C18.5942 1.31166 18.1326 0.755351 17.5262 0.402504C16.9198 0.0496576 16.208 -0.0768683 15.5171 0.045412C14.8262 0.167692 14.201 0.530859 13.7527 1.07037C13.3044 1.60988 13.062 2.2908 13.0685 2.9921C13.0721 3.2509 13.11 3.50808 13.1812 3.75692L5.30428 7.69368C4.92441 7.20684 4.40195 6.85071 3.80983 6.67498C3.2177 6.49926 2.58546 6.51272 2.00136 6.71348C1.41725 6.91424 0.910433 7.29228 0.551644 7.79484C0.192854 8.2974 0 8.8994 0 9.5168C0 10.1342 0.192854 10.7362 0.551644 11.2388C0.910433 11.7413 1.41725 12.1194 2.00136 12.3201C2.58546 12.5209 3.2177 12.5343 3.80983 12.3586C4.40195 12.1829 4.92441 11.8268 5.30428 11.3399L13.1812 15.2767C13.1106 15.5236 13.0727 15.7788 13.0685 16.0356C13.0685 16.6219 13.2425 17.195 13.5684 17.6825C13.8942 18.17 14.3574 18.55 14.8993 18.7743C15.4413 18.9987 16.0376 19.0574 16.6129 18.943C17.1882 18.8287 17.7166 18.5463 18.1314 18.1317C18.5461 17.7172 18.8286 17.1889 18.943 16.6139C19.0574 16.0389 18.9987 15.4428 18.7742 14.9011C18.5498 14.3595 18.1697 13.8965 17.6819 13.5707C17.1942 13.245 16.6208 13.0711 16.0343 13.0711Z" fill="white"/>
</svg>
