<svg width="11" height="10" viewBox="0 0 11 10" fill="none" xmlns="http://www.w3.org/2000/svg">
<path d="M5.07856 1.01757L9.42817 5L5.07856 8.98244C4.95138 9.09868 4.88779 9.25148 4.88779 9.40389C4.88779 9.55629 4.95138 9.7091 5.07856 9.82534C5.33269 10.0582 5.74504 10.0582 5.99918 9.82534L10.8093 5.42145C11.0635 5.18897 11.0637 4.81123 10.8093 4.57855L5.99939 0.174661C5.74504 -0.0582204 5.33291 -0.0582204 5.07856 0.174661C4.82442 0.407344 4.82442 0.784883 5.07856 1.01757Z" fill="#404852"/>
<path d="M5.92162 5.42145C6.17576 5.18897 6.17597 4.81123 5.92162 4.57855L1.11192 0.174661C0.857563 -0.0582204 0.445432 -0.0582204 0.191079 0.174661C-0.0630574 0.407543 -0.0632744 0.785081 0.191079 1.01776L4.54069 5L0.191079 8.98244C0.0639019 9.09868 0.000314236 9.25148 0.000314236 9.40389C0.000314236 9.55629 0.0639019 9.7091 0.191079 9.82534C0.445215 10.0582 0.857563 10.0582 1.1117 9.82534L5.92162 5.42145Z" fill="#404852"/>
</svg>
