<svg width="15" height="10" viewBox="0 0 15 10" fill="none" xmlns="http://www.w3.org/2000/svg">
<path d="M8.26563 1.01367L14.375 7.12305C14.5846 7.33268 14.6895 7.58724 14.6895 7.88672C14.6895 8.1862 14.5846 8.44076 14.375 8.65039L13.3418 9.63867C13.1322 9.84831 12.8776 9.95312 12.5781 9.95312C12.2786 9.95312 12.0241 9.84831 11.8145 9.63867L7.50195 5.32617L3.18945 9.63867C2.97982 9.84831 2.72526 9.95312 2.42578 9.95312C2.1263 9.95312 1.87174 9.84831 1.66211 9.63867L0.628906 8.65039C0.419271 8.44076 0.314453 8.1862 0.314453 7.88672C0.314453 7.58724 0.419271 7.33268 0.628906 7.12305L6.73828 1.01367C6.94792 0.804036 7.20247 0.699219 7.50195 0.699219C7.80143 0.699219 8.05599 0.804036 8.26563 1.01367Z" fill="white"/>
</svg>
