<svg width="15" height="10" viewBox="0 0 15 10" fill="none" xmlns="http://www.w3.org/2000/svg">
<path d="M6.46875 9.6709L0.359375 3.56152C0.14974 3.35189 0.0449219 3.09733 0.0449219 2.79785C0.0449219 2.49837 0.14974 2.24382 0.359375 2.03418L1.39258 1.0459C1.60221 0.836263 1.85677 0.731445 2.15625 0.731445C2.45573 0.731445 2.71029 0.836263 2.91992 1.0459L7.23242 5.3584L11.5449 1.0459C11.7546 0.836263 12.0091 0.731445 12.3086 0.731445C12.6081 0.731445 12.8626 0.836263 13.0723 1.0459L14.1055 2.03418C14.3151 2.24382 14.4199 2.49837 14.4199 2.79785C14.4199 3.09733 14.3151 3.35189 14.1055 3.56152L7.99609 9.6709C7.78646 9.88053 7.5319 9.98535 7.23242 9.98535C6.93294 9.98535 6.67839 9.88053 6.46875 9.6709Z" fill="white"/>
</svg>
