<svg width="26" height="20" viewBox="0 0 26 20" fill="none" xmlns="http://www.w3.org/2000/svg">
<path d="M4.14067 4.96571H18.7379C22.749 4.96571 26 8.29195 26 12.3962C26 16.5007 22.7478 19.8267 18.7339 19.8267H0.764837C0.342449 19.8267 0 19.4765 0 19.0445C0 18.6125 0.342442 18.2625 0.764837 18.2625H18.7339C21.9032 18.2625 24.4703 15.6365 24.4703 12.3964C24.4703 9.15622 21.9041 6.5303 18.7379 6.5303H4.14067L7.42375 9.888C7.72237 10.1934 7.72237 10.6886 7.42375 10.9942C7.12513 11.2996 6.64093 11.2996 6.34217 10.9942L1.75352 6.30122C1.4549 5.99581 1.4549 5.50061 1.75352 5.19506L6.34217 0.502116C6.64093 0.19656 7.12513 0.19656 7.42375 0.502116C7.72237 0.807524 7.72237 1.30272 7.42375 1.60828L4.14067 4.96571Z" fill="#0A51A5"/>
</svg>
