<svg width="11" height="17" viewBox="0 0 11 17" fill="none" xmlns="http://www.w3.org/2000/svg">
<path d="M11 2.60645V3.40645C11 3.62736 10.8461 3.80645 10.6562 3.80645H0.34375C0.153902 3.80645 0 3.62736 0 3.40645V2.60645C0 2.38554 0.153902 2.20645 0.34375 2.20645H3.4375V1.40645C3.4375 0.964617 3.7453 0.606445 4.125 0.606445H6.875C7.2547 0.606445 7.5625 0.964617 7.5625 1.40645V2.20645H10.6562C10.8461 2.20645 11 2.38554 11 2.60645ZM1.28562 15.1184C1.33626 15.958 1.93729 16.6085 2.66062 16.6064H8.35312C9.07646 16.6085 9.67749 15.958 9.72812 15.1184L10.3125 5.40645H0.6875L1.28562 15.1184Z" fill="white"/>
</svg>
