<svg width="23" height="23" viewBox="0 0 23 23" fill="none" xmlns="http://www.w3.org/2000/svg">
<path fill-rule="evenodd" clip-rule="evenodd" d="M22.9977 18.5327C22.9657 17.643 22.5951 16.8128 21.9542 16.1949C20.6995 14.985 19.6483 14.2865 18.6459 13.9969C17.2646 13.5976 15.9854 13.9607 14.8437 15.0757L14.8385 15.0808L13.6227 16.2876C12.8675 15.8634 11.3994 14.9298 9.79379 13.3241L9.67555 13.2059C8.08046 11.6109 7.14092 10.1345 6.71344 9.37618L7.9191 8.16145L7.92418 8.15628C9.03919 7.01463 9.4022 5.73534 9.00302 4.35408C8.71337 3.35173 8.01497 2.30047 6.80504 1.04575C6.18714 0.404939 5.35689 0.0343318 4.4673 0.00225744C3.57789 -0.029772 2.72289 0.279921 2.06034 0.874688L2.03455 0.897868C2.02256 0.908604 2.01088 0.9197 1.99951 0.931065C0.680604 2.24989 -0.0107449 4.09627 0.000126257 6.27054C0.0185443 9.96403 2.04852 14.188 5.43025 17.5697L5.43869 17.578C6.07443 18.2129 6.79623 18.8411 7.58425 19.4453C7.97799 19.7472 8.54194 19.6728 8.84391 19.279C9.14583 18.8852 9.07139 18.3213 8.67761 18.0194C7.94826 17.4602 7.28319 16.8813 6.70086 16.299L6.69246 16.2907C3.64294 13.2377 1.81309 9.48925 1.79696 6.26151C1.7886 4.587 2.29231 3.18934 3.25382 2.2179L3.2607 2.2117C3.91377 1.62556 4.9025 1.66123 5.51164 2.29292C7.83775 4.70514 7.66929 5.84396 6.64148 6.89792L4.97604 8.5759C4.71486 8.83905 4.64214 9.23562 4.79298 9.57433C4.83525 9.6693 5.85804 11.9295 8.40534 14.4768L8.52357 14.5949C11.0706 17.1419 13.3307 18.1646 13.4257 18.207C13.7644 18.3578 14.161 18.2851 14.4241 18.0239L16.1018 16.3587C17.1559 15.3308 18.2948 15.1621 20.7071 17.4883C21.3388 18.0974 21.3744 19.0862 20.7884 19.7391L20.7821 19.7462C19.8185 20.6998 18.4357 21.2031 16.7794 21.2031L16.7384 21.203C15.4146 21.1964 13.8815 20.8335 12.3051 20.1536C11.8495 19.957 11.3209 20.167 11.1243 20.6227C10.9278 21.0783 11.1378 21.607 11.5934 21.8035C13.4156 22.5895 15.1436 22.992 16.7295 22.9999L16.7799 23C18.9323 23 20.7603 22.3091 22.0689 21.0005C22.0803 20.9891 22.0913 20.9775 22.1021 20.9655L22.1254 20.9396C22.72 20.2771 23.0298 19.4223 22.9977 18.5327ZM12.039 2.74424L12.0839 2.74415C14.2734 2.74415 16.3251 3.59066 17.8647 5.13031C19.4171 6.68268 20.2662 8.75184 20.2557 10.9566C20.2534 11.4527 20.6537 11.8569 21.1499 11.8593H21.1542C21.6483 11.8593 22.0501 11.4598 22.0525 10.9651C22.0653 8.2771 21.0293 5.75374 19.1353 3.85969C17.256 1.98038 14.7537 0.947266 12.0842 0.947266L12.0348 0.947355C11.5386 0.949736 11.1383 1.3539 11.1406 1.85006C11.143 2.34479 11.5448 2.74424 12.039 2.74424ZM14.2639 5.06111C14.7085 5.18407 15.6333 5.43986 16.5969 6.40351C17.526 7.33259 17.784 8.20907 17.9226 8.67996L17.9226 8.68003L17.9347 8.72127C18.0756 9.19704 17.8041 9.69693 17.3283 9.83776C17.2432 9.86296 17.1573 9.875 17.0729 9.87495C16.6852 9.87495 16.3274 9.62195 16.2118 9.23127L16.1988 9.18729L16.1988 9.18719C16.0923 8.82561 15.9315 8.27927 15.3264 7.67409C14.6976 7.04541 14.1483 6.89348 13.7848 6.79294C13.3065 6.66069 13.0261 6.16579 13.1583 5.68755C13.2906 5.20926 13.7854 4.92877 14.2637 5.06107L14.2639 5.06111Z" fill="#EE7203"/>
</svg>
