<svg width="21" height="22" viewBox="0 0 21 22" fill="none" xmlns="http://www.w3.org/2000/svg">
<path d="M14.6719 13.0625C13.3125 13.0625 12.7031 13.75 10.5 13.75C8.25 13.75 7.64062 13.0625 6.28125 13.0625C2.8125 13.0625 0 15.6836 0 18.8633V19.9375C0 21.0976 0.984375 22 2.25 22H18.75C19.9688 22 21 21.0976 21 19.9375V18.8633C21 15.6836 18.1406 13.0625 14.6719 13.0625ZM18.75 19.9375H2.25V18.8633C2.25 16.8008 4.03125 15.125 6.28125 15.125C6.98438 15.125 8.0625 15.8125 10.5 15.8125C12.8906 15.8125 13.9688 15.125 14.6719 15.125C16.9219 15.125 18.75 16.8008 18.75 18.8633V19.9375ZM10.5 12.375C14.2031 12.375 17.25 9.625 17.25 6.1875C17.25 2.79297 14.2031 0 10.5 0C6.75 0 3.75 2.79297 3.75 6.1875C3.75 9.625 6.75 12.375 10.5 12.375ZM10.5 2.0625C12.9375 2.0625 15 3.95313 15 6.1875C15 8.46485 12.9375 10.3125 10.5 10.3125C8.01562 10.3125 6 8.46485 6 6.1875C6 3.95313 8.01562 2.0625 10.5 2.0625Z" fill="#096B78"/>
</svg>
