<svg width="23" height="41" viewBox="0 0 23 41" fill="none" xmlns="http://www.w3.org/2000/svg">
<path d="M14.2067 40.5229H7.71737C6.63344 40.5229 5.7517 39.6411 5.7517 38.5572V23.9201H1.96567C0.881738 23.9201 0 23.038 0 21.9544V15.6824C0 14.5985 0.881738 13.7167 1.96567 13.7167H5.7517V10.5759C5.7517 7.4617 6.72959 4.81215 8.57932 2.91419C10.4374 1.00757 13.0341 0 16.0886 0L21.0377 0.00803825C22.1198 0.00989328 23 0.891632 23 1.97371V7.79714C23 8.88107 22.1186 9.76281 21.035 9.76281L17.7028 9.76405C16.6865 9.76405 16.4278 9.96779 16.3724 10.0302C16.2812 10.1338 16.1727 10.4266 16.1727 11.2351V13.7164H20.7845C21.1317 13.7164 21.4681 13.8021 21.7572 13.9634C22.3807 14.3119 22.7684 14.9707 22.7684 15.6827L22.766 21.9547C22.766 23.038 21.8842 23.9198 20.8003 23.9198H16.1727V38.5572C16.1727 39.6411 15.2907 40.5229 14.2067 40.5229ZM8.12732 38.1472H13.7968V22.8566C13.7968 22.1328 14.3857 21.5442 15.1092 21.5442H20.3903L20.3925 16.0923H15.1089C14.3854 16.0923 13.7968 15.5037 13.7968 14.7799V11.2351C13.7968 10.3069 13.8911 9.25145 14.5916 8.45814C15.4381 7.49911 16.7722 7.38842 17.7022 7.38842L20.6244 7.38719V2.38304L16.0868 2.37562C11.1779 2.37562 8.12732 5.51798 8.12732 10.5759V14.7799C8.12732 15.5034 7.53867 16.0923 6.81523 16.0923H2.37562V21.5442H6.81523C7.53867 21.5442 8.12732 22.1328 8.12732 22.8566V38.1472ZM21.0331 2.38366H21.0334H21.0331Z" fill="white"/>
</svg>
