<svg width="25" height="22" viewBox="0 0 25 22" fill="none" xmlns="http://www.w3.org/2000/svg">
<path d="M22.3871 1.60227C19.5543 -0.800355 15.2076 -0.457125 12.5214 2.33776C9.7863 -0.457125 5.43959 -0.800355 2.60687 1.60227C-1.05613 4.69135 -0.518889 9.74176 2.11847 12.4386L10.6655 21.2155C11.1538 21.7058 11.7888 22 12.5214 22C13.2051 22 13.8401 21.7058 14.3285 21.2155L22.9243 12.4386C25.5128 9.74176 26.0501 4.69135 22.3871 1.60227ZM21.2149 10.7714L12.6679 19.5483C12.5702 19.6464 12.4725 19.6464 12.3261 19.5483L3.77903 10.7714C1.97195 8.95721 1.63007 5.52491 4.12091 3.41648C6.02567 1.79839 8.9561 2.04356 10.812 3.90682L12.5214 5.672L14.2307 3.90682C16.0378 2.04356 18.9682 1.79839 20.873 3.36745C23.3638 5.52491 23.022 8.95721 21.2149 10.7714Z" fill="#096B78"/>
</svg>
