<svg width="79" height="98" viewBox="0 0 79 98" fill="none" xmlns="http://www.w3.org/2000/svg">
<g clip-path="url(#clip0)">
<path d="M63.8019 48.8017C63.8019 46.4647 64.7625 44.223 66.4732 42.5682C68.1839 40.9133 70.5051 39.9804 72.9277 39.9737V7.3885C72.9265 5.84185 72.2892 4.35884 71.1554 3.26519C70.0216 2.17153 68.4843 1.55663 66.8809 1.55554H7.47492C5.867 1.55663 4.32527 2.17327 3.18832 3.27003C2.05136 4.36677 1.41211 5.85398 1.41098 7.40502V90.5991C1.41098 92.1494 2.04941 93.6362 3.18581 94.7324C4.32221 95.8286 5.86352 96.4444 7.47063 96.4444H66.8895C68.4901 96.4444 70.0254 95.8314 71.1577 94.7399C72.2899 93.6485 72.9265 92.1679 72.9277 90.6239V57.6296C70.5051 57.6231 68.1839 56.69 66.4732 55.0352C64.7625 53.3804 63.8019 51.1387 63.8019 48.8017Z" stroke="#EE7203" stroke-width="2"/>
<path d="M49.9521 27.8825H47.0871V19.4141C51.1939 19.3232 52.9583 19.5091 52.9583 23.6029C52.9583 25.7179 52.3844 27.8825 49.9605 27.8825H49.9521ZM57.1251 30.6875V30.5966C60.6539 29.0352 61.5617 26.4078 61.5617 22.7478C61.5617 15.8945 58.1358 13.2465 51.2581 13.2465H38.9932V47.6577H47.3826V34.0915H50.149C52.1061 34.232 52.7742 35.6116 53.0097 37.7267C53.0696 38.2638 53.0696 42.6096 53.0654 45.3981C53.0652 45.4982 53.0782 45.5983 53.1039 45.6955C53.1799 46.2398 53.4622 46.7379 53.8963 47.0933C54.3305 47.4488 54.8858 47.6367 55.455 47.6205H61.2876V35.149C61.2876 32.6993 59.4504 31.1915 57.1123 30.6875" fill="#EE7203"/>
<path d="M35.8668 43.0469C35.8646 42.4318 35.6094 41.8429 35.1574 41.409C34.7052 40.9753 34.0934 40.7324 33.4558 40.7334H21.936V15.3609C21.9366 15.0671 21.8771 14.776 21.761 14.5044C21.6447 14.2328 21.4742 13.986 21.259 13.778C21.0438 13.57 20.7881 13.405 20.5068 13.2925C20.2254 13.1799 19.9238 13.1219 19.6192 13.1219H13.5424V47.6281H35.8711V43.0469H35.8668Z" fill="#EE7203"/>
<path d="M24.8009 64.9496H21.9403V56.4976C26.0429 56.4025 27.8029 56.5844 27.8029 60.6822C27.8029 62.8015 27.2334 64.962 24.8053 64.962L24.8009 64.9496ZM31.6571 67.7628V67.6512C35.1945 66.098 36.0981 63.4749 36.0981 59.8024C36.0981 52.9491 32.6722 50.301 25.7989 50.301H13.5424V84.8156H21.9403V71.1833H24.7068C26.6595 71.3196 27.3277 72.7035 27.5675 74.8185C27.6231 75.3514 27.6231 79.6972 27.6188 82.4899C27.6198 82.5889 27.6343 82.6876 27.6617 82.7831C27.7321 83.3379 28.0088 83.8493 28.4403 84.2223C28.8718 84.5951 29.4291 84.8045 30.0084 84.8114H35.8197V72.216C35.8197 69.6341 34.004 68.2585 31.67 67.7503" fill="#EE7203"/>
<path d="M55.3694 50.2723C54.7578 50.2778 54.1734 50.5162 53.7434 50.9356C53.3134 51.355 53.0727 51.9214 53.074 52.5112C53.074 52.5567 53.074 52.598 53.074 52.6435V76.0785C53.074 77.5491 52.4101 79.3833 50.2304 79.3833C47.8579 79.3833 47.3355 77.9583 47.3355 76.2975V52.5072C47.3332 51.9176 47.09 51.3527 46.6586 50.9352C46.2274 50.5175 45.6426 50.2807 45.0315 50.2764H38.9932V75.2524C38.9932 82.3412 43.1173 85.6046 50.1875 85.6046C58.7183 85.6046 61.4247 81.0977 61.4247 75.2524V50.2723H55.3694Z" fill="#EE7203"/>
<path d="M72.9541 54.6344C76.2937 54.6344 79.0008 52.0229 79.0008 48.8014C79.0008 45.58 76.2937 42.9685 72.9541 42.9685C69.6145 42.9685 66.9072 45.58 66.9072 48.8014C66.9072 52.0229 69.6145 54.6344 72.9541 54.6344Z" fill="#EE7203"/>
</g>
<defs>
<clipPath id="clip0">
<rect width="79" height="98" fill="white"/>
</clipPath>
</defs>
</svg>
