<svg width="36" height="29" viewBox="0 0 36 29" fill="none" xmlns="http://www.w3.org/2000/svg">
<path fill-rule="evenodd" clip-rule="evenodd" d="M2.69003 15.0268C2.03409 15.5554 1.01525 15.513 0.417758 14.932C-0.178971 14.351 -0.130382 13.4485 0.524805 12.92L15.4719 0.865971C16.903 -0.288657 19.097 -0.288657 20.5281 0.865971L26.9054 6.00901V4.21016C26.9054 3.7132 27.3647 3.30636 27.9257 3.30636H30.2337C30.7947 3.30636 31.2541 3.7132 31.2541 4.21016V9.51593L35.4752 12.92C36.1304 13.4485 36.179 14.351 35.5822 14.932C34.9848 15.513 33.9659 15.5554 33.31 15.0268C28.1406 10.8575 23.6666 7.24971 18.3629 2.97281C18.1594 2.80806 17.8406 2.80806 17.6371 2.97281L2.69003 15.0268Z" fill="#0358AC"/>
<path fill-rule="evenodd" clip-rule="evenodd" d="M31.1475 15.5326V27.0977C31.1475 28.1454 30.1833 29.0001 29.0005 29.0001H21.7593V19.3233H14.2432V29.0001H7.00199C5.81916 29.0001 4.85498 28.1454 4.85498 27.0977V15.5326L18.0012 4.93115L31.1475 15.5326Z" fill="#0358AC"/>
</svg>
