<svg width="19" height="17" viewBox="0 0 19 17" fill="none" xmlns="http://www.w3.org/2000/svg">
<path d="M13.8666 1.54545C15.7524 1.54545 17.419 2.754 17.419 5.18655C17.419 9.02159 12.2508 11.5979 9.4996 14.409C6.74845 11.5979 1.58102 9.02236 1.58102 5.18732C1.58102 2.82664 3.17076 1.54545 5.13338 1.54545C7.65099 1.54545 8.96996 4.36127 9.4996 5.65018C10.0277 4.36282 11.3466 1.54545 13.8666 1.54545ZM13.8666 0C12.1455 0 10.4259 0.820636 9.4996 2.64195C8.57332 0.820636 6.85374 0 5.13338 0C2.43923 0 0 1.84682 0 5.16877C0 10.7865 7.8402 13.6209 9.4996 17C11.159 13.6209 19 10.7865 19 5.16877C19 1.62505 16.2971 0 13.8666 0Z" fill="white"/>
</svg>
