<svg width="17" height="17" viewBox="0 0 17 17" fill="none" xmlns="http://www.w3.org/2000/svg">
<path d="M7.72318 0.180821C5.74302 0.383461 3.97503 1.21663 2.59616 2.5989C1.31844 3.87339 0.540861 5.4124 0.233672 7.26846C0.148672 7.78475 0.148672 9.20289 0.233672 9.71935C0.540861 11.5754 1.31861 13.1146 2.59633 14.3889C4.17784 15.9704 6.24639 16.8265 8.49124 16.8265C10.87 16.8265 13.0562 15.8592 14.6607 14.1013C17.0135 11.523 17.5036 7.7227 15.8796 4.62156C14.7751 2.5139 12.772 0.945311 10.4682 0.386522C9.82761 0.229782 9.44851 0.18728 8.63812 0.177591C8.20683 0.170961 7.79509 0.174191 7.72318 0.180821ZM11.2099 3.36356C11.8013 3.54648 12.298 4.07926 12.4614 4.70656C12.5398 5.00066 12.5138 5.52681 12.4125 5.79796C12.1184 6.56908 11.4224 7.05273 10.6152 7.05596C10.2492 7.05596 9.86042 6.93832 9.55323 6.73245L9.45514 6.66717L7.96832 7.54947C7.1513 8.03635 6.46518 8.44163 6.44563 8.45455C6.41945 8.47087 6.41299 8.55587 6.42268 8.71601L6.44223 8.95452L7.87346 9.67345C8.6643 10.0656 9.32101 10.3891 9.33733 10.3891C9.35042 10.3891 9.46143 10.3239 9.57584 10.2453C9.87317 10.0493 10.1411 9.96109 10.517 9.94137C11.0953 9.91196 11.5626 10.0916 11.9711 10.5002C12.5398 11.0753 12.6802 11.9543 12.3142 12.6765C11.9319 13.4313 11.0562 13.8561 10.2458 13.6764C9.36351 13.4804 8.72312 12.696 8.71972 11.8105V11.6471L7.26231 10.9185L5.80813 10.1897L5.58611 10.337C5.2626 10.5527 4.91955 10.6605 4.53722 10.6605C3.99152 10.6637 3.58964 10.4939 3.19422 10.0984C2.80866 9.71289 2.64189 9.30761 2.64189 8.76191C2.64189 8.24562 2.81835 7.83065 3.19745 7.44492C3.60596 7.02995 4.02739 6.86981 4.63854 6.89922C5.01101 6.91877 5.21365 6.97759 5.52083 7.16391L5.69729 7.27169L7.21675 6.36984L8.73621 5.46799L8.72635 5.25889C8.7034 4.79479 8.90281 4.24586 9.21969 3.89957C9.48761 3.60547 9.87317 3.38328 10.272 3.29828C10.4779 3.25238 10.9649 3.28519 11.2099 3.36356Z" fill="white"/>
</svg>
