<svg width="23" height="22" viewBox="0 0 23 22" xmlns="http://www.w3.org/2000/svg">
<path d="M0.821429 3.9375H22.1786C22.6323 3.9375 23 3.54577 23 3.0625V0.875C23 0.391727 22.6323 0 22.1786 0H0.821429C0.367743 0 0 0.391727 0 0.875V3.0625C0 3.54577 0.367743 3.9375 0.821429 3.9375ZM0.821429 12.6875H22.1786C22.6323 12.6875 23 12.2958 23 11.8125V9.625C23 9.14173 22.6323 8.75 22.1786 8.75H0.821429C0.367743 8.75 0 9.14173 0 9.625V11.8125C0 12.2958 0.367743 12.6875 0.821429 12.6875ZM0.821429 21.4375H22.1786C22.6323 21.4375 23 21.0458 23 20.5625V18.375C23 17.8917 22.6323 17.5 22.1786 17.5H0.821429C0.367743 17.5 0 17.8917 0 18.375V20.5625C0 21.0458 0.367743 21.4375 0.821429 21.4375Z" fill="white"/>
</svg>
