<svg width="25" height="22" viewBox="0 0 25 22" fill="none" xmlns="http://www.w3.org/2000/svg">
<path d="M24.8215 0.323563C24.5382 -0.0367149 24.0159 -0.107548 23.6504 0.168841C20.3612 2.65717 17.2857 5.43356 14.4495 8.45606C12.9384 10.0702 11.4968 11.7574 10.1501 13.5363C9.43455 14.4883 8.74621 15.4663 8.09566 16.4808H8.05455L4.25427 8.878C4.2176 8.80522 4.17594 8.73161 4.13066 8.66161C3.4301 7.57745 1.95927 7.29134 0.89955 8.05745C-0.094061 8.77578 -0.268783 10.1969 0.396494 11.2269L6.54844 20.7486L6.62371 20.8655C6.84121 21.2033 7.18871 21.4644 7.63343 21.5644C8.39593 21.7358 9.15344 21.2811 9.46899 20.5658C10.2807 18.7266 11.3307 16.9252 12.477 15.1861C13.6454 13.4236 14.9259 11.7183 16.2843 10.0722C18.8351 6.98773 21.654 4.10106 24.7051 1.47801C25.0468 1.18412 25.0995 0.677451 24.8215 0.323563Z" fill="white"/>
</svg>
