<svg width="417" height="330" viewBox="0 0 417 330" fill="none" xmlns="http://www.w3.org/2000/svg">
<path d="M237.976 63.5744C261.945 84.8554 284.619 119.679 280.516 150.633C276.413 181.829 245.534 208.914 207.528 235.515C169.738 261.875 124.606 287.509 87.8957 274.934C51.1855 262.358 22.4651 211.816 8.64479 154.502C-5.17553 96.9469 -4.09581 32.862 24.1927 10.3718C52.4811 -12.1184 107.978 6.9862 148.576 20.5287C188.957 34.0711 214.222 42.0515 237.976 63.5744Z" fill="#EE7203"/>
<path d="M395.111 151.354C406.998 182.141 419.045 223.493 403.962 250.339C388.531 277.284 345.788 289.592 302.566 302.953C258.998 316.413 214.604 331.026 184.163 317.289C153.723 303.553 137.071 261.697 150.344 226.592C163.617 191.487 206.651 163.362 235.027 134.518C263.404 105.674 277.104 75.7514 295.512 66.6089C313.92 57.4664 337.201 68.8741 354.348 84.609C371.679 100.474 383.224 120.566 395.111 151.354Z" fill="white"/>
<path d="M265.601 294.08H283.199" stroke="#222830" stroke-width="2"/>
<path d="M125.525 277.205L130.452 286.346C134.218 292.336 138.195 294.08 141.714 294.08C145.234 294.08 266.305 294.08 266.305 294.08" stroke="#222830" stroke-width="2"/>
<path d="M259.969 282.479H272.218" stroke="#222830" stroke-width="2"/>
<path d="M119.893 265.955C119.893 265.955 93.8488 219.547 92.441 216.735C91.0332 213.922 93.1449 209 96.6644 209C100.184 209 212.104 209 212.104 209C218.112 209.347 221.255 211.11 223.367 214.625C225.478 218.141 266.305 294.081 266.305 294.081" stroke="#222830" stroke-width="2"/>
<path d="M324.727 144.395C324.666 139.506 326.458 137.723 329.657 136.191" stroke="#222830" stroke-width="2"/>
<path d="M282.496 143.988C288.524 138.374 295.344 137.459 306.998 140.462C297.217 149.061 289.209 152.597 282.496 143.988Z" stroke="#222830" stroke-width="2"/>
<path d="M265.395 145.136C264.893 150.33 262.35 153.07 253.986 156.09" stroke="#222830" stroke-width="2"/>
<path d="M273.072 143.405C273.072 143.405 273.879 150.095 272.108 153.745C270.658 156.732 266.354 160.006 266.354 160.006L272.341 165.104" stroke="#222830" stroke-width="2"/>
<path d="M321.015 148.262C325.1 172.278 310.856 194.587 293.833 199.521C279.252 203.748 266.23 192.141 260.813 182.983C253.645 170.863 252.146 160.726 255.499 147.045C279.219 141.895 292.605 136.427 316.583 123.408L319.133 133.02" stroke="#222830" stroke-width="2"/>
<path d="M318.584 131.725C318.584 131.725 327.852 124.736 331.719 128.441C335.586 132.147 336.375 139.59 334.425 145.625C332.286 152.244 322.016 152.421 322.016 152.421" stroke="#222830" stroke-width="2"/>
<path d="M329.074 113.201C317.37 128.864 239.042 162.282 233.043 140.978C232.599 139.4 234.829 135.78 236.462 133.416C237.356 132.123 238.071 131.205 238.071 131.205C236.404 125.104 235.073 119.551 234.247 114.496C230.89 93.9478 235.882 81.6418 260.562 74.2988C263.93 73.3057 267.16 72.511 270.257 71.9188C299.654 66.2976 317.156 78.9106 329.074 113.201Z" fill="#EE7203"/>
<path d="M236.462 133.416C234.829 135.78 232.599 139.4 233.043 140.978C239.042 162.282 317.37 128.864 329.074 113.201C317.156 78.9106 299.654 66.2976 270.257 71.9188M236.462 133.416C237.356 132.123 238.071 131.205 238.071 131.205C236.404 125.104 235.073 119.551 234.247 114.496M236.462 133.416C251.333 137.076 262.026 133.448 281.245 126.629M260.562 74.2988C235.882 81.6418 230.89 93.9478 234.247 114.496M260.562 74.2988C245.638 85.9805 253.901 100.042 234.247 114.496M260.562 74.2988C263.93 73.3057 267.16 72.511 270.257 71.9188M270.257 71.9188C260.64 78.0851 255.499 89.701 258.515 101.903C261.044 116.871 277.165 106.208 282.738 122.94L313.72 116.663L310.444 103.54L319.79 100.337L324.362 112.91" stroke="white" stroke-width="2"/>
<ellipse cx="258.472" cy="151.773" rx="3" ry="2.99654" transform="rotate(-23 258.472 151.773)" fill="#222830"/>
<ellipse cx="287.883" cy="145.399" rx="3" ry="2.99654" transform="rotate(-23 287.883 145.399)" fill="#222830"/>
<path d="M284 173.5C282.097 173.22 280.782 174.067 279.5 175.5C277.283 177.978 277.097 182.378 280 184C282.898 185.62 286.766 183.237 287.5 180C288.137 177.188 286.852 173.92 284 173.5Z" stroke="#222830" stroke-width="2"/>
<path d="M87.6874 123.873C83.0059 123.873 80.6665 126.37 80.6665 131.362C80.6665 133.774 81.2724 135.651 82.4815 136.988C83.6906 138.326 85.4268 139 87.6874 139C89.9508 139 91.6897 138.312 92.9151 136.94C94.1405 135.569 94.7573 133.709 94.7573 131.362C94.7573 128.98 94.1514 127.135 92.9423 125.828C91.7332 124.522 89.9807 123.873 87.6874 123.873Z" fill="white" fill-opacity="0.8"/>
<path d="M105.503 68.7632C101.841 65.5887 96.8902 64 90.6517 64C84.4486 64 78.5797 65.3347 73.0287 67.9674C69.9149 69.4235 71.3115 72.7249 71.3169 72.7419L72.5613 75.4479C72.5613 75.4479 74.0313 78.0355 77.1994 76.7629C77.232 76.7516 77.2429 76.7572 77.2728 76.7431C78.6422 76.1477 80.0279 75.5947 81.4354 75.1065C84.0139 74.2148 86.8152 73.7662 89.842 73.7662C93.184 73.7662 95.7463 74.5111 97.5314 75.9982C99.3165 77.4853 100.205 79.6185 100.205 82.398C100.205 84.7796 99.6534 86.8282 98.5557 88.5495C97.458 90.2707 95.0154 92.6834 91.2277 95.7901C88.046 98.3692 85.8153 100.867 84.541 103.279C83.2667 105.695 82.6309 108.722 82.6309 112.36C82.5086 115.006 85.7555 115.534 85.7555 115.534H87.7173C87.7173 115.534 91.4505 115.557 92.0211 112.216C92.0293 112.171 92.0429 112.156 92.051 112.111C92.1814 109.995 92.6488 108.243 93.4938 106.902C94.4964 105.314 96.4826 103.313 99.4415 100.898C102.911 98.0871 105.354 95.8042 106.769 94.0519C108.185 92.2996 109.247 90.457 109.948 88.5212C110.649 86.5855 111 84.3789 111 81.8985C110.995 76.3199 109.166 71.9377 105.503 68.7632Z" fill="white" fill-opacity="0.8"/>
</svg>
