<svg width="698" height="255" viewBox="0 0 698 255" fill="none" xmlns="http://www.w3.org/2000/svg">
<path d="M233.9 203.1H197.5V250H129.95V203.1H0.45V157.95L110.35 4.99998H182.1L82.35 148.15H132.05V106.5H197.5V148.15H233.9V203.1ZM345.618 254.9C324.618 254.9 305.952 249.883 289.618 239.85C273.285 229.817 260.452 215.233 251.118 196.1C242.018 176.733 237.468 153.867 237.468 127.5C237.468 101.133 242.018 78.3833 251.118 59.25C260.452 39.8833 273.285 25.1833 289.618 15.15C305.952 5.11666 324.618 0.0999838 345.618 0.0999838C366.385 0.0999838 384.935 5.11666 401.268 15.15C417.602 25.1833 430.318 39.8833 439.418 59.25C448.752 78.3833 453.418 101.133 453.418 127.5C453.418 153.867 448.752 176.733 439.418 196.1C430.318 215.233 417.602 229.817 401.268 239.85C384.935 249.883 366.385 254.9 345.618 254.9ZM345.618 198.2C357.285 198.2 366.502 192.6 373.268 181.4C380.268 169.967 383.768 152 383.768 127.5C383.768 103 380.268 85.15 373.268 73.95C366.502 62.5167 357.285 56.8 345.618 56.8C333.718 56.8 324.268 62.5167 317.268 73.95C310.502 85.15 307.118 103 307.118 127.5C307.118 152 310.502 169.967 317.268 181.4C324.268 192.6 333.718 198.2 345.618 198.2ZM697.568 203.1H661.168V250H593.618V203.1H464.118V157.95L574.018 4.99998H645.768L546.018 148.15H595.718V106.5H661.168V148.15H697.568V203.1Z" fill="#E6EDFF"/>
</svg>
