<svg width="23" height="37" viewBox="0 0 23 37" fill="none" xmlns="http://www.w3.org/2000/svg">
<path d="M11.4998 0C6.52132 0 2.47266 4.04867 2.47266 9.02713C2.47266 14.0056 6.52132 18.0543 11.4998 18.0543C16.4782 18.0543 20.5269 14.0056 20.5269 9.02713C20.5269 4.04867 16.4782 0 11.4998 0ZM11.4998 15.7975C7.76707 15.7975 4.72944 12.7598 4.72944 9.02713C4.72944 5.29441 7.76707 2.25678 11.4998 2.25678C15.2325 2.25678 18.2701 5.29441 18.2701 9.02713C18.2701 12.7598 15.2325 15.7975 11.4998 15.7975Z" fill="white"/>
<path d="M20.3265 34.3324L12.4277 23.0485C12.008 22.4482 11.0037 22.4482 10.5794 23.0485L2.68068 34.3324C2.32411 34.8424 2.44597 35.5466 2.95826 35.9031C3.4683 36.262 4.17241 36.1378 4.52898 35.6278L11.5024 25.6641L18.4782 35.6278C18.6971 35.9415 19.0469 36.1085 19.4012 36.1085C19.6269 36.1085 19.8503 36.0431 20.0511 35.9031C20.5612 35.5466 20.6853 34.8447 20.3265 34.3324Z" fill="white"/>
<path d="M22.6699 18.6004C22.2299 18.1604 21.5145 18.1604 21.0744 18.6004C15.7913 23.8813 7.20422 23.8813 1.9256 18.6004C1.48553 18.1604 0.770127 18.1604 0.330054 18.6004C-0.110018 19.0405 -0.110018 19.7559 0.330054 20.196C3.41056 23.2742 7.45697 24.8156 11.5011 24.8156C15.5453 24.8156 19.5917 23.2742 22.6699 20.196C23.11 19.7559 23.11 19.0405 22.6699 18.6004Z" fill="white"/>
</svg>
