<svg width="240" height="188" viewBox="0 0 240 188" fill="none" xmlns="http://www.w3.org/2000/svg">
<path d="M47.3174 43.3224C72.0815 21.0894 120.805 -15.6196 147.312 14.522C163.578 34.3612 161.948 66.2892 156.506 97.3433C151.064 128.397 139.341 151.153 120.725 161.009C102.257 170.869 82.2621 171.67 57.1563 159.323C33.5689 144.295 1.19204 112.148 2.04953 91.766C2.75919 71.3801 22.5533 65.5555 47.3174 43.3224Z" fill="#9877FC"/>
<path d="M237.266 57.0868H89.6208C88.8956 57.0868 88.2002 57.3741 87.6874 57.8856C87.1747 58.3971 86.8866 59.0908 86.8866 59.8142V157.999C86.8866 158.722 87.1747 159.416 87.6874 159.928C88.2002 160.439 88.8956 160.727 89.6208 160.727H146.437L142.062 182.545H133.367C132.642 182.545 131.947 182.833 131.434 183.344C130.921 183.856 130.633 184.549 130.633 185.273C130.633 185.996 130.921 186.69 131.434 187.201C131.947 187.713 132.642 188 133.367 188H193.519C194.244 188 194.94 187.713 195.453 187.201C195.965 186.69 196.253 185.996 196.253 185.273C196.253 184.549 195.965 183.856 195.453 183.344C194.94 182.833 194.244 182.545 193.519 182.545H184.825L180.45 160.727H237.266C237.991 160.727 238.686 160.439 239.199 159.928C239.712 159.416 240 158.722 240 157.999V59.8142C240 59.0908 239.712 58.3971 239.199 57.8856C238.686 57.3741 237.991 57.0868 237.266 57.0868ZM92.3549 62.5415H234.532V78.9057H92.3549V62.5415ZM179.247 182.545H147.64L152.015 160.727H174.872L179.247 182.545ZM177.114 155.272H92.3549V84.3604H234.532V155.272H177.114Z" fill="#041224"/>
<path d="M99.5181 68.2172C99.1825 68.347 98.8759 68.5416 98.6159 68.7899C98.101 69.3035 97.8118 70 97.8118 70.7263C97.8118 71.4526 98.101 72.1492 98.6159 72.6628C99.1307 73.1763 99.829 73.4648 100.557 73.4648C101.285 73.4648 101.984 73.1763 102.498 72.6628C102.755 72.4092 102.958 72.1076 103.097 71.7752C103.236 71.4429 103.307 71.0864 103.307 70.7263C103.307 70.3663 103.236 70.0098 103.097 69.6774C102.958 69.3451 102.755 69.0434 102.498 68.7899C102.114 68.4115 101.626 68.1551 101.095 68.0532C100.565 67.9512 100.016 68.0083 99.5181 68.2172ZM118.001 68.2172C117.506 67.9882 116.954 67.9122 116.415 67.999C116.244 68.0284 116.078 68.0836 115.923 68.1626C115.749 68.2223 115.583 68.3048 115.431 68.4081C115.288 68.5085 115.151 68.6178 115.021 68.7354C114.765 68.9889 114.561 69.2905 114.422 69.6229C114.284 69.9553 114.212 70.3117 114.212 70.6718C114.212 71.0318 114.284 71.3883 114.422 71.7207C114.561 72.053 114.765 72.3547 115.021 72.6082L115.431 72.9355C115.583 73.0387 115.749 73.1213 115.923 73.181L116.415 73.3446H116.962C117.319 73.3403 117.672 73.2662 118.001 73.1264C118.332 72.9873 118.637 72.7937 118.903 72.5537C119.16 72.3001 119.363 71.9985 119.502 71.6661C119.641 71.3338 119.712 70.9773 119.712 70.6172C119.712 70.2572 119.641 69.9007 119.502 69.5684C119.363 69.236 119.16 68.9343 118.903 68.6808C118.634 68.4714 118.328 68.3142 118.001 68.2172ZM110.701 68.7899C110.256 68.342 109.668 68.062 109.039 67.9975C108.41 67.933 107.778 68.088 107.251 68.436C106.724 68.7841 106.333 69.3038 106.147 69.9065C105.961 70.5093 105.989 71.1579 106.229 71.7418C106.468 72.3258 106.902 72.809 107.458 73.1092C108.015 73.4094 108.658 73.5081 109.279 73.3883C109.9 73.2686 110.46 72.9379 110.864 72.4525C111.267 71.9671 111.49 71.3571 111.494 70.7263C111.489 70.3699 111.415 70.0178 111.275 69.6899C111.137 69.3594 110.942 69.055 110.701 68.7899ZM155.24 95.2726H111.494C110.769 95.2726 110.073 95.5599 109.56 96.0714C109.048 96.5829 108.76 97.2766 108.76 98V141.638C108.76 142.361 109.048 143.055 109.56 143.566C110.073 144.078 110.769 144.365 111.494 144.365H155.24C155.966 144.365 156.661 144.078 157.174 143.566C157.687 143.055 157.975 142.361 157.975 141.638V98C157.975 97.2766 157.687 96.5829 157.174 96.0714C156.661 95.5599 155.966 95.2726 155.24 95.2726ZM125.165 138.91V133.456C125.165 131.286 126.029 129.205 127.567 127.67C129.105 126.136 131.192 125.274 133.367 125.274C135.543 125.274 137.629 126.136 139.167 127.67C140.705 129.205 141.57 131.286 141.57 133.456V138.91H125.165ZM127.899 114.364C127.899 113.285 128.22 112.231 128.82 111.334C129.421 110.437 130.275 109.737 131.274 109.325C132.274 108.912 133.373 108.804 134.434 109.014C135.495 109.225 136.469 109.744 137.234 110.507C137.999 111.27 138.519 112.242 138.73 113.3C138.941 114.358 138.833 115.455 138.419 116.452C138.005 117.448 137.304 118.3 136.405 118.9C135.506 119.499 134.449 119.819 133.367 119.819C131.917 119.819 130.526 119.244 129.5 118.221C128.475 117.198 127.899 115.811 127.899 114.364ZM152.506 138.91H147.038V133.456C147.034 131.224 146.481 129.028 145.427 127.059C144.374 125.09 142.852 123.41 140.995 122.164C142.551 120.649 143.618 118.706 144.061 116.583C144.504 114.46 144.302 112.253 143.482 110.245C142.662 108.236 141.26 106.517 139.456 105.307C137.652 104.097 135.527 103.451 133.353 103.451C131.179 103.451 129.055 104.097 127.251 105.307C125.447 106.517 124.045 108.236 123.225 110.245C122.405 112.253 122.203 114.46 122.646 116.583C123.089 118.706 124.156 120.649 125.711 122.164C123.86 123.413 122.344 125.095 121.295 127.063C120.246 129.032 119.697 131.227 119.696 133.456V138.91H114.228V100.727H152.506V138.91ZM215.392 95.2726H171.645C170.92 95.2726 170.225 95.5599 169.712 96.0714C169.199 96.5829 168.911 97.2766 168.911 98V108.909C168.911 109.633 169.199 110.326 169.712 110.838C170.225 111.349 170.92 111.637 171.645 111.637H215.392C216.117 111.637 216.813 111.349 217.326 110.838C217.838 110.326 218.126 109.633 218.126 108.909V98C218.126 97.2766 217.838 96.5829 217.326 96.0714C216.813 95.5599 216.117 95.2726 215.392 95.2726ZM212.658 106.182H174.38V100.727H212.658V106.182ZM215.392 117.091H171.645C170.92 117.091 170.225 117.379 169.712 117.89C169.199 118.402 168.911 119.096 168.911 119.819V130.728C168.911 131.452 169.199 132.145 169.712 132.657C170.225 133.168 170.92 133.456 171.645 133.456H215.392C216.117 133.456 216.813 133.168 217.326 132.657C217.838 132.145 218.126 131.452 218.126 130.728V119.819C218.126 119.096 217.838 118.402 217.326 117.89C216.813 117.379 216.117 117.091 215.392 117.091ZM212.658 128.001H174.38V122.546H212.658V128.001ZM215.392 138.91H193.519C192.794 138.91 192.098 139.198 191.585 139.709C191.073 140.221 190.785 140.914 190.785 141.638C190.785 142.361 191.073 143.055 191.585 143.566C192.098 144.078 192.794 144.365 193.519 144.365H215.392C216.117 144.365 216.813 144.078 217.326 143.566C217.838 143.055 218.126 142.361 218.126 141.638C218.126 140.914 217.838 140.221 217.326 139.709C216.813 139.198 216.117 138.91 215.392 138.91ZM182.582 138.91H171.645C170.92 138.91 170.225 139.198 169.712 139.709C169.199 140.221 168.911 140.914 168.911 141.638C168.911 142.361 169.199 143.055 169.712 143.566C170.225 144.078 170.92 144.365 171.645 144.365H182.582C183.307 144.365 184.003 144.078 184.516 143.566C185.028 143.055 185.316 142.361 185.316 141.638C185.316 140.914 185.028 140.221 184.516 139.709C184.003 139.198 183.307 138.91 182.582 138.91Z" fill="#041224"/>
</svg>
