<svg width="24" height="25" viewBox="0 0 24 25" fill="none" xmlns="http://www.w3.org/2000/svg">
<path d="M23.6891 21.6098L18.9981 16.7316C18.7636 16.5366 18.4821 16.3902 18.2006 16.3902V16.3902C17.8902 16.3902 17.7087 16.0339 17.8755 15.7722C18.8926 14.1765 19.5141 12.2565 19.5141 10.1463C19.5141 4.58537 15.1046 0 9.75706 0C4.36253 0 0 4.58537 0 10.1463C0 15.7561 4.36253 20.2927 9.75706 20.2927C11.7209 20.2927 13.5421 19.6989 15.096 18.6409C15.3711 18.4535 15.7614 18.6427 15.7614 18.9756V18.9756C15.7614 19.2683 15.8552 19.561 16.0897 19.8049L20.7337 24.6342C21.2028 25.1219 21.9065 25.1219 22.3287 24.6342L23.6421 23.2683C24.1112 22.8292 24.1112 22.0975 23.6891 21.6098ZM9.75706 16.3902C6.42652 16.3902 3.75271 13.6097 3.75271 10.1463C3.75271 6.73169 6.42652 3.90244 9.75706 3.90244C13.0407 3.90244 15.7614 6.73169 15.7614 10.1463C15.7614 13.6097 13.0407 16.3902 9.75706 16.3902Z" fill="white"/>
</svg>
