<svg width="24" height="25" viewBox="0 0 24 25" fill="none" xmlns="http://www.w3.org/2000/svg">
<path d="M23.6175 21.6098L18.9407 16.7316C18.7069 16.5366 18.4263 16.3902 18.1456 16.3902V16.3902C17.8359 16.3902 17.6545 16.0348 17.8207 15.7735C18.8352 14.1775 19.4552 12.2571 19.4552 10.1463C19.4552 4.58537 15.059 0 9.72758 0C4.34935 0 0 4.58537 0 10.1463C0 15.7561 4.34935 20.2927 9.72758 20.2927C11.685 20.2927 13.5002 19.6993 15.049 18.6418C15.3237 18.4543 15.7138 18.643 15.7138 18.9756V18.9756C15.7138 19.2683 15.8073 19.561 16.0411 19.8049L20.6711 24.6342C21.1387 25.1219 21.8403 25.1219 22.2613 24.6342L23.5707 23.2683C24.0383 22.8292 24.0383 22.0975 23.6175 21.6098ZM9.72758 16.3902C6.40711 16.3902 3.74138 13.6097 3.74138 10.1463C3.74138 6.73169 6.40711 3.90244 9.72758 3.90244C13.0013 3.90244 15.7138 6.73169 15.7138 10.1463C15.7138 13.6097 13.0013 16.3902 9.72758 16.3902Z" fill="#9FADC0"/>
</svg>
