<svg width="656" height="579" viewBox="0 0 656 579" fill="none" xmlns="http://www.w3.org/2000/svg">
<path d="M324.61 92.0636C368.22 71.5121 429.534 101.144 477.46 143.417C525.866 185.722 561.14 240.443 574.557 300.727C587.974 361.012 579.053 426.829 534.767 442.989C490.224 459.374 409.834 426.072 351.608 448.558C293.158 470.789 256.648 548.553 220.245 562.335C183.873 575.636 147.865 524.73 107.495 470.398C67.1557 415.585 22.4229 357.827 41.9781 321.204C61.758 284.837 145.538 270.311 200.541 227.087C255.287 184.087 281.225 112.871 324.61 92.0636Z" fill="#2BCEBB"/>
<path d="M581.493 408.13L583.301 418.466C584.809 427.093 579.018 435.335 570.394 436.842L562.41 438.238C561.903 451.479 559.06 464.034 553.937 475.664L560.567 480.232C564.104 482.671 566.459 486.343 567.199 490.574C567.929 494.754 566.988 498.965 564.551 502.436L558.567 510.952C553.581 518.052 543.709 519.824 536.563 514.902L529.666 510.15C519.982 519.181 509.118 526.064 497.288 530.664L498.673 538.588C500.181 547.215 494.39 555.456 485.766 556.964L475.43 558.771C466.806 560.279 458.562 554.488 457.054 545.864L455.669 537.941C442.989 537.628 430.446 534.843 418.282 529.643L413.668 536.212C408.635 543.377 398.711 545.112 391.544 540.08L383.025 534.097C379.555 531.66 377.24 528.014 376.51 523.837C375.779 519.658 376.72 515.446 379.157 511.976L383.772 505.406C374.753 495.731 367.879 484.874 363.28 473.053L355.357 474.438C346.73 475.947 338.489 470.156 336.981 461.532L335.174 451.196C333.665 442.569 339.456 434.327 348.081 432.819L356.004 431.434C356.32 418.741 359.107 406.19 364.315 394.015L357.505 389.14C354.1 386.702 351.828 383.087 351.107 378.963C350.376 374.783 351.317 370.571 353.754 367.101L359.736 358.585C362.187 355.091 365.857 352.772 370.066 352.058C374.275 351.341 378.503 352.314 381.974 354.8L388.521 359.486C397.721 350.721 408.568 343.787 420.851 338.817L419.455 330.833C417.947 322.207 423.738 313.965 432.362 312.457L442.698 310.65C451.322 309.142 459.566 314.933 461.074 323.557L462.47 331.541C475.722 332.048 488.289 334.897 499.928 340.029L504.755 333.157C507.194 329.684 510.837 327.373 515.014 326.642C519.194 325.912 523.406 326.853 526.876 329.29L535.392 335.271C538.865 337.71 541.176 341.353 541.907 345.531C542.637 349.71 541.696 353.922 539.259 357.392L534.433 364.264C543.21 373.471 550.153 384.326 555.127 396.62L563.111 395.224C571.741 393.715 579.985 399.505 581.493 408.13L581.493 408.13ZM543.871 477.978C543.713 477.075 543.831 476.121 544.259 475.243C550.339 462.79 553.461 449.06 553.534 434.439C553.545 432.273 555.108 430.425 557.239 430.052L568.848 428.023C572.61 427.365 575.133 423.769 574.476 420.01L572.669 409.674C572.011 405.912 568.415 403.389 564.656 404.046L553.047 406.076C550.913 406.449 548.819 405.24 548.073 403.206C543.043 389.478 535.448 377.622 525.504 367.97C523.924 366.439 523.692 363.985 524.957 362.183L531.935 352.249C532.999 350.734 533.408 348.899 533.09 347.077C532.771 345.255 531.763 343.664 530.248 342.601L521.732 336.619C520.218 335.556 518.382 335.146 516.56 335.465C514.738 335.783 513.148 336.792 512.087 338.306L505.106 348.241C503.841 350.042 501.457 350.657 499.478 349.69C487.024 343.61 473.294 340.488 458.674 340.415C456.508 340.404 454.66 338.842 454.287 336.71L452.257 325.101C451.6 321.339 448.004 318.816 444.245 319.473L433.909 321.28C430.149 321.938 427.623 325.534 428.281 329.293L430.31 340.902C430.684 343.036 429.475 345.131 427.441 345.876C413.71 350.907 401.856 358.501 392.205 368.446C390.662 370.036 388.187 370.258 386.384 368.968L376.766 362.081C375.254 360.998 373.407 360.574 371.574 360.887C369.74 361.199 368.139 362.21 367.069 363.734L361.088 372.249C360.024 373.764 359.614 375.599 359.933 377.424C360.248 379.222 361.238 380.8 362.725 381.863L372.51 388.869C374.264 390.124 374.874 392.455 373.96 394.409C367.78 407.619 364.745 421.322 364.946 435.143C364.979 437.342 363.406 439.24 361.24 439.619L349.631 441.649C345.869 442.306 343.346 445.902 344.003 449.661L345.81 459.997C346.468 463.76 350.064 466.283 353.823 465.625L365.432 463.596C367.598 463.217 369.721 464.466 370.437 466.549C374.94 479.614 382.441 491.477 392.737 501.805C394.273 503.344 394.479 505.762 393.231 507.541L386.494 517.133C385.431 518.648 385.021 520.483 385.34 522.305C385.658 524.127 386.667 525.718 388.181 526.779L396.7 532.762C399.824 534.957 404.153 534.2 406.348 531.075L413.085 521.483C414.335 519.704 416.677 519.08 418.645 520.002C431.858 526.183 445.562 529.217 459.379 529.017C461.579 528.984 463.477 530.557 463.856 532.723L465.873 544.324C466.531 548.086 470.127 550.609 473.886 549.951L484.222 548.144C487.981 547.487 490.507 543.891 489.85 540.131L487.82 528.523C487.441 526.357 488.694 524.233 490.774 523.518C503.837 519.018 515.702 511.516 526.032 501.217C527.56 499.694 529.957 499.478 531.735 500.701L541.643 507.529C544.76 509.676 549.065 508.905 551.239 505.806L557.22 497.29C558.284 495.775 558.694 493.94 558.375 492.118C558.052 490.272 557.025 488.669 555.481 487.607L545.74 480.897C544.718 480.193 544.072 479.129 543.871 477.979L543.871 477.978Z" fill="white" fill-opacity="0.6"/>
<path d="M517.824 424.589C523.485 456.973 501.744 487.927 469.36 493.589C436.211 499.385 404.559 476.47 400.001 442.805C395.856 412.162 416.289 383.07 446.519 376.575C462.527 373.135 478.818 376.28 492.392 385.429C505.979 394.585 515.009 408.493 517.824 424.589ZM409.188 443.585C414 471.106 440.303 489.581 467.825 484.769C495.346 479.958 513.82 453.652 509.009 426.133C506.617 412.454 498.942 400.636 487.395 392.856C475.858 385.081 462.011 382.408 448.407 385.33C422.72 390.852 405.359 415.57 408.88 441.607C408.969 442.27 409.074 442.931 409.188 443.585L409.188 443.585Z" fill="white" fill-opacity="0.6"/>
<path d="M386.525 277.911C386.999 280.621 386.633 283.406 385.447 285.949L381.479 294.44C380.434 296.679 377.768 297.648 375.529 296.601C373.287 295.553 372.32 292.889 373.368 290.65L377.335 282.159C377.853 281.048 377.911 279.802 377.49 278.649C377.072 277.497 376.23 276.578 375.119 276.058L367.56 272.529C365.267 271.458 362.53 272.45 361.459 274.745L357.492 283.236C356.574 285.199 354.384 286.226 352.29 285.669C341.185 282.727 330.136 282.281 319.449 284.339C317.274 284.759 315.118 283.521 314.379 281.432L311.248 272.561C310.839 271.398 309.997 270.466 308.88 269.939C307.765 269.412 306.513 269.355 305.353 269.777L297.574 272.603C295.215 273.459 293.979 276.078 294.813 278.446L297.998 287.469C298.715 289.5 297.882 291.762 296.011 292.838C286.087 298.561 277.966 306.015 271.88 314.998C270.645 316.818 268.273 317.474 266.279 316.542L257.788 312.578C256.677 312.058 255.431 312.002 254.278 312.42C253.126 312.838 252.204 313.681 251.687 314.792L248.157 322.351C247.086 324.643 248.082 327.38 250.374 328.452L258.865 332.416C260.859 333.347 261.879 335.588 261.275 337.704C258.299 348.121 257.788 359.114 259.758 370.382L259.767 370.434C260.142 372.574 258.926 374.672 256.885 375.413L248.124 378.596C246.971 379.013 246.05 379.856 245.532 380.967C245.012 382.078 244.957 383.324 245.377 384.476L248.204 392.255C248.622 393.408 249.465 394.329 250.576 394.849C251.687 395.369 252.933 395.425 254.085 395.004L262.847 391.822C264.89 391.08 267.169 391.91 268.253 393.793C273.977 403.72 281.436 411.84 290.413 417.925C292.236 419.159 292.889 421.534 291.958 423.526L287.991 432.017C286.92 434.309 287.915 437.046 290.207 438.118L297.767 441.647C298.877 442.167 300.124 442.222 301.276 441.802C302.428 441.384 303.35 440.541 303.867 439.431L307.83 430.946C308.875 428.707 311.541 427.737 313.781 428.785C316.02 429.83 316.989 432.496 315.941 434.736L311.974 443.227C310.442 446.506 307.727 448.991 304.326 450.227C300.924 451.463 297.246 451.3 293.97 449.768L286.41 446.238C279.643 443.076 276.71 434.999 279.87 428.234L282.259 423.116C274.497 417.285 267.849 410.036 262.436 401.499L257.132 403.427C253.73 404.663 250.052 404.5 246.775 402.968C243.496 401.436 241.011 398.719 239.778 395.319L236.952 387.54C235.719 384.141 235.879 380.46 237.411 377.184C238.943 373.907 241.657 371.42 245.059 370.184L250.363 368.258C249.036 358.238 249.481 348.415 251.691 338.96L246.574 336.57C239.806 333.41 236.874 325.335 240.033 318.565L243.562 311.006C245.094 307.727 247.812 305.242 251.211 304.006C254.612 302.77 258.29 302.933 261.569 304.465L266.687 306.855C272.528 299.08 279.787 292.427 288.334 287.015L286.362 281.426C283.897 274.447 287.553 266.714 294.508 264.185L302.287 261.359C305.708 260.114 309.405 260.287 312.696 261.844C315.988 263.4 318.47 266.148 319.682 269.581L321.563 274.907C331.193 273.534 341.037 273.943 350.921 276.127L353.337 270.956C356.499 264.188 364.574 261.256 371.341 264.415L378.9 267.945C382.179 269.477 384.664 272.191 385.9 275.593C386.179 276.353 386.388 277.129 386.525 277.911Z" fill="white" fill-opacity="0.6"/>
<path d="M353.996 316.001C354.139 316.817 354.057 317.683 353.711 318.504C352.751 320.783 350.127 321.853 347.847 320.896C329.027 312.974 306.965 320.987 297.617 339.139C292.667 348.752 291.863 359.68 295.357 369.913C298.855 380.153 306.166 388.309 315.941 392.875C318.183 393.922 319.149 396.586 318.101 398.825C317.056 401.064 314.39 402.034 312.151 400.986C300.148 395.379 291.174 385.371 286.883 372.804C282.596 360.248 283.579 346.835 289.655 335.037C301.129 312.755 328.216 302.916 351.32 312.638C352.78 313.254 353.743 314.549 353.996 316.001L353.996 316.001Z" fill="white" fill-opacity="0.6"/>
<path d="M226.429 385H33.5714C32.6242 385 31.7158 385.375 31.046 386.043C30.3763 386.712 30 387.618 30 388.563V516.814C30 517.759 30.3763 518.665 31.046 519.333C31.7158 520.001 32.6242 520.376 33.5714 520.376H107.786L102.071 548.877H90.7143C89.7671 548.877 88.8587 549.252 88.1889 549.92C87.5191 550.588 87.1429 551.494 87.1429 552.439C87.1429 553.384 87.5191 554.29 88.1889 554.958C88.8587 555.626 89.7671 556.002 90.7143 556.002H169.286C170.233 556.002 171.141 555.626 171.811 554.958C172.481 554.29 172.857 553.384 172.857 552.439C172.857 551.494 172.481 550.588 171.811 549.92C171.141 549.252 170.233 548.877 169.286 548.877H157.929L152.214 520.376H226.429C227.376 520.376 228.284 520.001 228.954 519.333C229.624 518.665 230 517.759 230 516.814V388.563C230 387.618 229.624 386.712 228.954 386.043C228.284 385.375 227.376 385 226.429 385ZM37.1429 392.125H222.857V413.5H37.1429V392.125ZM150.643 548.877H109.357L115.071 520.376H144.929L150.643 548.877ZM147.857 513.251H37.1429V420.625H222.857V513.251H147.857Z" fill="#041224"/>
<circle cx="61.3493" cy="401.981" r="3.91866" fill="#041224"/>
<circle cx="73.1052" cy="401.981" r="3.91866" fill="#041224"/>
<circle cx="49.5932" cy="401.981" r="3.91866" fill="#041224"/>
<path d="M148.344 466.425C148.344 464.691 149.047 463.028 150.301 461.8C151.554 460.572 153.255 459.879 155.03 459.874V435.694C155.029 434.546 154.562 433.446 153.731 432.634C152.9 431.823 151.774 431.367 150.599 431.366H107.075C105.897 431.367 104.767 431.824 103.934 432.638C103.101 433.452 102.633 434.555 102.632 435.706V497.441C102.632 498.592 103.1 499.695 103.932 500.508C104.765 501.322 105.894 501.779 107.072 501.779H150.606C151.778 501.779 152.903 501.324 153.733 500.514C154.562 499.704 155.029 498.605 155.03 497.46V472.976C153.255 472.971 151.554 472.279 150.301 471.051C149.047 469.823 148.344 468.159 148.344 466.425Z" stroke="#041224" stroke-width="2.5"/>
<path d="M136.696 450.904H134.597V444.62C137.606 444.553 138.898 444.691 138.898 447.729C138.898 449.298 138.478 450.904 136.702 450.904H136.696ZM141.951 452.986V452.918C144.537 451.76 145.202 449.81 145.202 447.094C145.202 442.008 142.692 440.043 137.653 440.043H128.667V465.579H134.813V455.512H136.84C138.274 455.616 138.763 456.64 138.936 458.209C138.98 458.608 138.98 461.833 138.977 463.902C138.977 463.976 138.986 464.05 139.005 464.123C139.061 464.526 139.267 464.896 139.585 465.16C139.904 465.424 140.31 465.563 140.727 465.551H145.001V456.296C145.001 454.479 143.655 453.36 141.942 452.986" fill="#041224"/>
<path d="M126.377 462.15C126.375 461.694 126.188 461.256 125.857 460.935C125.526 460.613 125.078 460.432 124.61 460.433H116.17V441.605C116.171 441.387 116.127 441.171 116.042 440.97C115.957 440.768 115.832 440.585 115.674 440.431C115.516 440.276 115.329 440.154 115.123 440.07C114.917 439.987 114.696 439.944 114.473 439.944H110.021V465.549H126.38V462.15H126.377Z" fill="#041224"/>
<path d="M118.269 478.406H116.173V472.134C119.179 472.063 120.469 472.198 120.469 475.239C120.469 476.812 120.051 478.415 118.272 478.415L118.269 478.406ZM123.293 480.493V480.411C125.884 479.258 126.546 477.311 126.546 474.586C126.546 469.501 124.036 467.536 119 467.536H110.021V493.147H116.173V483.032H118.2C119.631 483.133 120.12 484.16 120.296 485.729C120.337 486.125 120.337 489.349 120.334 491.422C120.335 491.495 120.345 491.568 120.365 491.639C120.417 492.051 120.619 492.43 120.936 492.707C121.252 492.984 121.66 493.139 122.085 493.144H126.342V483.798C126.342 481.882 125.012 480.861 123.302 480.484" fill="#041224"/>
<path d="M140.665 467.518C140.217 467.522 139.788 467.699 139.473 468.01C139.158 468.322 138.982 468.742 138.983 469.18C138.983 469.213 138.983 469.244 138.983 469.278V486.668C138.983 487.759 138.497 489.12 136.9 489.12C135.161 489.12 134.779 488.063 134.779 486.83V469.177C134.777 468.739 134.599 468.32 134.283 468.01C133.967 467.7 133.538 467.524 133.091 467.521H128.667V486.055C128.667 491.315 131.688 493.737 136.868 493.737C143.118 493.737 145.101 490.392 145.101 486.055V467.518H140.665Z" fill="#041224"/>
<path d="M154.848 469.961C156.92 469.961 158.598 468.283 158.598 466.211C158.598 464.14 156.92 462.461 154.848 462.461C152.777 462.461 151.098 464.14 151.098 466.211C151.098 468.283 152.777 469.961 154.848 469.961Z" fill="#041224"/>
<path d="M569.16 75.0195L604.494 128.12H533.826L569.16 75.0195Z" fill="#FAF352"/>
<path d="M565.972 74.6706C567.721 71.9853 571.654 71.9876 573.4 74.6748L606.014 124.881C607.928 127.828 605.813 131.724 602.299 131.724H537.597C534.125 131.724 532.002 127.911 533.832 124.96L552.151 95.4118C552.868 94.2564 554.385 93.9006 555.54 94.6167C556.695 95.333 557.051 96.8501 556.335 98.0055L538.481 126.802H601.392L569.684 77.9909L561.199 91.0211C560.457 92.1601 558.932 92.482 557.793 91.7404C556.654 90.9984 556.332 89.4738 557.074 88.3348L565.972 74.6706Z" fill="#041224"/>
<path d="M572.372 91.8533C572.372 90.4939 571.27 89.392 569.911 89.392C568.551 89.392 567.449 90.4939 567.449 91.8533V108.097C567.449 109.456 568.551 110.558 569.911 110.558C571.27 110.558 572.372 109.456 572.372 108.097V91.8533Z" fill="#041224"/>
<path d="M569.87 113.345C571.229 113.345 572.331 114.447 572.331 115.807V120.732C572.331 122.091 571.229 123.193 569.87 123.193C568.51 123.193 567.408 122.091 567.408 120.732V115.807C567.408 114.447 568.51 113.345 569.87 113.345Z" fill="#041224"/>
<path d="M472.929 241.34H489.577C490.447 241.34 491.282 241.719 491.897 242.394C492.512 243.069 492.858 243.985 492.858 244.94C492.858 245.894 492.512 246.81 491.897 247.485C491.282 248.16 490.447 248.54 489.577 248.54H472.929C472.059 248.54 471.224 248.16 470.609 247.485C469.994 246.81 469.648 245.894 469.648 244.94C469.648 243.985 469.994 243.069 470.609 242.394C471.224 241.719 472.059 241.34 472.929 241.34Z" fill="#041224"/>
<path d="M420.281 241.34H457.405C458.275 241.34 459.11 241.719 459.725 242.394C460.34 243.069 460.686 243.985 460.686 244.94C460.686 245.894 460.34 246.81 459.725 247.485C459.11 248.16 458.275 248.54 457.405 248.54H420.281C419.411 248.54 418.576 248.16 417.961 247.485C417.346 246.81 417 245.894 417 244.94C417 243.985 417.346 243.069 417.961 242.394C418.576 241.719 419.411 241.34 420.281 241.34Z" fill="#041224"/>
<path d="M472.929 121.58H489.577C490.447 121.58 491.282 121.959 491.897 122.634C492.512 123.309 492.858 124.225 492.858 125.18C492.858 126.134 492.512 127.05 491.897 127.725C491.282 128.4 490.447 128.78 489.577 128.78H472.929C472.059 128.78 471.224 128.4 470.609 127.725C469.994 127.05 469.648 126.134 469.648 125.18C469.648 124.225 469.994 123.309 470.609 122.634C471.224 121.959 472.059 121.58 472.929 121.58Z" fill="#041224"/>
<path d="M420.281 121.58H457.405C458.275 121.58 459.11 121.959 459.725 122.634C460.34 123.309 460.686 124.225 460.686 125.18C460.686 126.134 460.34 127.05 459.725 127.725C459.11 128.4 458.275 128.78 457.405 128.78H420.281C419.411 128.78 418.576 128.4 417.961 127.725C417.346 127.05 417 126.134 417 125.18C417 124.225 417.346 123.309 417.961 122.634C418.576 121.959 419.411 121.58 420.281 121.58Z" fill="#041224"/>
<path d="M472.929 181.58H489.577C490.447 181.58 491.282 181.959 491.897 182.634C492.512 183.309 492.858 184.225 492.858 185.18C492.858 186.134 492.512 187.05 491.897 187.725C491.282 188.4 490.447 188.78 489.577 188.78H472.929C472.059 188.78 471.224 188.4 470.609 187.725C469.994 187.05 469.648 186.134 469.648 185.18C469.648 184.225 469.994 183.309 470.609 182.634C471.224 181.959 472.059 181.58 472.929 181.58Z" fill="#041224"/>
<path d="M420.281 181.58H457.405C458.275 181.58 459.11 181.959 459.725 182.634C460.34 183.309 460.686 184.225 460.686 185.18C460.686 186.134 460.34 187.05 459.725 187.725C459.11 188.4 458.275 188.78 457.405 188.78H420.281C419.411 188.78 418.576 188.4 417.961 187.725C417.346 187.05 417 186.134 417 185.18C417 184.225 417.346 183.309 417.961 182.634C418.576 181.959 419.411 181.58 420.281 181.58Z" fill="#041224"/>
<path d="M569.289 46C540.731 46 516.805 64.9798 508.74 90.914H406.966C399.441 90.914 393.322 97.0619 393.322 104.587V144.729C393.322 148.596 394.974 152.049 397.568 154.537C394.824 157.026 393 160.563 393 164.551V204.692C393 208.62 394.723 212.1 397.392 214.589C394.723 217.077 393 220.586 393 224.514V264.656C393 272.181 399.148 278.3 406.673 278.3H574.237C581.762 278.3 587.881 272.181 587.881 264.656V224.514C587.881 220.586 586.158 217.077 583.489 214.589C586.158 212.1 587.881 208.62 587.881 204.692V170.319C613.905 162.314 633 138.329 633 109.711C633 74.5725 604.412 46 569.289 46ZM569.289 53.4954C600.29 53.4954 625.505 78.725 625.505 109.711C625.505 140.697 600.29 165.927 569.289 165.927C538.288 165.927 513.073 140.697 513.073 109.711C513.073 78.725 538.288 53.4954 569.289 53.4954ZM406.966 98.4094H506.72C506.06 102.082 505.578 105.843 505.578 109.711C505.578 125.496 511.561 139.739 521.096 150.877H406.966C403.563 150.877 400.818 148.117 400.818 144.729V104.587C400.818 101.184 403.578 98.4094 406.966 98.4094ZM406.673 158.373H406.966H527.478H528.708C539.771 167.607 553.788 173.422 569.289 173.422C573.097 173.422 576.773 172.925 580.386 172.28V204.692C580.386 208.095 577.625 210.841 574.237 210.841H406.673C403.27 210.841 400.495 208.08 400.495 204.692V164.551C400.495 161.148 403.285 158.373 406.673 158.373ZM406.673 218.336H574.237C577.64 218.336 580.386 221.126 580.386 224.514V264.656C580.386 268.059 577.625 270.804 574.237 270.804H406.673C403.27 270.804 400.495 268.044 400.495 264.656V224.514C400.495 221.111 403.285 218.336 406.673 218.336Z" fill="#041224"/>
<circle cx="551.4" cy="244.94" r="4.8" fill="#041224"/>
<circle cx="531" cy="244.94" r="4.8" fill="#041224"/>
<circle cx="551.4" cy="185.18" r="4.8" fill="#041224"/>
<circle cx="531" cy="185.18" r="4.8" fill="#041224"/>
<circle cx="125.5" cy="37.5" r="37.5" fill="#FF000F"/>
<path d="M128.761 37.5052L143.295 22.9709C143.515 22.7578 143.691 22.503 143.812 22.2212C143.934 21.9394 143.997 21.6363 144 21.3297C144.003 21.023 143.944 20.7189 143.828 20.435C143.712 20.1512 143.54 19.8933 143.324 19.6765C143.107 19.4596 142.849 19.2881 142.565 19.172C142.281 19.0559 141.977 18.9974 141.67 19.0001C141.364 19.0028 141.061 19.0665 140.779 19.1875C140.497 19.3086 140.242 19.4845 140.029 19.7051L125.495 34.2388L110.961 19.7051C110.526 19.2799 109.941 19.0433 109.333 19.0467C108.725 19.05 108.143 19.2931 107.713 19.723C107.283 20.1529 107.04 20.7351 107.037 21.3431C107.033 21.9512 107.27 22.5361 107.695 22.9709L122.229 37.5052L107.695 52.0395C107.476 52.2531 107.302 52.5079 107.183 52.7892C107.064 53.0704 107.002 53.3725 107 53.678C106.998 53.9834 107.057 54.2862 107.173 54.5688C107.29 54.8513 107.461 55.108 107.677 55.324C107.893 55.54 108.149 55.7109 108.432 55.827C108.714 55.9431 109.017 56.002 109.323 56.0003C109.628 55.9985 109.93 55.9362 110.212 55.8169C110.493 55.6976 110.747 55.5237 110.961 55.3053L125.495 40.7716L140.029 55.3053C140.48 55.7563 141.071 55.982 141.662 55.982C142.253 55.982 142.845 55.7563 143.295 55.3053C143.728 54.8722 143.971 54.2848 143.971 53.6724C143.971 53.06 143.728 52.4726 143.295 52.0395L128.761 37.5052Z" fill="white"/>
<line x1="125" y1="366.002" x2="125" y2="162" stroke="#041224" stroke-width="6" stroke-linecap="round"/>
<path d="M462 75V60C462 48.9543 453.046 40 442 40L247 40" stroke="#041224" stroke-width="6" stroke-linecap="round"/>
<line x1="196" y1="40" x2="224" y2="40" stroke="#041224" stroke-width="6" stroke-linecap="round"/>
<line x1="125" y1="136" x2="125" y2="108" stroke="#041224" stroke-width="6" stroke-linecap="round"/>
</svg>
