<svg width="658" height="255" viewBox="0 0 658 255" fill="none" xmlns="http://www.w3.org/2000/svg">
<path d="M101.6 94.25C135.9 94.25 161.217 101.25 177.55 115.25C194.117 129.25 202.4 147.917 202.4 171.25C202.4 186.417 198.433 200.417 190.5 213.25C182.8 225.85 170.9 236 154.8 243.7C138.933 251.167 119.217 254.9 95.65 254.9C78.3833 254.9 61.2333 252.8 44.2 248.6C27.4 244.4 12.9333 238.45 0.8 230.75L25.65 178.6C35.45 185.133 46.1833 190.15 57.85 193.65C69.75 197.15 81.65 198.9 93.55 198.9C105.45 198.9 114.9 196.683 121.9 192.25C129.133 187.583 132.75 181.167 132.75 173C132.75 164.833 129.25 158.65 122.25 154.45C115.25 150.25 102.883 148.15 85.15 148.15H18.65L30.9 4.99998H187V58.55H88.3L85.15 94.25H101.6ZM320.148 254.9C299.148 254.9 280.481 249.883 264.148 239.85C247.814 229.817 234.981 215.233 225.648 196.1C216.548 176.733 211.998 153.867 211.998 127.5C211.998 101.133 216.548 78.3833 225.648 59.25C234.981 39.8833 247.814 25.1833 264.148 15.15C280.481 5.11666 299.148 0.0999838 320.148 0.0999838C340.914 0.0999838 359.464 5.11666 375.798 15.15C392.131 25.1833 404.848 39.8833 413.948 59.25C423.281 78.3833 427.948 101.133 427.948 127.5C427.948 153.867 423.281 176.733 413.948 196.1C404.848 215.233 392.131 229.817 375.798 239.85C359.464 249.883 340.914 254.9 320.148 254.9ZM320.148 198.2C331.814 198.2 341.031 192.6 347.798 181.4C354.798 169.967 358.298 152 358.298 127.5C358.298 103 354.798 85.15 347.798 73.95C341.031 62.5167 331.814 56.8 320.148 56.8C308.248 56.8 298.798 62.5167 291.798 73.95C285.031 85.15 281.648 103 281.648 127.5C281.648 152 285.031 169.967 291.798 181.4C298.798 192.6 308.248 198.2 320.148 198.2ZM549.247 254.9C528.247 254.9 509.581 249.883 493.247 239.85C476.914 229.817 464.081 215.233 454.747 196.1C445.647 176.733 441.097 153.867 441.097 127.5C441.097 101.133 445.647 78.3833 454.747 59.25C464.081 39.8833 476.914 25.1833 493.247 15.15C509.581 5.11666 528.247 0.0999838 549.247 0.0999838C570.014 0.0999838 588.564 5.11666 604.897 15.15C621.231 25.1833 633.947 39.8833 643.047 59.25C652.381 78.3833 657.047 101.133 657.047 127.5C657.047 153.867 652.381 176.733 643.047 196.1C633.947 215.233 621.231 229.817 604.897 239.85C588.564 249.883 570.014 254.9 549.247 254.9ZM549.247 198.2C560.914 198.2 570.131 192.6 576.897 181.4C583.897 169.967 587.397 152 587.397 127.5C587.397 103 583.897 85.15 576.897 73.95C570.131 62.5167 560.914 56.8 549.247 56.8C537.347 56.8 527.897 62.5167 520.897 73.95C514.131 85.15 510.747 103 510.747 127.5C510.747 152 514.131 169.967 520.897 181.4C527.897 192.6 537.347 198.2 549.247 198.2Z" fill="#E5EDFF"/>
</svg>
