<svg width="32" height="25" viewBox="0 0 32 25" fill="none" xmlns="http://www.w3.org/2000/svg">
<path d="M25.2179 10.0059C25.4628 9.60615 25.9314 9.41448 26.4002 9.41448V9.41448C26.8689 9.41449 27.3375 9.60617 27.5824 10.0059L27.6251 10.0756C27.7752 10.3204 28.0752 10.4184 28.3751 10.3204C28.8466 10.1525 29.3182 9.87659 29.7582 9.58527C29.9033 9.48915 30.0505 9.38361 30.1255 9.22647C30.2128 9.04372 30.2295 8.82587 30.1251 8.65545V8.65545C29.8614 8.25377 29.915 7.72239 30.1578 7.30783V7.30783C30.3935 6.90558 30.7934 6.59871 31.2595 6.59871H31.3251C31.625 6.59871 31.875 6.40283 31.925 6.10901C32.025 5.4724 32.025 4.88476 31.925 4.29711C31.875 4.00331 31.625 3.75845 31.3251 3.75845H31.239C30.785 3.75845 30.3966 3.45927 30.1578 3.07312V3.07312C29.9118 2.67516 29.8537 2.16413 30.1104 1.77296L30.1251 1.75068C30.2751 1.45685 30.1751 1.16303 29.9751 0.967156C29.4751 0.575403 28.9251 0.281578 28.3751 0.0367273C28.0752 -0.0612123 27.7752 0.0367273 27.6251 0.330548L27.6029 0.364292C27.3442 0.758472 26.8717 0.94267 26.4002 0.942673V0.942673C25.9287 0.942676 25.4561 0.758492 25.1974 0.364332L25.1752 0.330548C25.0252 0.0367273 24.7253 -0.0612123 24.4251 0.0367273C23.8752 0.281578 23.3253 0.575403 22.8252 0.967156C22.6252 1.16303 22.5252 1.45685 22.6752 1.75068L22.6898 1.77287C22.9466 2.16406 22.8885 2.67522 22.6424 3.07325V3.07325C22.4037 3.45934 22.0153 3.75845 21.5614 3.75845H21.4753C21.1752 3.75845 20.9253 4.00331 20.8753 4.29711C20.7753 4.88476 20.7753 5.52137 20.8753 6.10901C20.9253 6.40283 21.1752 6.59871 21.4753 6.59871H21.5408C22.007 6.59871 22.4068 6.90551 22.6424 7.3077V7.3077C22.8853 7.72232 22.9389 8.25374 22.6752 8.65545V8.65545C22.5708 8.82581 22.5875 9.04357 22.6746 9.22628C22.7497 9.38356 22.897 9.48918 23.0423 9.58537C23.4823 9.87665 23.9537 10.1525 24.4251 10.3204C24.7253 10.4184 25.0252 10.3204 25.1752 10.0756L25.2179 10.0059ZM25.4515 6.73045C25.1897 6.60012 24.9733 6.38834 24.8384 6.12885C23.9552 4.43017 25.6833 2.7353 27.4131 3.70124C27.6289 3.8217 27.8126 3.99857 27.938 4.21145C28.9152 5.86999 27.1844 7.5931 25.4515 6.73045ZM20.7746 14.7101C19.9238 14.318 19.4774 13.3927 19.4753 12.4559V12.4559C19.4731 11.537 19.8987 10.6273 20.724 10.2231L21.0252 10.0756C21.5253 9.78175 21.7253 9.19413 21.5253 8.65545C21.0752 7.48017 20.2253 6.40283 19.3753 5.42343C19.0253 4.9827 18.3754 4.88476 17.8753 5.17858L17.798 5.22299C16.9751 5.69541 15.9574 5.57369 15.1333 5.1035V5.1035C14.3015 4.62893 13.6755 3.78568 13.6755 2.82802V2.82802C13.6755 2.24037 13.2755 1.75068 12.6755 1.65274C11.4255 1.45685 10.1256 1.45685 8.87559 1.65274C8.3256 1.75068 7.92561 2.24037 7.92561 2.82802V2.82802C7.92561 3.79096 7.27127 4.62621 6.43848 5.10966V5.10966C5.62373 5.58264 4.6298 5.69765 3.8128 5.22858L3.7257 5.17858C3.17572 4.88476 2.57573 5.03167 2.17575 5.42343C1.37577 6.40283 0.525788 7.48017 0.0757987 8.65545C-0.124197 9.19413 0.0757987 9.78175 0.625785 10.0756L0.88563 10.2067C1.70792 10.6216 2.12794 11.5345 2.12577 12.4555V12.4555C2.12355 13.3949 1.68241 14.3239 0.833847 14.7268L0.625785 14.8256C0.0757987 15.1195 -0.124197 15.7561 0.0757987 16.2457C0.525788 17.47 1.37577 18.5474 2.17575 19.4778C2.57573 19.9186 3.22572 20.0165 3.7257 19.7227L3.85153 19.6547C4.6546 19.2207 5.60157 19.3172 6.39302 19.772V19.772C7.24785 20.2633 7.92561 21.1362 7.92561 22.1222V22.1222C7.92561 22.7098 8.3256 23.1996 8.92559 23.2975C10.1756 23.4934 11.4755 23.4934 12.6755 23.2975C13.2755 23.1996 13.6755 22.7098 13.6755 22.1222V22.0749C13.6755 21.1072 14.3164 20.2626 15.1602 19.7889V19.7889C15.9699 19.3343 16.9541 19.2428 17.7594 19.7051L17.8753 19.7717C18.3754 20.0165 19.0253 19.9186 19.3753 19.4778C20.2253 18.5474 21.0752 17.47 21.5253 16.2457C21.7253 15.7071 21.5253 15.1195 21.0252 14.8256L20.7746 14.7101ZM13.6592 14.7484C13.5125 14.9674 13.3205 15.1554 13.0988 15.2979C9.43928 17.6492 5.48903 13.7736 7.94611 10.1898C8.09048 9.97926 8.2775 9.79754 8.49193 9.65897C12.1477 7.29641 16.0595 11.1647 13.6592 14.7484ZM25.2179 24.6479C25.4628 24.2481 25.9314 24.0565 26.4002 24.0565V24.0565C26.8689 24.0565 27.3375 24.2482 27.5823 24.6479L27.6251 24.7176C27.7752 24.9625 28.0752 25.0604 28.3751 24.9625C28.9251 24.7666 29.4751 24.4239 29.9751 24.032C30.1751 23.8851 30.2751 23.5423 30.1251 23.2975L30.0829 23.2286C29.8408 22.8334 29.9061 22.3301 30.1512 21.9368V21.9368C30.3952 21.5452 30.7901 21.2408 31.2516 21.2408H31.3251C31.625 21.2408 31.875 21.0448 31.925 20.751C32.025 20.1145 32.025 19.5267 31.925 18.9391C31.875 18.6453 31.625 18.4005 31.3251 18.4005H31.2391C30.785 18.4005 30.3966 18.1013 30.1578 17.7151V17.7151C29.9118 17.3171 29.8537 16.8062 30.1104 16.415L30.1251 16.3926C30.2751 16.0989 30.1751 15.8051 29.9751 15.6092C29.4751 15.2175 28.9251 14.9237 28.3751 14.6787C28.0752 14.5808 27.7752 14.6787 27.6251 14.9726L27.6029 15.0063C27.3442 15.4005 26.8717 15.5847 26.4002 15.5847V15.5847C25.9287 15.5847 25.4561 15.4005 25.1973 15.0064L25.1752 14.9726C25.0252 14.6787 24.7253 14.5808 24.4251 14.6787C23.8752 14.9237 23.3253 15.2175 22.8252 15.6092C22.6252 15.8051 22.5252 16.0989 22.6752 16.3926L22.6898 16.4149C22.9466 16.8061 22.8885 17.3172 22.6424 17.7152V17.7152C22.4037 18.1013 22.0153 18.4005 21.5613 18.4005H21.4753C21.1752 18.4005 20.9253 18.6453 20.8753 18.9391C20.7753 19.5267 20.7753 20.1634 20.8753 20.751C20.9253 21.0448 21.1752 21.2408 21.4753 21.2408H21.5488C22.0102 21.2408 22.405 21.5451 22.649 21.9367V21.9367C22.8942 22.3301 22.9595 22.8335 22.7173 23.2288L22.6752 23.2975C22.5252 23.5423 22.6252 23.8851 22.8252 24.032C23.3253 24.4239 23.8752 24.7666 24.4251 24.9625C24.7253 25.0604 25.0252 24.9625 25.1752 24.7176L25.2179 24.6479ZM25.409 21.3097C25.1775 21.1836 24.9831 20.9934 24.8557 20.7627C23.933 19.0917 25.6723 17.371 27.4132 18.3433C27.6289 18.4638 27.8126 18.6406 27.938 18.8535C28.9232 20.5254 27.1559 22.2609 25.409 21.3097Z" fill="#0C6773"/>
</svg>
