<svg width="27" height="25" viewBox="0 0 27 25" fill="none" xmlns="http://www.w3.org/2000/svg">
<path fill-rule="evenodd" clip-rule="evenodd" d="M9.05475 15.6669H9.05589L9.05875 15.6667H22.3379C22.6648 15.6667 22.9523 15.4495 23.0421 15.1348L25.9718 4.86814C26.0349 4.64681 25.9907 4.40885 25.8524 4.22514C25.7139 4.04142 25.4975 3.93333 25.2676 3.93333H7.3656L6.84203 1.57425C6.76745 1.23872 6.47028 1 6.12696 1H1.73242C1.32787 1 1 1.32828 1 1.73333C1 2.13839 1.32787 2.46667 1.73242 2.46667H5.5395L8.18385 14.3814C7.40546 14.7202 6.85939 15.4973 6.85939 16.4C6.85939 17.6131 7.8451 18.6 9.05665 18.6H22.3379C22.7425 18.6 23.0703 18.2717 23.0703 17.8667C23.0703 17.4616 22.7425 17.1333 22.3379 17.1333H9.05665C8.65287 17.1333 8.32423 16.8043 8.32423 16.4C8.32423 15.9963 8.65172 15.6678 9.05475 15.6669ZM24.2966 5.4L21.7854 14.2H9.64412L7.69099 5.4H24.2966ZM8.32422 21.8C8.32422 23.013 9.30994 24 10.5215 24C11.733 24 12.7188 23.013 12.7188 21.8C12.7188 20.5869 11.733 19.6 10.5215 19.6C9.30994 19.6 8.32422 20.5869 8.32422 21.8ZM10.5 22C10.6864 22 10.8613 21.8712 10.9957 21.7723C11.1524 21.657 11.2539 21.5823 11.2539 21.8C11.2539 22.0929 11.0701 22.0664 10.8152 22.0295C10.7183 22.0155 10.6112 22 10.5 22ZM10.5 22C10.3868 22 10.2811 22.0161 10.1877 22.0303C9.9481 22.0667 9.78906 22.0909 9.78906 21.8C9.78906 21.5862 9.87496 21.6544 10.0156 21.7662C10.141 21.8658 10.3098 22 10.5 22ZM20.8731 24C19.6615 24 18.6758 23.013 18.6758 21.8C18.6758 20.5869 19.6615 19.6 20.8731 19.6C22.0846 19.6 23.0703 20.5869 23.0703 21.8C23.0703 23.013 22.0846 24 20.8731 24ZM21.3414 21.7379C21.2143 21.8169 21.051 21.9183 20.8731 21.9183C20.6951 21.9183 20.5318 21.8169 20.4047 21.7379C20.2435 21.6377 20.1406 21.5738 20.1406 21.8C20.1406 22.2043 20.4693 22.2073 20.8731 22.2073C21.2768 22.2073 21.6055 22.2043 21.6055 21.8C21.6055 21.5738 21.5026 21.6377 21.3414 21.7379Z" fill="#096B78"/>
<path d="M9.05589 15.6669V15.9169H9.06422L9.07252 15.9163L9.05589 15.6669ZM9.05475 15.6669L9.05475 15.4169L9.05415 15.4169L9.05475 15.6669ZM9.05875 15.6667V15.4167H9.05043L9.04212 15.4172L9.05875 15.6667ZM23.0421 15.1348L23.2825 15.2034L23.2825 15.2034L23.0421 15.1348ZM25.9718 4.86814L26.2122 4.93674L26.2122 4.93672L25.9718 4.86814ZM25.8524 4.22514L26.0522 4.07479L26.0521 4.07466L25.8524 4.22514ZM7.3656 3.93333L7.12153 3.9875L7.165 4.18333H7.3656V3.93333ZM6.84203 1.57425L7.08609 1.52009L7.08607 1.52001L6.84203 1.57425ZM5.5395 2.46667L5.78356 2.4125L5.7401 2.21667H5.5395V2.46667ZM8.18385 14.3814L8.28362 14.6107L8.47256 14.5284L8.42791 14.3273L8.18385 14.3814ZM21.7854 14.2V14.45H21.974L22.0258 14.2686L21.7854 14.2ZM24.2966 5.4L24.537 5.4686L24.6279 5.15H24.2966V5.4ZM9.64412 14.2L9.40006 14.2542L9.44352 14.45H9.64412V14.2ZM7.69099 5.4V5.15H7.37942L7.44693 5.45417L7.69099 5.4ZM10.9957 21.7723L10.8475 21.571L10.8475 21.571L10.9957 21.7723ZM10.8152 22.0295L10.851 21.7821L10.851 21.7821L10.8152 22.0295ZM10.1877 22.0303L10.2253 22.2774L10.2253 22.2774L10.1877 22.0303ZM10.0156 21.7662L9.86008 21.962L9.86008 21.962L10.0156 21.7662ZM21.3414 21.7379L21.2094 21.5256L21.2094 21.5256L21.3414 21.7379ZM20.4047 21.7379L20.5367 21.5256L20.5367 21.5256L20.4047 21.7379ZM9.05589 15.4169H9.05475V15.9169H9.05589V15.4169ZM9.04212 15.4172L9.03926 15.4174L9.07252 15.9163L9.07538 15.9161L9.04212 15.4172ZM22.3379 15.4167H9.05875V15.9167H22.3379V15.4167ZM22.8017 15.0662C22.7425 15.2738 22.553 15.4167 22.3379 15.4167V15.9167C22.7767 15.9167 23.1621 15.6253 23.2825 15.2034L22.8017 15.0662ZM25.7314 4.79954L22.8017 15.0662L23.2825 15.2034L26.2122 4.93674L25.7314 4.79954ZM25.6527 4.37548C25.7439 4.49662 25.7731 4.65354 25.7314 4.79957L26.2122 4.93672C26.2968 4.64007 26.2375 4.32109 26.0522 4.07479L25.6527 4.37548ZM25.2676 4.18333C25.4188 4.18333 25.5614 4.25444 25.6528 4.37562L26.0521 4.07466C25.8664 3.82841 25.5761 3.68333 25.2676 3.68333V4.18333ZM7.3656 4.18333H25.2676V3.68333H7.3656V4.18333ZM6.59797 1.62842L7.12153 3.9875L7.60966 3.87917L7.08609 1.52009L6.59797 1.62842ZM6.12696 1.25C6.35285 1.25 6.54877 1.40708 6.59798 1.6285L7.08607 1.52001C6.98613 1.07035 6.58772 0.75 6.12696 0.75V1.25ZM1.73242 1.25H6.12696V0.75H1.73242V1.25ZM1.25 1.73333C1.25 1.46606 1.46624 1.25 1.73242 1.25V0.75C1.18951 0.75 0.75 1.1905 0.75 1.73333H1.25ZM1.73242 2.21667C1.46624 2.21667 1.25 2.00061 1.25 1.73333H0.75C0.75 2.27616 1.18951 2.71667 1.73242 2.71667V2.21667ZM5.5395 2.21667H1.73242V2.71667H5.5395V2.21667ZM8.42791 14.3273L5.78356 2.4125L5.29544 2.52083L7.93979 14.4356L8.42791 14.3273ZM7.10939 16.4C7.10939 15.6005 7.59295 14.9113 8.28362 14.6107L8.08408 14.1522C7.21797 14.5292 6.60939 15.394 6.60939 16.4H7.10939ZM9.05665 18.35C7.98347 18.35 7.10939 17.4753 7.10939 16.4H6.60939C6.60939 17.7508 7.70674 18.85 9.05665 18.85V18.35ZM22.3379 18.35H9.05665V18.85H22.3379V18.35ZM22.8203 17.8667C22.8203 18.1339 22.6041 18.35 22.3379 18.35V18.85C22.8808 18.85 23.3203 18.4095 23.3203 17.8667H22.8203ZM22.3379 17.3833C22.6041 17.3833 22.8203 17.5994 22.8203 17.8667H23.3203C23.3203 17.3238 22.8808 16.8833 22.3379 16.8833V17.3833ZM9.05665 17.3833H22.3379V16.8833H9.05665V17.3833ZM8.07423 16.4C8.07423 16.9421 8.5145 17.3833 9.05665 17.3833V16.8833C8.79123 16.8833 8.57423 16.6665 8.57423 16.4H8.07423ZM9.05415 15.4169C8.51305 15.4181 8.07423 15.8587 8.07423 16.4H8.57423C8.57423 16.1339 8.7904 15.9175 9.05534 15.9169L9.05415 15.4169ZM22.0258 14.2686L24.537 5.4686L24.0562 5.3314L21.545 14.1314L22.0258 14.2686ZM9.64412 14.45H21.7854V13.95H9.64412V14.45ZM7.44693 5.45417L9.40006 14.2542L9.88818 14.1458L7.93505 5.34583L7.44693 5.45417ZM24.2966 5.15H7.69099V5.65H24.2966V5.15ZM10.5215 23.75C9.4483 23.75 8.57422 22.8753 8.57422 21.8H8.07422C8.07422 23.1508 9.17157 24.25 10.5215 24.25V23.75ZM12.4688 21.8C12.4688 22.8753 11.5947 23.75 10.5215 23.75V24.25C11.8714 24.25 12.9688 23.1508 12.9688 21.8H12.4688ZM10.5215 19.85C11.5947 19.85 12.4688 20.7247 12.4688 21.8H12.9688C12.9688 20.4491 11.8714 19.35 10.5215 19.35V19.85ZM8.57422 21.8C8.57422 20.7247 9.4483 19.85 10.5215 19.85V19.35C9.17157 19.35 8.07422 20.4491 8.07422 21.8H8.57422ZM10.8475 21.571C10.7782 21.622 10.7152 21.6679 10.65 21.7025C10.5851 21.737 10.5365 21.75 10.5 21.75V22.25C10.6499 22.25 10.7819 22.1986 10.8847 22.144C10.9872 22.0895 11.0788 22.0216 11.1439 21.9737L10.8475 21.571ZM11.5039 21.8C11.5039 21.7382 11.4988 21.6477 11.4548 21.5674C11.4292 21.5207 11.3871 21.4715 11.3227 21.4403C11.2594 21.4096 11.1976 21.4073 11.1511 21.4134C11.0706 21.4239 11.0035 21.4642 10.9692 21.4857C10.9282 21.5115 10.8843 21.5439 10.8475 21.571L11.1439 21.9737C11.1854 21.9431 11.213 21.923 11.2352 21.9091C11.2455 21.9026 11.2499 21.9005 11.2497 21.9006C11.2494 21.9008 11.2465 21.9021 11.2414 21.9037C11.2365 21.9052 11.2278 21.9076 11.216 21.9092C11.192 21.9123 11.1502 21.9123 11.1044 21.8901C11.0574 21.8673 11.0301 21.8327 11.0164 21.8079C11.01 21.7962 11.0066 21.7867 11.0048 21.7811C11.0039 21.7782 11.0034 21.776 11.0031 21.7746C11.0027 21.7733 11.0026 21.7725 11.0026 21.7725C11.0026 21.7725 11.0027 21.7731 11.0028 21.7743C11.003 21.7755 11.0032 21.7773 11.0033 21.7797C11.0037 21.7845 11.0039 21.7911 11.0039 21.8H11.5039ZM10.7794 22.2769C10.8402 22.2857 10.9108 22.2961 10.9767 22.3C11.0412 22.3037 11.1247 22.3031 11.2076 22.2761C11.3 22.246 11.3846 22.185 11.4397 22.0862C11.4896 21.9964 11.5039 21.8953 11.5039 21.8H11.0039C11.0039 21.8511 10.9952 21.8566 11.0027 21.843C11.0074 21.8348 11.0153 21.8244 11.0269 21.8152C11.0382 21.8063 11.0481 21.8022 11.0526 21.8007C11.0577 21.7991 11.0475 21.8032 11.0058 21.8008C10.9655 21.7985 10.9176 21.7917 10.851 21.7821L10.7794 22.2769ZM10.5 22.25C10.5905 22.25 10.6803 22.2626 10.7794 22.2769L10.851 21.7821C10.7563 21.7684 10.6319 21.75 10.5 21.75V22.25ZM10.2253 22.2774C10.3205 22.263 10.4083 22.25 10.5 22.25V21.75C10.3652 21.75 10.2418 21.7692 10.1502 21.7831L10.2253 22.2774ZM9.53906 21.8C9.53906 21.8911 9.55079 21.9873 9.59316 22.0738C9.64054 22.1705 9.71782 22.2376 9.81188 22.2724C9.89476 22.303 9.97783 22.3037 10.039 22.3001C10.1015 22.2965 10.1687 22.286 10.2253 22.2774L10.1502 21.7831C10.087 21.7927 10.0445 21.799 10.0097 21.801C9.9936 21.8019 9.98397 21.8016 9.979 21.8012C9.97409 21.8007 9.97725 21.8004 9.9852 21.8034C9.99404 21.8066 10.0066 21.8131 10.019 21.8243C10.0315 21.8355 10.0387 21.8468 10.0422 21.8538C10.0472 21.8642 10.0391 21.8543 10.0391 21.8H9.53906ZM10.1712 21.5705C10.1385 21.5446 10.0984 21.5125 10.0607 21.487C10.0315 21.4673 9.96294 21.422 9.87706 21.4125C9.82526 21.4068 9.75939 21.4131 9.69565 21.4511C9.63377 21.488 9.59811 21.5404 9.57823 21.5829C9.54328 21.6576 9.53906 21.7407 9.53906 21.8H10.0391C10.0391 21.7808 10.0401 21.771 10.0405 21.7679C10.0411 21.7636 10.0401 21.7754 10.0311 21.7947C10.0215 21.8153 9.99854 21.8527 9.95167 21.8806C9.90294 21.9097 9.8544 21.9131 9.82213 21.9095C9.7936 21.9063 9.7761 21.8978 9.77413 21.8969C9.77093 21.8953 9.77271 21.8959 9.78105 21.9015C9.79906 21.9137 9.82239 21.932 9.86008 21.962L10.1712 21.5705ZM10.5 21.75C10.4637 21.75 10.4171 21.737 10.3562 21.7027C10.2945 21.6679 10.2359 21.622 10.1712 21.5705L9.86008 21.962C9.92067 22.0101 10.0092 22.0811 10.1108 22.1383C10.2131 22.196 10.3461 22.25 10.5 22.25V21.75ZM18.4258 21.8C18.4258 23.1508 19.5231 24.25 20.8731 24.25V23.75C19.7999 23.75 18.9258 22.8753 18.9258 21.8H18.4258ZM20.8731 19.35C19.5231 19.35 18.4258 20.4491 18.4258 21.8H18.9258C18.9258 20.7247 19.7999 19.85 20.8731 19.85V19.35ZM23.3203 21.8C23.3203 20.4491 22.223 19.35 20.8731 19.35V19.85C21.9462 19.85 22.8203 20.7247 22.8203 21.8H23.3203ZM20.8731 24.25C22.223 24.25 23.3203 23.1508 23.3203 21.8H22.8203C22.8203 22.8753 21.9462 23.75 20.8731 23.75V24.25ZM20.8731 22.1683C21.1344 22.1683 21.3586 22.0215 21.4733 21.9503L21.2094 21.5256C21.07 21.6122 20.9675 21.6683 20.8731 21.6683V22.1683ZM20.2728 21.9503C20.3875 22.0215 20.6117 22.1683 20.8731 22.1683V21.6683C20.7786 21.6683 20.6761 21.6122 20.5367 21.5256L20.2728 21.9503ZM20.3906 21.8C20.3906 21.7804 20.3918 21.7704 20.3923 21.7675C20.3929 21.7637 20.3917 21.7748 20.3827 21.7929C20.3727 21.8127 20.352 21.8429 20.3142 21.8665C20.2758 21.8905 20.2376 21.8967 20.211 21.8966C20.187 21.8964 20.1721 21.8914 20.1708 21.8909C20.1688 21.8902 20.1718 21.8911 20.1815 21.8961C20.2027 21.9069 20.2297 21.9235 20.2728 21.9503L20.5367 21.5256C20.4991 21.5023 20.4528 21.4733 20.4094 21.451C20.3724 21.4321 20.2994 21.397 20.2135 21.3966C20.1639 21.3963 20.1053 21.4075 20.0492 21.4425C19.9936 21.4773 19.9578 21.5246 19.9357 21.5687C19.8965 21.6471 19.8906 21.7343 19.8906 21.8H20.3906ZM20.8731 21.9573C20.6542 21.9573 20.5251 21.9528 20.4456 21.9221C20.4164 21.9108 20.4102 21.9014 20.4079 21.898C20.4044 21.8925 20.3906 21.868 20.3906 21.8H19.8906C19.8906 21.9341 19.9179 22.0615 19.9886 22.1704C20.0606 22.2812 20.1618 22.3484 20.2652 22.3884C20.451 22.4603 20.6881 22.4573 20.8731 22.4573V21.9573ZM21.3555 21.8C21.3555 21.868 21.3417 21.8925 21.3382 21.898C21.3359 21.9014 21.3297 21.9108 21.3005 21.9221C21.221 21.9528 21.0919 21.9573 20.8731 21.9573V22.4573C21.058 22.4573 21.2951 22.4603 21.4809 22.3884C21.5843 22.3484 21.6855 22.2812 21.7575 22.1704C21.8282 22.0615 21.8555 21.9341 21.8555 21.8H21.3555ZM21.4733 21.9503C21.5164 21.9235 21.5434 21.9069 21.5646 21.8961C21.5743 21.8911 21.5773 21.8902 21.5753 21.8909C21.574 21.8914 21.5591 21.8964 21.5351 21.8966C21.5085 21.8967 21.4703 21.8905 21.4319 21.8665C21.3941 21.8429 21.3734 21.8127 21.3634 21.7929C21.3544 21.7748 21.3532 21.7637 21.3538 21.7675C21.3543 21.7704 21.3555 21.7804 21.3555 21.8H21.8555C21.8555 21.7343 21.8496 21.6471 21.8104 21.5687C21.7883 21.5246 21.7525 21.4773 21.6969 21.4425C21.6408 21.4075 21.5822 21.3963 21.5327 21.3966C21.4467 21.397 21.3737 21.4321 21.3367 21.451C21.2933 21.4733 21.247 21.5023 21.2094 21.5256L21.4733 21.9503Z" fill="#096B78"/>
</svg>
