<svg width="33" height="30" viewBox="0 0 33 30" fill="none" xmlns="http://www.w3.org/2000/svg">
<path d="M30.591 0.332988L1.28425 12.4301C1.28425 12.4301 -0.10133 12.9296 0.00591972 13.8509C0.116057 14.7738 1.24671 15.196 1.24671 15.196L10.3092 18.769C10.3092 18.769 11.4794 24.618 11.6908 26.1057C11.8561 27.269 12.1139 28.3289 12.1139 28.3289C12.4456 28.6586 12.8532 28.3289 12.8532 28.3289L17.6175 23.7597L25.0429 29.7497C27.0514 30.6714 27.7823 28.7511 27.7823 28.7511L33 1.06405C33 -0.780171 30.591 0.332988 30.591 0.332988ZM25.4026 26.5243L17.4587 20.1178L14.9936 22.4812L14.1592 18.769L26.1245 7.5L11.6908 15.9986L5.28837 13.7322L29.7153 3.64874L25.4026 26.5243Z" fill="white"/>
</svg>
