<svg width="24" height="22" viewBox="0 0 24 22" fill="none" xmlns="http://www.w3.org/2000/svg">
<path d="M0.857143 4.04082H23.1429C23.6163 4.04082 24 3.63881 24 3.14286V0.897959C24 0.402005 23.6163 0 23.1429 0H0.857143C0.383732 0 0 0.402005 0 0.897959V3.14286C0 3.63881 0.383732 4.04082 0.857143 4.04082ZM0.857143 13.0204H23.1429C23.6163 13.0204 24 12.6184 24 12.1224V9.87755C24 9.3816 23.6163 8.97959 23.1429 8.97959H0.857143C0.383732 8.97959 0 9.3816 0 9.87755V12.1224C0 12.6184 0.383732 13.0204 0.857143 13.0204ZM0.857143 22H23.1429C23.6163 22 24 21.598 24 21.102V18.8571C24 18.3612 23.6163 17.9592 23.1429 17.9592H0.857143C0.383732 17.9592 0 18.3612 0 18.8571V21.102C0 21.598 0.383732 22 0.857143 22Z" fill="#096B78"/>
</svg>
