<svg width="39" height="33" viewBox="0 0 39 33" fill="none" xmlns="http://www.w3.org/2000/svg">
<path d="M0.572428 28.479C4.22109 30.7944 8.46747 32.0177 12.8518 32.0177C19.2722 32.0177 25.1558 29.5513 29.4202 25.0734C33.5007 20.7876 35.7454 15.0289 35.6338 9.18478C37.1806 7.86127 39 5.33413 39 2.87103C39 1.92684 37.9754 1.32749 37.1445 1.80862C35.6912 2.66249 34.3661 2.88581 33.0032 2.50321C30.2199 -0.209483 26.077 -0.780922 22.5859 1.10089C19.535 2.74295 17.8387 5.74793 17.9914 9.03206C12.837 8.40315 8.07502 5.81854 4.75476 1.80205C4.2096 1.14686 3.1751 1.22404 2.74159 1.96625C1.14222 4.70522 1.15864 7.87933 2.54947 10.4426C1.88772 10.5592 1.47885 11.1158 1.47885 11.7185C1.47885 14.2949 2.63814 16.6627 4.50517 18.2785C4.15705 18.6135 4.04211 19.1111 4.18989 19.5544C5.01093 22.0208 6.86974 23.9486 9.19326 24.9141C6.66613 26.121 3.87133 26.5233 1.38361 26.2179C0.0962293 26.0439 -0.539249 27.7746 0.572428 28.479ZM13.1884 25.3361C14.1096 24.6284 13.6203 23.1538 12.4643 23.1292C10.4281 23.0865 8.5742 22.0832 7.41983 20.5052C7.97649 20.4691 8.55286 20.3837 9.10131 20.2359C10.3509 19.8976 10.2918 18.0946 9.02249 17.8401C6.71867 17.377 4.91076 15.6989 4.23259 13.5379C4.85165 13.6906 5.4822 13.776 6.11111 13.7875C7.35743 13.7941 7.82871 12.1963 6.81227 11.528C4.52159 10.0189 3.54456 7.35387 4.19154 4.84808C8.1916 8.9007 13.6186 11.3424 19.3593 11.6183C20.182 11.6692 20.7994 10.8958 20.6187 10.1125C19.8388 6.73153 21.7271 4.36203 23.7551 3.27005C25.7617 2.18629 28.9834 1.84803 31.4531 4.43921C32.1871 5.21262 34.6633 5.24218 35.9228 4.94825C35.3579 6.0123 34.4893 7.02217 33.6764 7.59033C33.33 7.83336 33.1313 8.2373 33.1526 8.65931C33.417 14.0535 31.4071 19.4165 27.6386 23.3722C23.8421 27.3575 18.5924 29.553 12.8534 29.553C10.571 29.553 8.33282 29.1819 6.21784 28.4659C8.74662 27.9766 11.149 26.906 13.1884 25.3361Z" fill="white"/>
</svg>
