<svg width="45" height="27" viewBox="0 0 45 27" fill="none" xmlns="http://www.w3.org/2000/svg">
<path d="M36.558 26.5688C36.0592 26.5688 35.0486 26.4506 33.8711 25.6538C32.9823 25.0481 32.1236 24.0788 31.293 23.1394C30.0311 21.7125 28.8236 20.3906 27.8523 20.6963C26.5286 21.1144 26.2136 23.5631 26.2323 24.8006C26.2305 24.9225 26.2023 25.4119 25.8723 25.7644C25.6248 26.0119 25.293 26.1094 24.6667 26.1281L21.8861 26.1338C21.888 26.1356 21.753 26.1431 21.5298 26.1431C20.1217 26.1431 15.1848 25.7906 10.7917 21.2663C5.13109 15.4406 0.124844 3.93002 0.0742188 3.81377L0.203594 2.62315C0.212969 2.61752 0.222344 2.61002 0.229844 2.6044L0.520469 2.46002C0.886094 2.33252 1.31172 2.32315 1.41672 2.32315L7.69797 2.28377C7.87047 2.30065 8.45172 2.4094 8.85859 2.6944C9.21859 2.9644 9.41922 3.4219 9.42859 3.44252C9.44922 3.49315 10.4748 6.0619 11.8511 8.39627C14.3186 12.6169 15.6292 14.0494 16.6942 13.485C17.3561 13.1288 17.9055 10.9969 17.6298 7.04815C17.6373 6.24002 17.5098 4.6444 16.9586 3.9169C16.6136 3.45002 16.1036 3.17815 15.738 3.0319L14.5155 2.5444L15.5073 1.6819C15.6517 1.55627 15.8036 1.45315 15.9573 1.37627C16.803 0.969399 18.1023 0.431274 19.6942 0.431274H21.8936C23.0148 0.431274 23.6205 0.688149 24.1061 0.894399C24.3273 0.986274 24.5205 1.06877 24.7267 1.1194C26.4442 1.5244 26.3823 3.1219 26.2698 6.02065C26.2361 6.88315 26.1967 7.86565 26.1967 8.97377C26.1967 9.22315 26.1892 9.4894 26.1817 9.76127C26.1423 11.1619 26.0936 12.8756 27.0573 13.4925C27.5973 13.8281 28.7898 13.47 31.7636 8.47127C33.1811 6.07877 34.2198 3.35627 34.2292 3.33002C34.2573 3.2644 34.4861 2.76752 34.8311 2.5519C35.0598 2.41127 35.3336 2.38315 35.5248 2.38315L35.7761 2.39627L42.5598 2.34377C42.5561 2.3419 42.7661 2.32127 43.0473 2.32127C44.0073 2.32127 44.433 2.5519 44.5417 2.62127L44.7611 2.76377L44.8567 3.0094C45.2205 3.97315 44.0355 6.26627 41.328 9.8269C40.7467 10.5881 40.2367 11.2463 39.7905 11.8181C36.7605 15.6994 36.7605 15.6994 40.0455 18.7125C42.9067 21.3338 44.0692 22.965 44.5398 23.8706C44.928 24.4969 45.0236 25.065 44.8005 25.5094C44.3711 26.3419 42.9798 26.4525 42.9217 26.4581L36.7511 26.5594C36.7605 26.5613 36.678 26.5688 36.558 26.5688ZM28.1617 19.0425C29.8155 19.0425 31.0586 20.4469 32.4986 22.0725C33.2636 22.9388 34.0548 23.8313 34.7767 24.3206C35.6523 24.9131 36.363 24.9619 36.5598 24.9619V25.7644L36.6255 24.9581L42.8505 24.8531C42.9536 24.8438 43.0886 24.8119 43.2067 24.7725C43.1898 24.7369 43.1673 24.7013 43.143 24.6581C42.7792 23.9625 41.7892 22.4888 38.9617 19.8938C35.0317 16.2919 34.9867 15.3581 38.5248 10.8281C38.9711 10.26 39.4773 9.6094 40.0511 8.85377C42.1811 6.05065 42.9236 4.60127 43.1823 3.92815C42.9723 3.92252 42.7136 3.9394 42.6742 3.94315L35.7348 3.9994L35.658 3.99565C35.5061 4.47377 34.488 7.02002 33.1455 9.29065C30.0648 14.4619 28.5461 15.1763 27.3611 15.1781C26.9392 15.1781 26.5492 15.0656 26.2005 14.8481C24.4642 13.7344 24.528 11.4244 24.5748 9.7369C24.5842 9.45752 24.5917 9.20627 24.5917 8.97002C24.5917 7.83752 24.6311 6.8344 24.6648 5.95315C24.7792 3.06752 24.663 2.75065 24.3573 2.6794C24.0667 2.60815 23.7873 2.50127 23.4836 2.3719C23.0561 2.19002 22.6905 2.0344 21.8936 2.0344H19.6942C18.9592 2.0344 18.288 2.18627 17.7198 2.3794C17.9073 2.5444 18.0855 2.73565 18.2448 2.95315C19.2198 4.2394 19.2405 6.55127 19.2348 7.00127C19.5442 11.415 18.9442 14.0925 17.4536 14.8969C17.073 15.0994 16.6717 15.2025 16.2573 15.2025C14.5473 15.2025 13.0848 13.6875 10.4673 9.2044C9.00484 6.72752 7.95484 4.0744 7.94359 4.04815C7.87609 3.9694 7.66797 3.89815 7.55922 3.87752L1.88547 3.9244C3.09109 6.55502 7.33422 15.405 11.943 20.1506C15.8992 24.2213 20.2811 24.5381 21.5298 24.5381C21.6986 24.5381 21.8036 24.5306 21.8298 24.5288L24.6273 24.525C24.6461 23.3756 24.9142 19.9369 27.3686 19.1663C27.6217 19.0838 27.8898 19.0425 28.1617 19.0425Z" fill="white"/>
</svg>
